{"glyphs":{"0":{"x_min":29,"x_max":1267,"ha":1296,"o":"m 1267 716 l 1267 716 q 1267 628 1248 541 q 1228 454 1191 374 q 1154 294 1101 225 q 1047 156 978 105 q 909 54 827 25 q 744 -4 649 -4 l 649 -4 q 553 -4 470 25 q 387 54 319 105 q 250 156 196 225 q 142 294 105 374 q 68 454 49 542 q 29 629 29 716 l 29 716 q 29 803 49 891 q 68 979 105 1059 q 142 1139 196 1209 q 250 1278 319 1329 q 387 1380 471 1409 q 554 1438 649 1438 l 649 1438 q 744 1438 827 1409 q 909 1380 978 1329 q 1047 1278 1101 1209 q 1154 1139 1191 1059 q 1228 979 1248 891 q 1267 803 1267 716 m 845 686 l 845 686 q 845 730 833 784 q 821 838 796 885 q 771 932 732 964 q 693 996 639 996 l 639 996 q 584 996 545 964 q 506 932 481 885 q 455 838 443 784 q 431 730 431 686 l 431 686 q 431 642 443 588 q 455 534 481 487 q 506 440 545 408 q 584 376 639 376 l 639 376 q 693 376 732 408 q 771 440 796 487 q 821 534 833 588 q 845 642 845 686"},"1":{"x_min":-30,"x_max":750,"ha":795,"o":"m 296 1458 l 750 1438 l 692 16 l 256 36 l 280 982 l 120 872 l -30 1214 l 296 1458"},"2":{"x_min":28,"x_max":1008,"ha":1043,"o":"m 1008 942 l 1008 942 q 1008 862 979 790 q 950 717 903 654 q 855 590 795 537 q 734 483 672 440 l 672 440 l 988 440 l 964 24 l 28 56 l 28 420 q 81 438 140 464 q 198 489 255 522 q 311 555 362 596 q 412 637 451 686 q 489 734 512 791 q 534 848 534 914 l 534 914 q 534 952 521 981 q 507 1010 483 1030 q 459 1049 428 1059 q 396 1068 360 1068 l 360 1068 q 330 1068 299 1062 q 268 1055 238 1043 q 208 1031 182 1014 q 155 996 134 974 l 134 974 l 46 1366 q 83 1403 131 1428 q 179 1453 232 1469 q 285 1484 340 1491 q 395 1498 448 1498 l 448 1498 q 566 1498 668 1456 q 770 1413 846 1339 q 921 1264 965 1162 q 1008 1060 1008 942"},"3":{"x_min":18,"x_max":1046,"ha":1081,"o":"m 1046 504 l 1046 504 q 1046 371 1004 274 q 961 176 885 112 q 809 47 704 16 q 598 -16 472 -16 l 472 -16 q 415 -16 355 -5 q 295 6 236 25 q 177 44 122 70 q 66 96 18 126 l 18 126 l 56 528 q 94 502 141 479 q 188 455 239 437 q 289 418 341 407 q 392 396 440 396 l 440 396 q 468 396 498 401 q 527 405 551 417 q 575 429 591 451 q 606 473 606 508 l 606 508 q 606 530 586 549 q 566 568 538 582 q 510 595 480 603 q 450 610 430 610 l 430 610 q 416 610 397 609 q 377 607 357 604 q 337 601 319 596 q 300 590 290 582 l 290 582 l 296 868 q 313 866 328 865 q 343 864 360 864 l 360 864 q 395 864 436 871 q 477 877 512 894 q 547 910 571 939 q 594 968 594 1014 l 594 1014 q 594 1047 576 1068 q 558 1088 532 1099 q 505 1110 474 1114 q 443 1118 418 1118 l 418 1118 q 337 1118 259 1090 q 180 1062 120 1008 l 120 1008 l 36 1372 q 128 1447 246 1487 q 363 1526 482 1526 l 482 1526 q 591 1526 691 1495 q 790 1463 866 1402 q 942 1340 987 1250 q 1032 1160 1032 1042 l 1032 1042 q 1032 1008 1022 973 q 1012 938 995 905 q 978 872 955 844 q 932 815 906 794 l 906 794 q 948 775 975 743 q 1002 711 1018 672 q 1034 633 1040 590 q 1046 546 1046 504"},"4":{"x_min":0,"x_max":1068,"ha":1104,"o":"m 1068 746 l 1068 480 l 980 478 l 962 46 l 510 6 l 534 468 l 0 456 l 148 1334 l 526 1334 l 416 722 l 548 726 l 586 1484 l 1020 1484 l 990 742 l 1068 746"},"5":{"x_min":26,"x_max":1066,"ha":1087,"o":"m 1066 504 l 1066 504 q 1066 374 1020 278 q 973 182 893 119 q 813 56 705 25 q 597 -6 474 -6 l 474 -6 q 415 -6 358 3 q 301 11 246 26 q 190 40 136 59 q 81 78 26 100 l 26 100 l 64 498 q 100 478 141 461 q 182 444 226 432 q 269 420 314 413 q 358 406 400 406 l 400 406 q 425 406 461 411 q 497 415 530 428 q 563 440 587 462 q 610 483 610 518 l 610 518 q 610 551 592 575 q 573 599 544 615 q 514 630 477 639 q 440 648 403 653 q 365 658 332 659 q 298 660 276 660 l 276 660 q 231 660 185 656 q 138 652 94 640 l 94 640 l 134 1448 l 944 1470 l 966 1052 l 464 1080 l 454 902 q 499 913 544 919 q 589 924 634 924 l 634 924 q 725 924 804 895 q 882 865 941 810 q 999 755 1033 678 q 1066 600 1066 504"},"6":{"x_min":32,"x_max":1158,"ha":1174,"o":"m 1158 510 l 1158 510 q 1158 388 1115 289 q 1072 189 997 119 q 921 48 817 9 q 713 -30 592 -30 l 592 -30 q 493 -30 414 -3 q 334 24 272 72 q 209 120 164 186 q 119 252 90 329 q 60 406 46 492 q 32 578 32 666 l 32 666 q 32 774 48 877 q 64 979 98 1069 q 131 1159 184 1235 q 237 1311 310 1365 q 383 1419 478 1450 q 572 1480 690 1480 l 690 1480 q 733 1480 778 1477 q 823 1473 868 1464 q 913 1455 956 1440 q 998 1425 1036 1402 l 1036 1402 l 1006 1008 q 935 1043 853 1062 q 770 1080 692 1080 l 692 1080 q 630 1080 585 1062 q 540 1043 509 1009 q 478 975 461 928 q 443 880 438 822 l 438 822 q 504 860 579 882 q 654 904 732 904 l 732 904 q 820 904 898 877 q 976 850 1034 799 q 1091 748 1125 675 q 1158 602 1158 510 m 778 480 l 778 480 q 778 511 765 536 q 751 560 730 578 q 708 595 680 605 q 652 614 624 614 l 624 614 q 596 614 569 605 q 542 595 521 578 q 499 560 486 536 q 472 511 472 480 l 472 480 q 472 450 486 426 q 499 401 521 384 q 542 367 569 358 q 596 348 624 348 l 624 348 q 652 348 680 358 q 708 367 730 384 q 751 401 765 426 q 778 450 778 480"},"7":{"x_min":18,"x_max":1010,"ha":1036,"o":"m 1010 1464 l 1010 1100 q 909 817 827 587 l 827 587 q 792 489 758 394 q 724 298 696 220 q 667 141 648 87 q 629 33 624 20 l 624 20 l 100 50 l 562 1044 l 18 1014 l 18 1446 l 1010 1464"},"8":{"x_min":29,"x_max":1141,"ha":1170,"o":"m 1141 442 l 1141 442 q 1141 361 1119 297 q 1097 233 1059 184 q 1020 134 968 99 q 915 64 853 42 q 790 19 721 9 q 652 -2 581 -2 l 581 -2 q 480 -2 382 25 q 283 52 205 108 q 126 163 78 246 q 29 329 29 442 l 29 442 q 29 488 40 535 q 51 581 72 623 q 93 665 125 699 q 157 733 199 756 l 199 756 q 133 815 100 892 q 67 968 67 1056 l 67 1056 q 67 1159 113 1237 q 158 1314 232 1367 q 305 1419 397 1446 q 489 1472 581 1472 l 581 1472 q 642 1472 704 1460 q 765 1448 822 1425 q 879 1402 929 1367 q 978 1332 1015 1286 q 1051 1239 1072 1182 q 1093 1124 1093 1056 l 1093 1056 q 1093 968 1060 892 q 1027 815 961 756 l 961 756 q 1057 706 1099 627 q 1141 548 1141 442 m 747 960 l 747 960 q 747 993 733 1020 q 718 1046 694 1065 q 670 1084 641 1094 q 611 1104 581 1104 l 581 1104 q 550 1104 520 1094 q 490 1084 466 1065 q 442 1046 428 1020 q 413 993 413 960 l 413 960 q 413 927 428 901 q 442 874 466 856 q 490 838 520 828 q 550 818 581 818 l 581 818 q 611 818 641 828 q 670 838 694 856 q 718 874 733 901 q 747 927 747 960 m 745 490 l 745 490 q 745 523 731 550 q 716 576 693 594 q 670 612 641 622 q 611 632 581 632 l 581 632 q 551 632 522 622 q 492 612 468 594 q 444 576 430 550 q 415 523 415 490 l 415 490 q 415 458 430 432 q 444 406 468 388 q 492 370 522 360 q 551 350 581 350 l 581 350 q 611 350 641 360 q 670 370 693 388 q 716 406 731 432 q 745 458 745 490"},"9":{"x_min":26,"x_max":1104,"ha":1137,"o":"m 1104 818 l 1104 818 q 1104 723 1089 627 q 1074 530 1043 440 q 1011 349 962 270 q 913 191 845 133 q 777 74 689 40 q 600 6 490 6 l 490 6 q 442 6 390 11 q 337 15 286 26 q 234 36 185 55 q 136 73 96 102 l 96 102 l 148 480 q 179 462 218 447 q 257 431 298 419 q 339 407 380 401 q 421 394 458 394 l 458 394 q 516 394 559 411 q 601 427 631 458 q 660 489 678 533 q 696 576 704 630 l 704 630 q 644 598 578 581 q 512 564 444 564 l 444 564 q 360 564 284 590 q 208 616 151 665 q 94 713 60 783 q 26 853 26 942 l 26 942 q 26 1056 68 1151 q 109 1246 181 1314 q 253 1382 352 1420 q 450 1458 564 1458 l 564 1458 q 703 1458 805 1407 q 906 1355 973 1268 q 1039 1180 1072 1064 q 1104 948 1104 818 m 690 964 l 690 964 q 690 994 677 1018 q 663 1042 642 1059 q 621 1076 594 1085 q 567 1094 540 1094 l 540 1094 q 513 1094 487 1086 q 461 1077 440 1061 q 419 1044 407 1021 q 394 997 394 968 l 394 968 q 394 939 408 915 q 421 891 442 874 q 463 857 490 848 q 517 838 544 838 l 544 838 q 571 838 597 847 q 623 856 644 873 q 665 889 678 912 q 690 935 690 964"}," ":{"x_min":0,"x_max":0,"ha":400,"o":""},"A":{"x_min":-32,"x_max":1312,"ha":1282,"o":"m 922 1432 l 1312 86 l 816 22 l 756 248 l 528 248 l 478 22 l -32 72 l 366 1404 l 922 1432 m 570 554 l 720 554 l 644 902 l 570 554"},"B":{"x_min":53,"x_max":1215,"ha":1217,"o":"m 1215 356 l 1215 356 q 1215 273 1185 213 q 1154 153 1103 111 q 1052 69 986 43 q 919 16 847 1 q 775 -14 703 -19 q 630 -24 567 -24 l 567 -24 q 505 -24 439 -19 q 372 -15 306 -4 q 240 7 176 26 q 112 44 55 72 l 55 72 l 53 1360 q 109 1383 172 1402 q 235 1420 301 1433 q 366 1445 431 1452 q 496 1458 557 1458 l 557 1458 q 628 1458 701 1449 q 773 1440 840 1419 q 907 1398 965 1365 q 1023 1331 1067 1282 q 1110 1233 1135 1168 q 1159 1103 1159 1018 l 1159 1018 q 1159 962 1143 913 q 1127 864 1097 825 q 1067 786 1024 759 q 981 731 927 718 l 927 718 q 992 701 1046 668 q 1099 635 1137 588 q 1174 541 1195 482 q 1215 423 1215 356 m 707 926 l 707 926 q 707 955 695 976 q 683 996 666 1009 q 648 1022 628 1028 q 607 1034 591 1034 l 591 1034 q 571 1034 552 1028 q 533 1022 515 1014 l 515 1014 l 509 792 q 532 792 566 796 q 600 800 632 814 q 663 827 685 854 q 707 880 707 926 m 565 600 l 565 600 q 536 600 509 594 l 509 594 l 505 366 q 520 363 535 361 q 549 358 563 358 l 563 358 q 584 358 609 363 q 634 367 656 381 q 678 394 693 417 q 707 440 707 478 l 707 478 q 707 516 693 540 q 678 564 657 578 q 636 591 611 596 q 586 600 565 600"},"C":{"x_min":14,"x_max":1042,"ha":1054,"o":"m 1042 1406 l 1042 1406 l 986 984 q 957 992 928 995 q 899 998 870 998 l 870 998 q 796 998 729 979 q 662 959 611 919 q 559 879 529 819 q 498 759 498 678 l 498 678 q 498 626 515 588 q 531 550 561 525 q 591 500 632 488 q 673 476 722 476 l 722 476 q 759 476 799 484 q 839 492 878 505 q 917 518 954 535 q 991 552 1022 570 l 1022 570 l 982 100 q 943 80 898 65 q 852 49 804 38 q 756 26 708 20 q 660 14 616 14 l 616 14 q 489 14 379 61 q 269 108 188 190 q 107 272 61 384 q 14 495 14 624 l 14 624 q 14 795 63 947 q 112 1098 207 1212 q 302 1326 443 1392 q 583 1458 766 1458 l 766 1458 q 835 1458 908 1447 q 980 1436 1042 1406"},"D":{"x_min":44,"x_max":1184,"ha":1193,"o":"m 1184 794 l 1184 794 q 1184 654 1148 542 q 1112 429 1048 342 q 983 254 894 191 q 805 128 699 88 q 593 47 474 28 q 354 8 228 8 l 228 8 q 181 8 136 11 q 91 13 44 18 l 44 18 l 72 1360 q 182 1395 299 1410 q 415 1424 530 1424 l 530 1424 q 673 1424 793 1381 q 913 1338 1000 1257 q 1087 1176 1136 1059 q 1184 942 1184 794 m 774 716 l 774 730 q 775 784 763 834 q 750 884 722 923 q 693 961 649 985 q 605 1008 544 1010 l 544 1010 l 504 390 q 564 399 613 430 q 662 460 698 505 q 733 549 753 604 q 772 658 774 716 l 774 716"},"E":{"x_min":44,"x_max":998,"ha":981,"o":"m 76 1442 l 998 1442 q 992 1348 987 1256 q 982 1164 974 1070 l 974 1070 l 550 1048 l 540 922 l 838 922 l 816 612 l 516 602 l 506 456 l 754 456 l 930 456 q 924 346 918 238 q 911 129 906 20 l 906 20 l 44 0 l 76 1442"},"F":{"x_min":44,"x_max":998,"ha":998,"o":"m 76 1442 l 998 1442 q 992 1348 987 1256 q 982 1164 974 1070 l 974 1070 l 550 1048 l 550 922 l 918 922 l 898 612 l 548 602 l 550 10 l 44 0 l 76 1442"},"G":{"x_min":8,"x_max":1258,"ha":1283,"o":"m 1246 876 l 1258 204 q 1211 145 1142 101 q 1073 57 994 28 q 915 -1 832 -15 q 749 -30 674 -30 l 674 -30 q 529 -30 407 22 q 285 74 197 166 q 108 257 58 381 q 8 505 8 648 l 8 648 q 8 757 33 862 q 58 966 105 1059 q 151 1151 218 1229 q 285 1306 370 1362 q 455 1418 556 1449 q 657 1480 772 1480 l 772 1480 q 815 1480 864 1477 q 913 1473 962 1465 q 1010 1456 1056 1441 q 1102 1426 1140 1404 l 1140 1404 l 1112 1022 q 1056 1043 997 1051 q 937 1058 880 1058 l 880 1058 q 800 1058 731 1034 q 661 1009 610 963 q 558 917 528 851 q 498 785 498 702 l 498 702 q 498 650 512 602 q 526 553 555 516 q 583 478 626 455 q 668 432 724 432 l 724 432 q 762 432 803 442 q 843 452 872 476 l 872 476 l 876 554 l 636 558 l 648 858 q 797 863 946 867 q 1095 870 1246 876 l 1246 876"},"H":{"x_min":42,"x_max":1238,"ha":1282,"o":"m 1206 1426 l 1238 0 l 738 -24 l 734 438 l 504 438 l 490 0 l 42 0 l 80 1406 l 556 1384 l 526 666 l 748 666 l 750 1438 l 1206 1426"},"I":{"x_min":59,"x_max":591,"ha":609,"o":"m 59 1380 l 591 1408 l 481 46 l 59 24 l 59 1380"},"J":{"x_min":-14,"x_max":1006,"ha":1044,"o":"m 1006 824 l 1006 824 q 1006 765 1006 707 q 1006 649 1000 590 l 1000 590 q 989 465 946 354 q 903 242 830 158 q 756 74 651 25 q 546 -24 410 -24 l 410 -24 q 357 -24 300 -15 q 242 -6 186 12 q 129 30 78 57 q 26 83 -14 118 l -14 118 l 48 532 q 107 475 179 440 q 251 404 336 404 l 336 404 q 391 404 429 420 q 467 436 492 464 q 517 492 532 530 q 546 567 553 610 q 559 652 561 697 q 562 742 562 786 l 562 786 q 562 945 546 1103 q 530 1260 518 1418 l 518 1418 l 976 1448 q 1006 1136 1006 824"},"K":{"x_min":43,"x_max":1319,"ha":1258,"o":"m 815 1472 l 1319 1432 l 837 766 l 1243 58 l 779 -24 l 475 408 l 459 -44 l 43 -60 l 75 1472 l 541 1446 l 505 994 l 815 1472"},"L":{"x_min":46,"x_max":930,"ha":926,"o":"m 930 570 l 930 570 l 888 126 l 46 60 q 52 409 60 754 q 67 1099 78 1448 l 78 1448 l 598 1448 q 575 1229 554 1011 q 533 792 524 570 l 524 570 q 571 568 617 568 q 663 568 710 568 l 710 568 q 766 568 820 569 q 874 570 930 570"},"M":{"x_min":49,"x_max":1597,"ha":1619,"o":"m 1059 1458 l 1597 1458 l 1505 -10 l 1049 -30 l 1053 744 l 847 120 l 671 120 l 513 678 l 511 30 l 49 16 l 69 1398 l 583 1418 l 787 756 l 1059 1458"},"N":{"x_min":41,"x_max":1411,"ha":1441,"o":"m 939 1418 l 1411 1434 l 1339 78 l 815 30 l 535 756 l 491 16 l 41 16 l 77 1434 l 577 1458 l 923 738 l 939 1418"},"O":{"x_min":17,"x_max":1287,"ha":1306,"o":"m 1287 706 l 1287 706 q 1287 615 1266 531 q 1245 446 1206 372 q 1166 298 1110 237 q 1053 175 983 131 q 912 87 829 63 q 746 38 653 38 l 653 38 q 563 38 482 61 q 400 84 329 126 q 258 167 201 226 q 143 284 103 356 q 62 427 40 509 q 17 591 17 680 l 17 680 q 17 767 38 851 q 59 934 99 1008 q 138 1082 194 1144 q 250 1206 320 1251 q 389 1296 470 1321 q 551 1346 641 1346 l 641 1346 q 786 1346 906 1301 q 1025 1256 1110 1173 q 1194 1089 1241 971 q 1287 852 1287 706 m 843 680 l 843 680 q 843 723 831 764 q 818 804 794 836 q 770 867 735 887 q 699 906 653 906 l 653 906 q 606 906 569 889 q 532 872 506 843 q 479 813 465 774 q 451 734 451 690 l 451 690 q 451 648 463 606 q 475 564 499 530 q 523 496 559 475 q 594 454 641 454 l 641 454 q 688 454 726 473 q 763 491 789 523 q 815 554 829 595 q 843 636 843 680"},"P":{"x_min":54,"x_max":1216,"ha":1220,"o":"m 1216 962 l 1216 962 q 1216 865 1187 790 q 1158 715 1108 659 q 1057 603 989 564 q 921 525 844 501 q 766 476 683 465 q 600 453 520 452 l 520 452 l 520 -14 l 54 -14 q 54 215 55 442 q 56 669 58 900 l 58 900 q 60 1022 59 1144 q 58 1266 64 1390 l 64 1390 q 192 1428 320 1447 q 448 1466 584 1466 l 584 1466 q 661 1466 738 1454 q 815 1441 886 1414 q 956 1387 1017 1347 q 1077 1306 1121 1250 q 1165 1194 1191 1123 q 1216 1051 1216 962 m 772 928 l 772 928 q 772 993 733 1030 q 693 1066 630 1066 l 630 1066 q 609 1066 587 1063 q 564 1059 544 1054 l 544 1054 l 532 762 q 546 760 559 760 q 572 760 586 760 l 586 760 q 622 760 656 772 q 689 784 715 807 q 741 829 757 860 q 772 890 772 928"},"Q":{"x_min":9,"x_max":1395,"ha":1415,"o":"m 1395 744 l 1395 744 q 1395 592 1339 454 q 1282 316 1169 212 l 1169 212 l 1307 48 l 941 -188 l 855 48 q 817 40 779 36 q 740 32 701 32 l 701 32 q 605 32 517 56 q 429 80 352 124 q 275 167 212 229 q 149 291 104 367 q 58 443 34 532 q 9 620 9 716 l 9 716 q 9 811 33 901 q 56 990 100 1069 q 143 1148 205 1214 q 266 1279 342 1327 q 418 1374 506 1400 q 594 1426 691 1426 l 691 1426 q 846 1426 976 1379 q 1105 1332 1198 1244 q 1291 1156 1343 1030 q 1395 903 1395 744 m 909 716 l 909 716 q 909 762 896 806 q 882 849 856 883 q 830 916 791 936 q 752 956 701 956 l 701 956 q 651 956 611 939 q 571 921 543 890 q 514 859 499 817 q 483 775 483 726 l 483 726 q 483 680 497 636 q 510 591 536 556 q 562 520 601 498 q 640 476 691 476 l 691 476 q 740 476 781 496 q 821 515 850 548 q 878 581 894 625 q 909 668 909 716"},"R":{"x_min":43,"x_max":1223,"ha":1241,"o":"m 1223 964 l 1223 964 q 1223 886 1210 823 q 1196 759 1167 706 q 1138 653 1092 608 q 1046 563 981 522 l 981 522 l 1219 98 l 769 10 l 615 436 l 491 432 l 473 16 l 43 16 q 48 244 53 470 q 57 696 63 924 l 63 924 q 65 1039 67 1152 q 69 1265 75 1380 l 75 1380 q 145 1406 213 1423 q 281 1440 350 1450 q 418 1459 489 1463 q 559 1466 633 1466 l 633 1466 q 747 1466 854 1435 q 960 1403 1042 1340 q 1124 1277 1174 1183 q 1223 1089 1223 964 m 775 932 l 775 932 q 775 974 764 1009 q 752 1044 730 1070 q 707 1095 674 1110 q 640 1124 595 1124 l 595 1124 q 575 1124 556 1122 q 537 1119 519 1114 l 519 1114 l 503 742 l 527 742 q 570 742 615 753 q 659 764 695 787 q 730 810 753 846 q 775 882 775 932"},"S":{"x_min":27,"x_max":1075,"ha":1087,"o":"m 1075 532 l 1075 532 q 1075 395 1028 293 q 980 190 898 122 q 815 54 705 20 q 594 -14 467 -14 l 467 -14 q 418 -14 360 -1 q 301 12 241 32 q 181 51 126 74 q 70 96 27 116 l 27 116 l 71 528 q 156 477 260 451 q 363 424 463 424 l 463 424 q 482 424 509 426 q 536 427 561 435 q 585 442 602 457 q 619 472 619 500 l 619 500 q 619 519 607 533 q 595 546 576 555 q 557 563 533 568 q 509 572 486 574 q 463 576 443 576 q 423 576 411 576 l 411 576 q 325 576 255 606 q 184 636 134 690 q 83 743 55 817 q 27 890 27 976 l 27 976 q 27 1094 75 1188 q 122 1281 202 1347 q 281 1412 384 1447 q 487 1482 597 1482 l 597 1482 q 646 1482 698 1479 q 750 1475 802 1466 q 853 1457 902 1443 q 951 1429 995 1408 l 995 1408 l 957 1002 q 889 1025 815 1041 q 740 1056 669 1056 l 669 1056 q 656 1056 636 1056 q 615 1055 593 1053 q 570 1050 547 1045 q 524 1040 506 1032 q 488 1023 477 1009 q 466 995 467 976 l 467 976 q 468 954 484 941 q 499 927 524 920 q 548 912 578 909 q 607 906 636 906 q 665 905 690 906 q 715 906 731 904 l 731 904 q 811 899 875 870 q 939 841 984 793 q 1028 745 1052 679 q 1075 612 1075 532"},"T":{"x_min":6,"x_max":1108,"ha":1112,"o":"m 18 1428 l 1108 1430 l 1098 1006 l 800 994 l 724 46 l 302 24 l 304 972 l 6 956 l 18 1428"},"U":{"x_min":33,"x_max":1247,"ha":1276,"o":"m 1247 1112 l 1247 1112 q 1247 1038 1240 949 q 1233 860 1217 765 q 1201 670 1176 573 q 1150 475 1112 385 q 1074 295 1024 217 q 973 138 908 80 q 842 21 761 -12 q 680 -46 581 -46 l 581 -46 q 465 -46 380 -8 q 294 29 233 93 q 172 156 133 241 q 94 325 72 420 q 50 514 42 613 q 33 711 33 802 l 33 802 q 33 942 47 1082 q 61 1221 87 1360 l 87 1360 l 555 1342 q 528 1185 509 1027 q 489 868 489 708 l 489 708 q 489 691 491 658 q 492 624 496 583 q 500 541 508 498 q 515 454 528 418 q 541 382 560 359 q 578 336 603 336 l 603 336 q 632 336 655 364 q 678 391 696 437 q 713 483 726 543 q 739 603 748 668 q 757 733 763 798 q 768 863 772 919 q 775 975 776 1018 q 777 1061 777 1082 l 777 1082 q 777 1160 775 1238 q 772 1315 767 1392 l 767 1392 l 1235 1392 q 1247 1254 1247 1112"},"V":{"x_min":-38,"x_max":1274,"ha":1255,"o":"m 814 1432 l 1274 1402 l 908 10 l 412 -18 l -38 1388 l 436 1432 l 628 612 l 814 1432"},"W":{"x_min":5,"x_max":1855,"ha":1859,"o":"m 1361 1432 l 1855 1388 l 1621 2 l 1053 -10 l 931 708 l 809 42 l 241 22 l 5 1388 l 501 1432 l 601 602 l 735 1432 l 1125 1432 l 1281 592 l 1361 1432"},"X":{"x_min":-45,"x_max":1255,"ha":1205,"o":"m 783 1458 l 1255 1402 l 865 724 l 1197 134 l 779 4 l 599 412 l 387 2 l -45 158 l 323 738 l -13 1348 l 445 1458 l 609 1056 l 783 1458"},"Y":{"x_min":12,"x_max":1336,"ha":1243,"o":"m 856 1388 l 1336 1354 l 786 586 l 760 -40 l 286 -40 l 298 582 l 12 1324 l 522 1388 l 602 956 l 856 1388"},"Z":{"x_min":12,"x_max":966,"ha":997,"o":"m 948 1458 l 966 1098 l 508 480 l 950 480 l 944 56 l 52 20 l 12 412 l 534 1092 l 56 1056 l 52 1458 l 948 1458"},"a":{"x_min":-32,"x_max":1312,"ha":1282,"o":"m 922 1432 l 1312 86 l 816 22 l 756 248 l 528 248 l 478 22 l -32 72 l 366 1404 l 922 1432 m 570 554 l 720 554 l 644 902 l 570 554"},"b":{"x_min":53,"x_max":1215,"ha":1217,"o":"m 1215 356 l 1215 356 q 1215 273 1185 213 q 1154 153 1103 111 q 1052 69 986 43 q 919 16 847 1 q 775 -14 703 -19 q 630 -24 567 -24 l 567 -24 q 505 -24 439 -19 q 372 -15 306 -4 q 240 7 176 26 q 112 44 55 72 l 55 72 l 53 1360 q 109 1383 172 1402 q 235 1420 301 1433 q 366 1445 431 1452 q 496 1458 557 1458 l 557 1458 q 628 1458 701 1449 q 773 1440 840 1419 q 907 1398 965 1365 q 1023 1331 1067 1282 q 1110 1233 1135 1168 q 1159 1103 1159 1018 l 1159 1018 q 1159 962 1143 913 q 1127 864 1097 825 q 1067 786 1024 759 q 981 731 927 718 l 927 718 q 992 701 1046 668 q 1099 635 1137 588 q 1174 541 1195 482 q 1215 423 1215 356 m 707 926 l 707 926 q 707 955 695 976 q 683 996 666 1009 q 648 1022 628 1028 q 607 1034 591 1034 l 591 1034 q 571 1034 552 1028 q 533 1022 515 1014 l 515 1014 l 509 792 q 532 792 566 796 q 600 800 632 814 q 663 827 685 854 q 707 880 707 926 m 565 600 l 565 600 q 536 600 509 594 l 509 594 l 505 366 q 520 363 535 361 q 549 358 563 358 l 563 358 q 584 358 609 363 q 634 367 656 381 q 678 394 693 417 q 707 440 707 478 l 707 478 q 707 516 693 540 q 678 564 657 578 q 636 591 611 596 q 586 600 565 600"},"c":{"x_min":15,"x_max":1027,"ha":1050,"o":"m 1005 1366 l 1005 1366 l 969 944 q 940 952 912 955 q 884 958 855 958 l 855 958 q 784 958 720 940 q 655 922 606 885 q 556 848 527 792 q 497 735 497 658 l 497 658 q 497 602 514 561 q 530 519 561 492 q 591 464 635 450 q 678 436 731 436 l 731 436 q 768 436 807 444 q 846 451 885 464 q 924 477 960 494 q 996 511 1027 530 l 1027 530 l 1011 60 q 972 40 927 25 q 882 9 835 -2 q 787 -14 740 -20 q 692 -26 649 -26 l 649 -26 q 507 -26 391 27 q 274 80 191 172 q 107 263 61 384 q 15 505 15 642 l 15 642 q 15 806 62 948 q 108 1090 199 1195 q 289 1299 423 1359 q 556 1418 729 1418 l 729 1418 q 798 1418 869 1407 q 940 1396 1005 1366"},"d":{"x_min":44,"x_max":1184,"ha":1195,"o":"m 1184 794 l 1184 794 q 1184 654 1148 543 q 1112 432 1048 347 q 983 261 894 201 q 805 141 699 103 q 593 64 474 46 q 354 28 228 28 l 228 28 q 181 28 136 31 q 91 33 44 38 l 44 38 l 72 1340 q 182 1375 299 1390 q 415 1404 530 1404 l 530 1404 q 673 1404 793 1364 q 913 1324 1000 1247 q 1087 1169 1136 1056 q 1184 942 1184 794 m 544 990 l 504 410 q 564 419 614 447 q 663 474 699 515 q 735 555 755 607 q 774 658 774 716 l 774 716 q 774 773 762 823 q 750 872 723 909 q 696 945 652 967 q 608 988 544 990 l 544 990"},"e":{"x_min":17,"x_max":1167,"ha":1181,"o":"m 1167 808 l 1167 808 q 1167 721 1155 634 l 1155 634 q 984 623 815 599 q 646 574 477 550 l 477 550 q 503 478 559 435 q 614 392 691 392 l 691 392 q 731 392 779 407 q 826 422 873 445 q 920 467 963 493 q 1006 519 1037 540 l 1037 540 l 989 86 q 950 56 905 35 q 859 14 810 1 q 761 -12 711 -18 q 661 -24 613 -24 l 613 -24 q 514 -24 432 3 q 350 30 284 79 q 217 127 167 193 q 117 259 84 337 q 51 415 34 502 q 17 589 17 678 l 17 678 q 17 771 34 864 q 51 957 86 1043 q 120 1129 173 1203 q 225 1276 295 1331 q 365 1386 454 1417 q 542 1448 649 1448 l 649 1448 q 738 1448 812 1424 q 885 1399 943 1356 q 1000 1312 1043 1252 q 1085 1192 1113 1121 q 1140 1049 1154 970 q 1167 890 1167 808 m 767 838 l 767 860 q 767 888 761 918 q 755 947 742 971 q 728 995 706 1011 q 684 1026 651 1026 l 651 1026 q 611 1026 581 1005 q 550 983 528 951 q 506 918 492 880 q 478 842 471 810 l 471 810 l 767 838"},"f":{"x_min":43,"x_max":997,"ha":999,"o":"m 75 1422 l 997 1422 q 991 1328 986 1236 q 981 1144 973 1050 l 973 1050 l 549 1028 l 549 902 l 917 902 l 897 592 l 547 582 l 549 30 l 43 20 l 75 1422"},"g":{"x_min":10,"x_max":1260,"ha":1285,"o":"m 1248 876 l 1260 224 q 1213 165 1144 121 q 1075 77 996 48 q 917 19 834 5 q 751 -10 676 -10 l 676 -10 q 531 -10 409 39 q 287 88 199 176 q 110 263 60 384 q 10 505 10 648 l 10 648 q 10 757 35 860 q 60 963 107 1053 q 153 1143 220 1218 q 287 1293 372 1347 q 457 1401 559 1431 q 660 1460 774 1460 l 774 1460 q 817 1460 866 1457 q 915 1453 964 1445 q 1012 1436 1058 1421 q 1104 1406 1142 1384 l 1142 1384 l 1114 1002 q 1058 1023 999 1031 q 939 1038 882 1038 l 882 1038 q 802 1038 733 1017 q 663 995 612 953 q 560 911 530 848 q 500 785 500 702 l 500 702 q 500 650 514 602 q 528 553 557 516 q 585 478 628 455 q 670 432 726 432 l 726 432 q 764 432 805 442 q 845 452 874 476 l 874 476 l 878 554 l 638 558 l 650 858 q 799 863 948 867 q 1097 870 1248 876 l 1248 876"},"h":{"x_min":42,"x_max":1238,"ha":1282,"o":"m 1206 1406 l 1238 40 l 738 16 l 734 438 l 504 438 l 490 0 l 42 0 l 80 1406 l 556 1384 l 526 666 l 748 666 l 750 1418 l 1206 1406"},"i":{"x_min":41,"x_max":573,"ha":603,"o":"m 41 1380 l 573 1408 l 503 46 l 81 24 l 41 1380"},"j":{"x_min":-14,"x_max":1006,"ha":1044,"o":"m 1006 824 l 1006 824 q 1006 765 1006 707 q 1006 649 1000 590 l 1000 590 q 989 465 946 354 q 903 242 830 158 q 756 74 651 25 q 546 -24 410 -24 l 410 -24 q 357 -24 300 -15 q 242 -6 186 12 q 129 30 78 57 q 26 83 -14 118 l -14 118 l 48 532 q 107 475 179 440 q 251 404 336 404 l 336 404 q 391 404 429 420 q 467 436 492 464 q 517 492 532 530 q 546 567 553 610 q 559 652 561 697 q 562 742 562 786 l 562 786 q 562 945 546 1103 q 530 1260 518 1418 l 518 1418 l 976 1448 q 1006 1136 1006 824"},"k":{"x_min":44,"x_max":1280,"ha":1234,"o":"m 796 1412 l 1280 1292 l 838 766 l 1244 78 l 780 -4 l 476 408 l 460 16 l 44 0 l 76 1432 l 542 1406 l 506 994 l 796 1412"},"l":{"x_min":44,"x_max":928,"ha":924,"o":"m 522 530 l 928 530 l 886 86 l 44 20 l 76 1448 l 596 1448 l 522 530"},"m":{"x_min":17,"x_max":1799,"ha":1839,"o":"m 1799 678 l 1799 678 q 1799 535 1790 393 q 1781 251 1769 108 l 1769 108 l 1255 84 q 1278 258 1297 433 q 1315 607 1315 782 l 1315 782 q 1315 793 1314 821 q 1313 848 1311 883 q 1308 918 1304 956 q 1299 993 1292 1025 q 1284 1056 1273 1076 q 1262 1096 1247 1096 l 1247 1096 q 1212 1096 1192 1070 q 1172 1043 1163 1006 q 1153 969 1151 931 q 1149 892 1149 868 l 1149 868 q 1149 826 1151 784 q 1153 742 1153 698 l 1153 698 q 1153 543 1146 389 q 1138 235 1127 80 l 1127 80 l 653 62 q 676 236 694 410 q 711 583 711 758 l 711 758 q 711 769 710 798 q 709 827 707 863 q 704 899 699 938 q 694 977 687 1010 q 679 1042 668 1063 q 657 1084 641 1084 l 641 1084 q 616 1084 599 1065 q 582 1045 572 1014 q 561 983 556 946 q 550 908 548 872 q 545 836 545 806 q 544 775 543 760 l 543 760 l 521 30 l 17 30 q 33 199 50 369 q 66 539 79 709 q 91 878 99 1048 q 107 1218 107 1388 l 107 1388 l 583 1408 l 581 1292 q 603 1320 631 1349 q 659 1377 691 1400 q 722 1422 758 1436 q 793 1450 831 1450 l 831 1450 q 880 1450 919 1443 q 958 1435 990 1417 q 1021 1399 1045 1368 q 1069 1336 1087 1288 l 1087 1288 q 1119 1323 1152 1353 q 1184 1383 1220 1405 q 1256 1426 1298 1438 q 1340 1450 1391 1450 l 1391 1450 q 1488 1450 1556 1413 q 1624 1375 1670 1313 q 1715 1251 1741 1171 q 1766 1091 1779 1005 q 1792 919 1796 834 q 1799 749 1799 678"},"n":{"x_min":28,"x_max":1292,"ha":1335,"o":"m 1292 506 l 1292 506 q 1292 393 1290 283 q 1287 172 1282 60 l 1282 60 l 706 70 q 736 247 758 424 q 780 600 780 780 l 780 780 q 780 793 779 822 q 778 851 775 888 q 772 924 767 963 q 761 1001 752 1033 q 742 1065 729 1086 q 715 1106 696 1106 l 696 1106 q 662 1106 639 1086 q 615 1066 600 1035 q 584 1003 575 964 q 566 925 562 886 q 557 847 556 813 q 554 778 554 756 l 554 756 q 549 579 546 405 q 543 230 538 52 l 538 52 l 28 30 q 48 383 67 732 q 85 1081 96 1434 l 96 1434 l 568 1458 l 564 1298 q 592 1332 625 1362 q 657 1392 694 1414 q 731 1435 773 1448 q 814 1460 860 1460 l 860 1460 q 945 1460 1009 1432 q 1073 1404 1119 1356 q 1165 1308 1196 1243 q 1227 1177 1246 1103 q 1265 1029 1275 949 q 1285 868 1289 790 q 1292 712 1292 639 q 1292 566 1292 506"},"o":{"x_min":17,"x_max":1287,"ha":1306,"o":"m 1287 766 l 1287 766 q 1287 675 1266 591 q 1245 506 1206 432 q 1166 358 1110 297 q 1053 235 983 191 q 912 147 829 123 q 746 98 653 98 l 653 98 q 563 98 482 121 q 400 144 329 186 q 258 227 201 286 q 143 344 103 416 q 62 487 40 569 q 17 651 17 740 l 17 740 q 17 827 38 911 q 59 994 99 1068 q 138 1142 194 1204 q 250 1266 320 1311 q 389 1356 470 1381 q 551 1406 641 1406 l 641 1406 q 786 1406 906 1361 q 1025 1316 1110 1233 q 1194 1149 1241 1031 q 1287 912 1287 766 m 843 740 l 843 740 q 843 783 831 824 q 818 864 794 896 q 770 927 735 947 q 699 966 653 966 l 653 966 q 606 966 569 949 q 532 932 506 903 q 479 873 465 834 q 451 794 451 750 l 451 750 q 451 708 463 666 q 475 624 499 590 q 523 556 559 535 q 594 514 641 514 l 641 514 q 688 514 726 533 q 763 551 789 583 q 815 614 829 655 q 843 696 843 740"},"p":{"x_min":54,"x_max":1216,"ha":1222,"o":"m 1216 922 l 1216 922 q 1216 825 1187 750 q 1158 675 1108 619 q 1057 562 989 524 q 921 485 844 461 q 766 436 683 425 q 600 413 520 412 l 520 412 l 520 -14 l 54 -14 q 54 100 55 208 q 55 316 56 423 q 56 529 57 637 q 57 745 58 860 l 58 860 q 60 982 59 1104 q 58 1226 64 1350 l 64 1350 q 192 1388 320 1407 q 448 1426 584 1426 l 584 1426 q 661 1426 738 1414 q 815 1401 886 1374 q 956 1347 1017 1307 q 1077 1266 1121 1210 q 1165 1154 1191 1082 q 1216 1010 1216 922 m 772 888 l 772 888 q 772 953 733 990 q 693 1026 630 1026 l 630 1026 q 609 1026 587 1023 q 564 1019 544 1014 l 544 1014 l 532 722 q 546 720 559 720 q 572 720 586 720 l 586 720 q 622 720 656 732 q 689 744 715 767 q 741 789 757 820 q 772 850 772 888"},"q":{"x_min":9,"x_max":1395,"ha":1415,"o":"m 1395 744 l 1395 744 q 1395 592 1339 454 q 1282 316 1169 212 l 1169 212 l 1307 48 l 941 -188 l 855 48 q 817 40 779 36 q 740 32 701 32 l 701 32 q 605 32 517 56 q 429 80 352 124 q 275 167 212 229 q 149 291 104 367 q 58 443 34 532 q 9 620 9 716 l 9 716 q 9 811 33 901 q 56 990 100 1069 q 143 1148 205 1214 q 266 1279 342 1327 q 418 1374 506 1400 q 594 1426 691 1426 l 691 1426 q 846 1426 976 1379 q 1105 1332 1198 1244 q 1291 1156 1343 1030 q 1395 903 1395 744 m 909 716 l 909 716 q 909 762 896 806 q 882 849 856 883 q 830 916 791 936 q 752 956 701 956 l 701 956 q 651 956 611 939 q 571 921 543 890 q 514 859 499 817 q 483 775 483 726 l 483 726 q 483 680 497 636 q 510 591 536 556 q 562 520 601 498 q 640 476 691 476 l 691 476 q 740 476 781 496 q 821 515 850 548 q 878 581 894 625 q 909 668 909 716"},"r":{"x_min":43,"x_max":1223,"ha":1241,"o":"m 1223 964 l 1223 964 q 1223 886 1210 823 q 1196 759 1167 706 q 1138 653 1092 608 q 1046 563 981 522 l 981 522 l 1219 98 l 769 10 l 615 436 l 491 432 l 473 16 l 43 16 q 48 244 53 470 q 57 696 63 924 l 63 924 q 65 1039 67 1152 q 69 1265 75 1380 l 75 1380 q 145 1406 213 1423 q 281 1440 350 1450 q 418 1459 489 1463 q 559 1466 633 1466 l 633 1466 q 747 1466 854 1435 q 960 1403 1042 1340 q 1124 1277 1174 1183 q 1223 1089 1223 964 m 775 932 l 775 932 q 775 974 764 1009 q 752 1044 730 1070 q 707 1095 674 1110 q 640 1124 595 1124 l 595 1124 q 575 1124 556 1122 q 537 1119 519 1114 l 519 1114 l 503 742 l 527 742 q 570 742 615 753 q 659 764 695 787 q 730 810 753 846 q 775 882 775 932"},"s":{"x_min":28,"x_max":1076,"ha":1089,"o":"m 1076 512 l 1076 512 q 1076 375 1029 276 q 981 176 899 112 q 816 47 706 17 q 595 -14 468 -14 l 468 -14 q 419 -14 361 -1 q 302 12 242 32 q 182 51 127 74 q 71 96 28 116 l 28 116 l 72 508 q 157 457 261 431 q 364 404 464 404 l 464 404 q 483 404 510 406 q 537 407 562 415 q 586 422 603 437 q 620 452 620 480 l 620 480 q 620 499 608 513 q 596 526 577 535 q 558 543 534 548 q 510 552 487 554 q 464 556 444 556 q 424 556 412 556 l 412 556 q 326 556 256 583 q 185 610 135 660 q 84 709 56 780 q 28 850 28 936 l 28 936 q 28 1054 76 1148 q 123 1241 203 1307 q 282 1372 385 1407 q 488 1442 598 1442 l 598 1442 q 647 1442 699 1439 q 751 1435 803 1426 q 854 1417 903 1403 q 952 1389 996 1368 l 996 1368 l 958 962 q 890 985 816 1001 q 741 1016 670 1016 l 670 1016 q 657 1016 637 1016 q 616 1015 594 1013 q 571 1010 548 1005 q 525 1000 507 992 q 489 983 478 969 q 467 955 468 936 l 468 936 q 469 914 485 902 q 500 890 525 885 q 549 879 579 879 q 608 879 637 881 q 666 882 691 884 q 716 885 732 884 l 732 884 q 812 879 876 850 q 940 821 985 773 q 1029 725 1053 659 q 1076 592 1076 512"},"t":{"x_min":8,"x_max":1110,"ha":1116,"o":"m 20 1408 l 1110 1410 l 1100 986 l 802 974 l 766 46 l 344 24 l 306 952 l 8 936 l 20 1408"},"u":{"x_min":35,"x_max":1243,"ha":1252,"o":"m 1243 1408 l 1243 1408 q 1198 1056 1166 708 q 1134 359 1105 6 l 1105 6 l 695 -24 l 713 130 q 693 107 667 90 q 640 73 610 63 q 580 52 548 48 q 516 43 487 44 l 487 44 q 419 45 359 71 q 299 96 249 139 q 199 181 159 238 q 119 294 92 357 q 64 419 50 484 q 35 549 35 610 l 35 610 q 35 700 39 797 q 42 893 51 990 q 60 1087 75 1182 q 89 1277 111 1364 l 111 1364 q 233 1358 356 1353 q 479 1348 601 1350 l 601 1350 q 578 1263 556 1176 q 533 1088 515 1000 q 497 911 486 822 q 475 733 475 642 l 475 642 q 475 621 477 582 q 479 543 488 505 q 496 467 514 439 q 531 410 563 410 l 563 410 q 601 410 631 443 q 661 475 684 530 q 707 585 724 657 q 740 729 752 808 q 763 886 770 966 q 777 1046 781 1117 q 784 1187 786 1243 q 787 1299 787 1330 l 787 1330 q 787 1350 786 1369 q 785 1388 783 1408 l 783 1408 q 848 1406 912 1405 q 976 1404 1041 1404 l 1041 1404 q 1091 1404 1142 1405 q 1192 1405 1243 1408"},"v":{"x_min":-34,"x_max":1278,"ha":1258,"o":"m 818 1432 l 1278 1402 l 912 50 l 416 22 l -34 1328 l 440 1372 l 632 612 l 818 1432"},"w":{"x_min":7,"x_max":1857,"ha":1863,"o":"m 1363 1432 l 1857 1388 l 1623 42 l 1055 30 l 933 708 l 811 82 l 243 62 l 7 1348 l 503 1392 l 603 602 l 737 1332 l 1127 1332 l 1283 592 l 1363 1432"},"x":{"x_min":-39,"x_max":1261,"ha":1218,"o":"m 789 1418 l 1261 1362 l 871 724 l 1223 154 l 805 24 l 605 412 l 393 2 l -39 158 l 329 738 l -7 1308 l 451 1418 l 615 1056 l 789 1418"},"y":{"x_min":-40,"x_max":1284,"ha":1240,"o":"m 804 1388 l 1284 1354 l 814 586 l 828 20 l 314 20 l 326 582 l -40 1324 l 470 1388 l 630 956 l 804 1388"},"z":{"x_min":35,"x_max":989,"ha":1015,"o":"m 971 1418 l 989 1058 l 531 480 l 953 480 l 967 56 l 75 20 l 35 412 l 557 1052 l 39 1016 l 35 1418 l 971 1418"},"¦":{"x_min":68,"x_max":518,"ha":590,"o":"m 516 830 l 72 830 l 68 1552 l 516 1542 l 516 830 m 518 -144 l 80 -146 l 74 532 l 516 532 l 518 -144"},"−":{"x_min":65,"x_max":715,"ha":783,"o":"m 715 540 l 69 552 l 65 852 l 711 882 l 715 540"},"-":{"x_min":65,"x_max":715,"ha":783,"o":"m 715 540 l 69 552 l 65 852 l 711 882 l 715 540"},"–":{"x_min":67,"x_max":887,"ha":959,"o":"m 887 500 l 71 512 l 67 832 l 883 862 l 887 500"},"—":{"x_min":67,"x_max":1705,"ha":1777,"o":"m 1705 510 l 71 512 l 67 832 l 1701 872 l 1705 510"},"“":{"x_min":13,"x_max":904,"ha":914,"o":"m 484 1070 l 484 1076 q 485 1123 505 1180 q 524 1237 560 1293 q 596 1348 647 1398 q 697 1447 760 1480 l 760 1480 q 760 1481 761 1459 q 762 1436 764 1403 q 765 1370 767 1333 q 768 1295 770 1266 l 770 1266 q 832 1243 868 1189 q 904 1135 904 1070 l 904 1070 q 904 1027 888 989 q 871 951 843 923 q 814 894 776 877 q 737 860 694 860 l 694 860 q 651 860 613 877 q 574 894 546 923 q 517 951 500 989 q 483 1027 484 1070 l 484 1070 m 14 1070 l 14 1076 q 15 1123 35 1180 q 54 1237 90 1293 q 126 1348 177 1398 q 227 1447 290 1480 l 290 1480 q 290 1481 291 1459 q 292 1436 294 1403 q 295 1370 297 1333 q 298 1295 300 1266 l 300 1266 q 362 1243 398 1189 q 434 1135 434 1070 l 434 1070 q 434 1027 418 989 q 401 951 373 923 q 344 894 306 877 q 267 860 224 860 l 224 860 q 181 860 143 877 q 104 894 76 923 q 47 951 30 989 q 13 1027 14 1070 l 14 1070"},"”":{"x_min":10,"x_max":901,"ha":910,"o":"m 430 1268 l 430 1262 q 429 1215 410 1158 q 390 1101 354 1046 q 318 990 268 941 q 217 891 154 858 l 154 858 q 154 859 153 882 q 152 904 151 937 q 149 969 147 1006 q 145 1043 144 1072 l 144 1072 q 82 1095 46 1149 q 10 1203 10 1268 l 10 1268 q 10 1311 27 1349 q 43 1387 72 1416 q 100 1444 138 1461 q 176 1478 220 1478 l 220 1478 q 263 1478 302 1461 q 340 1444 369 1416 q 397 1387 414 1349 q 431 1311 430 1268 l 430 1268 m 900 1268 l 900 1262 q 899 1215 880 1158 q 860 1101 824 1046 q 788 990 738 941 q 687 891 624 858 l 624 858 q 624 859 623 882 q 622 904 621 937 q 619 969 617 1006 q 615 1043 614 1072 l 614 1072 q 552 1095 516 1149 q 480 1203 480 1268 l 480 1268 q 480 1311 497 1349 q 513 1387 542 1416 q 570 1444 608 1461 q 646 1478 690 1478 l 690 1478 q 733 1478 772 1461 q 810 1444 839 1416 q 867 1387 884 1349 q 901 1311 900 1268 l 900 1268"},"‘":{"x_min":13,"x_max":434,"ha":444,"o":"m 14 1072 l 14 1078 q 15 1125 35 1182 q 54 1239 90 1295 q 126 1350 177 1400 q 227 1449 290 1482 l 290 1482 q 291 1443 293 1404 l 293 1404 q 295 1371 297 1334 q 298 1297 300 1268 l 300 1268 q 362 1245 398 1191 q 434 1137 434 1072 l 434 1072 q 434 1029 418 991 q 401 953 373 925 q 344 896 306 879 q 267 862 224 862 l 224 862 q 181 862 143 879 q 104 896 76 925 q 47 953 30 991 q 13 1029 14 1072 l 14 1072"},"’":{"x_min":10,"x_max":431,"ha":440,"o":"m 430 1268 l 430 1262 q 429 1215 410 1158 q 390 1101 354 1046 q 318 990 268 941 q 217 891 154 858 l 154 858 q 154 859 153 882 q 152 904 151 937 q 149 969 147 1006 q 145 1043 144 1072 l 144 1072 q 82 1095 46 1149 q 10 1203 10 1268 l 10 1268 q 10 1311 27 1349 q 43 1387 72 1416 q 100 1444 138 1461 q 176 1478 220 1478 l 220 1478 q 263 1478 302 1461 q 340 1444 369 1416 q 397 1387 414 1349 q 431 1311 430 1268 l 430 1268"},"‚":{"x_min":20,"x_max":441,"ha":462,"o":"m 440 148 l 440 142 q 439 95 420 38 q 400 -19 364 -74 q 328 -130 278 -179 q 227 -229 164 -262 l 164 -262 q 164 -261 163 -238 q 162 -216 161 -183 q 159 -151 157 -114 q 155 -77 154 -48 l 154 -48 q 92 -25 56 29 q 20 83 20 148 l 20 148 q 20 191 37 229 q 53 267 82 296 q 110 324 148 341 q 186 358 230 358 l 230 358 q 273 358 312 341 q 350 324 379 296 q 407 267 424 229 q 441 191 440 148 l 440 148"},"„":{"x_min":20,"x_max":911,"ha":932,"o":"m 440 148 l 440 142 q 439 95 420 38 q 400 -19 364 -74 q 328 -130 278 -179 q 227 -229 164 -262 l 164 -262 q 164 -261 163 -238 q 162 -216 161 -183 q 159 -151 157 -114 q 155 -77 154 -48 l 154 -48 q 92 -25 56 29 q 20 83 20 148 l 20 148 q 20 191 37 229 q 53 267 82 296 q 110 324 148 341 q 186 358 230 358 l 230 358 q 273 358 312 341 q 350 324 379 296 q 407 267 424 229 q 441 191 440 148 l 440 148 m 910 148 l 910 142 q 909 95 890 38 q 870 -19 834 -74 q 798 -130 748 -179 q 697 -229 634 -262 l 634 -262 q 634 -261 633 -238 q 632 -216 631 -183 q 629 -151 627 -114 q 625 -77 624 -48 l 624 -48 q 562 -25 526 29 q 490 83 490 148 l 490 148 q 490 191 507 229 q 523 267 552 296 q 580 324 618 341 q 656 358 700 358 l 700 358 q 743 358 782 341 q 820 324 849 296 q 877 267 894 229 q 911 191 910 148 l 910 148"},"ˆ":{"x_min":0,"x_max":710,"ha":710,"o":"m 710 1454 l 498 1324 l 342 1528 l 220 1334 l 0 1428 q 19 1459 47 1501 q 75 1542 106 1587 q 137 1631 169 1676 q 201 1720 230 1758 l 230 1758 l 436 1760 l 710 1454"},"˜":{"x_min":0,"x_max":800,"ha":800,"o":"m 800 1588 l 800 1588 q 800 1530 779 1480 q 758 1430 722 1393 q 685 1356 636 1335 q 586 1314 530 1314 l 530 1314 q 486 1314 455 1330 q 424 1346 403 1370 q 381 1394 366 1422 q 350 1450 337 1474 q 324 1498 311 1514 q 297 1530 280 1530 l 280 1530 q 269 1530 261 1524 q 253 1517 249 1508 q 244 1499 242 1488 q 240 1477 240 1468 l 240 1468 q 240 1438 248 1410 q 255 1381 266 1354 l 266 1354 l 22 1334 q 10 1376 5 1419 q 0 1461 0 1502 l 0 1502 q 0 1563 16 1616 q 32 1669 64 1708 q 95 1747 142 1770 q 188 1792 250 1792 l 250 1792 q 305 1792 341 1775 q 377 1758 401 1733 q 425 1708 439 1678 q 452 1648 463 1623 q 474 1598 484 1581 q 494 1564 510 1564 l 510 1564 q 530 1564 541 1582 q 552 1600 552 1618 l 552 1618 q 552 1648 540 1677 q 528 1705 514 1728 l 514 1728 l 762 1768 q 779 1724 790 1680 q 800 1635 800 1588"},"¯":{"x_min":0,"x_max":654,"ha":654,"o":"m 654 1750 l 650 1492 l 18 1500 l 0 1738 l 654 1750"},"˘":{"x_min":-1,"x_max":593,"ha":594,"o":"m 593 1692 l 593 1692 q 593 1628 570 1574 q 546 1519 506 1479 q 465 1439 410 1417 q 355 1394 293 1394 l 293 1394 q 221 1394 166 1416 q 111 1438 74 1479 q 37 1519 18 1577 q -1 1635 -1 1708 l -1 1708 q -1 1719 -1 1731 q -1 1743 1 1754 l 1 1754 l 233 1724 q 232 1708 234 1688 q 236 1667 244 1649 q 251 1630 265 1617 q 278 1604 301 1604 l 301 1604 q 315 1604 325 1612 q 334 1619 340 1631 q 346 1643 349 1657 q 351 1670 351 1682 l 351 1682 q 351 1711 345 1737 q 338 1763 329 1790 l 329 1790 l 571 1834 q 580 1801 587 1765 q 593 1728 593 1692"},"˙":{"x_min":0,"x_max":400,"ha":400,"o":"m 400 1512 l 400 1512 q 400 1471 385 1436 q 369 1401 342 1375 q 315 1348 279 1333 q 243 1318 202 1318 l 202 1318 q 158 1318 121 1333 q 84 1348 57 1375 q 30 1401 15 1436 q 0 1471 0 1512 l 0 1512 q 0 1552 15 1588 q 30 1624 57 1651 q 83 1677 119 1693 q 155 1708 196 1708 l 196 1708 q 239 1708 277 1693 q 314 1677 342 1651 q 369 1624 385 1588 q 400 1552 400 1512"},"˚":{"x_min":0,"x_max":606,"ha":606,"o":"m 606 1568 l 606 1568 q 606 1506 582 1452 q 558 1398 518 1358 q 477 1318 422 1295 q 367 1272 306 1272 l 306 1272 q 242 1272 187 1295 q 131 1318 90 1358 q 48 1398 24 1452 q 0 1506 0 1568 l 0 1568 q 0 1629 24 1682 q 48 1735 89 1775 q 129 1814 184 1837 q 238 1860 300 1860 l 300 1860 q 364 1860 420 1837 q 475 1814 517 1775 q 558 1735 582 1682 q 606 1629 606 1568 m 400 1562 l 400 1562 q 400 1584 394 1605 q 387 1625 376 1641 q 365 1656 350 1665 q 334 1674 316 1674 l 316 1674 q 298 1674 282 1665 q 266 1656 254 1641 q 242 1625 235 1605 q 228 1584 228 1562 l 228 1562 q 228 1538 235 1517 q 242 1496 254 1481 q 266 1466 282 1457 q 298 1448 316 1448 l 316 1448 q 352 1448 376 1481 q 400 1514 400 1562"},"¸":{"x_min":0,"x_max":424,"ha":424,"o":"m 424 -292 l 424 -292 q 424 -350 406 -390 q 387 -430 354 -455 q 321 -481 276 -492 q 231 -504 178 -504 l 178 -504 q 159 -504 135 -501 q 111 -499 87 -493 q 62 -488 39 -479 q 16 -471 0 -458 l 0 -458 l 88 -300 q 100 -306 116 -310 q 132 -314 146 -314 l 146 -314 q 164 -314 182 -303 q 200 -293 200 -272 l 200 -272 q 200 -257 191 -247 q 182 -238 169 -232 q 155 -226 140 -224 q 125 -222 114 -222 l 114 -222 q 94 -222 74 -224 q 54 -227 34 -232 l 34 -232 l 48 56 l 220 54 l 218 -94 q 262 -96 300 -110 q 338 -124 366 -149 q 393 -175 409 -211 q 424 -247 424 -292"},"˝":{"x_min":0,"x_max":944,"ha":944,"o":"m 732 1884 l 944 1664 q 835 1586 731 1506 q 626 1426 522 1338 l 522 1338 l 382 1460 q 399 1487 423 1519 q 447 1551 475 1586 q 503 1621 533 1657 q 562 1692 591 1725 l 591 1725 q 658 1802 732 1884 l 732 1884 m 352 1952 l 564 1732 q 455 1654 350 1574 q 245 1493 144 1404 l 144 1404 l 0 1528 q 17 1555 42 1588 q 66 1620 94 1655 q 121 1690 151 1726 q 181 1761 210 1794 l 210 1794 q 277 1871 352 1952 l 352 1952"},"˛":{"x_min":0,"x_max":440,"ha":440,"o":"m 342 -154 l 440 -296 q 396 -338 341 -369 q 286 -400 224 -400 l 224 -400 q 178 -400 138 -384 q 97 -369 67 -341 q 36 -314 18 -275 q 0 -237 0 -190 l 0 -190 q 0 -150 14 -113 q 27 -76 50 -43 q 72 -10 101 19 q 129 48 158 72 l 158 72 l 360 64 q 348 49 325 20 q 301 -9 277 -42 q 253 -75 236 -107 q 218 -139 218 -160 l 218 -160 q 218 -178 231 -190 q 244 -202 262 -202 l 262 -202 q 282 -202 306 -186 q 330 -171 342 -154 l 342 -154"},"ˇ":{"x_min":0,"x_max":710,"ha":710,"o":"m 490 1870 l 710 1774 q 691 1743 664 1704 q 637 1664 607 1621 q 577 1578 546 1535 q 514 1491 486 1454 l 486 1454 l 290 1426 l 0 1744 l 212 1878 l 368 1674 l 490 1870"},"´":{"x_min":0,"x_max":586,"ha":586,"o":"m 398 1882 l 586 1642 q 467 1577 354 1511 q 241 1444 128 1366 l 128 1366 l 0 1506 q 20 1530 48 1560 q 76 1589 108 1620 q 139 1651 173 1683 q 207 1714 239 1743 l 239 1743 q 315 1812 398 1882 l 398 1882"},"¨":{"x_min":0,"x_max":706,"ha":706,"o":"m 706 1574 l 706 1574 q 706 1543 695 1517 q 683 1490 663 1471 q 643 1451 616 1440 q 589 1428 558 1428 l 558 1428 q 529 1428 503 1440 q 476 1451 457 1471 q 437 1490 426 1517 q 414 1543 414 1574 l 414 1574 q 414 1604 426 1631 q 437 1657 457 1677 q 476 1697 503 1709 q 529 1720 558 1720 l 558 1720 q 589 1720 616 1709 q 643 1697 663 1677 q 683 1657 695 1631 q 706 1604 706 1574 m 316 1552 l 316 1552 q 316 1519 304 1490 q 291 1461 270 1439 q 248 1417 219 1405 q 190 1392 158 1392 l 158 1392 q 125 1392 96 1405 q 67 1417 46 1439 q 25 1461 13 1490 q 0 1519 0 1552 l 0 1552 q 0 1583 13 1611 q 25 1639 46 1661 q 67 1682 96 1695 q 125 1708 158 1708 l 158 1708 q 190 1708 219 1695 q 248 1682 270 1661 q 291 1639 304 1611 q 316 1583 316 1552"},"`":{"x_min":0,"x_max":580,"ha":580,"o":"m 580 1500 l 446 1366 q 336 1449 226 1520 q 116 1591 0 1660 l 0 1660 l 198 1894 q 278 1819 351 1748 l 351 1748 q 382 1717 415 1684 q 447 1651 478 1619 q 508 1586 535 1556 q 561 1525 580 1500 l 580 1500"},"‹":{"x_min":24,"x_max":656,"ha":679,"o":"m 656 560 l 496 232 l 38 540 l 24 908 l 458 1224 l 618 922 l 350 738 l 656 560"},"›":{"x_min":24,"x_max":656,"ha":681,"o":"m 656 550 l 222 232 l 58 540 l 332 722 l 24 898 l 182 1224 l 644 918 l 656 550"},"‡":{"x_min":63,"x_max":989,"ha":1050,"o":"m 977 458 l 963 108 l 717 108 l 717 -184 l 319 -186 l 317 104 l 77 104 l 79 452 l 315 454 l 311 898 l 65 898 l 63 1244 l 309 1244 l 307 1512 l 715 1502 l 715 1244 l 989 1244 l 981 896 l 715 896 l 717 456 l 977 458"},"†":{"x_min":46,"x_max":972,"ha":1013,"o":"m 730 -184 l 272 -186 l 264 898 l 48 898 l 46 1244 l 262 1244 l 260 1512 l 728 1502 l 728 1244 l 972 1244 l 964 896 l 728 896 l 730 -184"},"#":{"x_min":42,"x_max":1182,"ha":1242,"o":"m 1182 1028 l 1146 764 l 966 768 l 944 608 l 1118 610 l 1080 340 l 904 340 l 880 166 l 552 170 l 580 340 l 482 340 l 458 210 l 166 216 l 186 340 l 42 338 l 88 606 l 232 606 l 266 784 l 116 786 l 164 1046 l 312 1042 l 336 1196 l 620 1178 l 596 1038 l 700 1038 l 744 1280 l 1038 1270 l 1004 1030 l 1182 1028 m 656 776 l 554 778 l 524 606 l 626 608 l 656 776"},"(":{"x_min":27,"x_max":843,"ha":797,"o":"m 493 1560 l 843 1404 q 745 1347 672 1266 q 599 1185 551 1092 q 503 999 479 902 q 455 804 455 714 l 455 714 q 455 624 474 524 q 493 424 532 327 q 571 229 631 140 q 690 50 771 -20 l 771 -20 l 413 -166 q 340 -119 283 -54 q 226 11 183 87 q 140 162 111 245 q 81 328 63 411 q 44 493 36 573 q 27 652 27 722 l 27 722 q 27 831 57 949 q 87 1066 146 1179 q 204 1291 291 1390 q 378 1489 493 1560 l 493 1560"},")":{"x_min":-60,"x_max":756,"ha":782,"o":"m 756 672 l 756 672 q 756 599 743 522 q 729 445 703 368 q 677 290 638 215 q 598 139 546 70 q 494 1 430 -59 q 365 -119 288 -166 l 288 -166 l -60 -10 q 37 48 109 129 q 181 210 228 303 q 274 395 297 493 q 320 590 320 680 l 320 680 q 320 771 302 871 q 283 971 245 1069 q 207 1166 149 1256 q 90 1345 10 1416 l 10 1416 l 366 1560 q 439 1512 497 1447 q 554 1381 597 1306 q 640 1230 671 1148 q 701 1065 720 983 q 739 900 748 821 q 756 741 756 672"},"[":{"x_min":63,"x_max":757,"ha":749,"o":"m 757 1552 l 737 1288 l 471 1294 l 441 140 l 721 138 l 719 -146 q 636 -141 552 -139 q 468 -138 383 -138 l 383 -138 q 305 -138 226 -140 q 147 -142 69 -148 l 69 -148 q 63 98 63 344 l 63 344 q 63 650 73 953 q 82 1255 97 1558 l 97 1558 q 175 1563 252 1565 q 328 1566 405 1566 l 405 1566 q 496 1566 583 1564 q 669 1561 757 1552 l 757 1552"},"]":{"x_min":-8,"x_max":686,"ha":748,"o":"m 686 1078 l 686 1078 q 686 772 677 469 q 667 166 650 -140 l 650 -140 q 573 -145 497 -146 q 420 -148 342 -148 l 342 -148 q 253 -148 167 -145 q 80 -142 -8 -134 l -8 -134 l 10 134 l 276 126 l 308 1282 l 24 1284 l 28 1564 q 111 1561 195 1559 q 279 1556 364 1556 l 364 1556 q 444 1556 523 1559 q 602 1561 680 1566 l 680 1566 q 683 1442 685 1322 q 686 1202 686 1078"},"}":{"x_min":-68,"x_max":832,"ha":824,"o":"m 832 826 l 820 550 q 812 550 802 551 q 791 552 782 552 l 782 552 q 741 552 706 543 q 671 533 645 516 q 618 498 603 474 q 588 449 588 418 l 588 418 q 588 380 599 344 q 610 307 623 271 q 636 235 647 198 q 658 161 658 122 l 658 122 q 658 57 621 3 q 584 -52 524 -92 q 463 -133 385 -155 q 306 -178 224 -178 l 224 -178 q 146 -178 72 -159 q -3 -140 -68 -110 l -68 -110 l 40 158 q 67 147 96 141 q 125 134 154 134 l 154 134 q 214 134 246 158 q 278 181 278 226 l 278 226 q 278 259 268 291 q 257 323 245 355 q 233 386 223 418 q 212 450 212 484 l 212 484 q 212 564 271 606 q 330 648 440 646 l 440 646 q 385 656 340 681 q 295 706 263 739 q 231 772 214 812 q 196 851 196 892 l 196 892 q 196 927 208 960 q 220 993 234 1025 q 248 1057 260 1090 q 272 1123 272 1158 l 272 1158 q 272 1190 251 1215 q 230 1239 198 1257 q 165 1274 125 1285 q 85 1295 48 1300 l 48 1300 l 194 1580 q 279 1581 358 1554 q 437 1526 499 1480 q 560 1434 597 1375 q 634 1315 634 1254 l 634 1254 q 634 1219 622 1185 q 610 1151 596 1117 q 582 1083 570 1049 q 558 1014 558 978 l 558 978 q 558 940 584 911 q 609 881 649 861 q 689 841 738 832 q 786 822 832 826 l 832 826"},"\\":{"x_min":43,"x_max":995,"ha":1035,"o":"m 995 62 l 675 -78 q 581 92 498 268 q 415 444 339 623 q 262 801 189 982 q 116 1163 43 1344 l 43 1344 l 443 1500 q 561 1132 698 772 q 834 411 995 62 l 995 62"},"/":{"x_min":41,"x_max":993,"ha":1034,"o":"m 673 1500 l 993 1360 q 832 1011 696 651 q 559 290 441 -78 l 441 -78 l 41 78 q 114 259 187 440 q 260 620 337 799 q 413 977 496 1153 q 579 1329 673 1500 l 673 1500"},"<":{"x_min":45,"x_max":885,"ha":932,"o":"m 885 448 l 721 104 l 59 500 l 45 868 l 719 1294 l 861 954 l 371 698 l 885 448"},">":{"x_min":48,"x_max":888,"ha":932,"o":"m 888 532 l 212 104 l 68 448 l 560 704 l 48 954 l 210 1294 l 872 902 l 888 532"},"•":{"x_min":20,"x_max":490,"ha":510,"o":"m 490 782 l 490 782 q 490 733 472 690 q 453 647 421 615 q 389 583 346 565 q 303 546 254 546 l 254 546 q 206 546 164 565 q 121 583 89 615 q 57 647 39 690 q 20 733 20 782 l 20 782 q 20 831 39 874 q 57 917 89 949 q 121 981 164 1000 q 206 1018 254 1018 l 254 1018 q 303 1018 346 1000 q 389 981 421 949 q 453 917 472 874 q 490 831 490 782"},".":{"x_min":18,"x_max":438,"ha":454,"o":"m 438 206 l 438 206 q 438 162 421 124 q 404 86 376 58 q 347 29 309 13 q 271 -4 228 -4 l 228 -4 q 184 -4 146 13 q 108 29 80 58 q 51 86 35 124 q 18 162 18 206 l 18 206 q 18 249 35 288 q 51 327 80 356 q 108 384 146 401 q 184 418 228 418 l 228 418 q 271 418 309 401 q 347 384 376 356 q 404 327 421 288 q 438 249 438 206"},",":{"x_min":16,"x_max":437,"ha":456,"o":"m 436 228 l 436 222 q 435 175 416 118 q 396 61 360 6 q 324 -50 274 -99 q 223 -149 160 -182 l 160 -182 q 160 -181 159 -158 q 158 -136 157 -103 q 155 -71 153 -34 q 151 3 150 32 l 150 32 q 88 55 52 109 q 16 163 16 228 l 16 228 q 16 271 33 309 q 49 347 78 376 q 106 404 144 421 q 182 438 226 438 l 226 438 q 269 438 308 421 q 346 404 375 376 q 403 347 420 309 q 437 271 436 228 l 436 228"},";":{"x_min":42,"x_max":463,"ha":506,"o":"m 462 228 l 462 222 q 461 175 442 118 q 422 61 386 6 q 350 -50 300 -99 q 249 -149 186 -182 l 186 -182 q 186 -181 185 -158 q 184 -136 183 -103 q 181 -71 179 -34 q 177 3 176 32 l 176 32 q 114 55 78 109 q 42 163 42 228 l 42 228 q 42 271 59 309 q 75 347 104 376 q 132 404 170 421 q 208 438 252 438 l 252 438 q 295 438 334 421 q 372 404 401 376 q 429 347 446 309 q 463 271 462 228 l 462 228 m 462 846 l 462 846 q 462 802 445 764 q 428 726 400 698 q 371 669 333 653 q 295 636 252 636 l 252 636 q 208 636 170 653 q 132 669 104 698 q 75 726 59 764 q 42 802 42 846 l 42 846 q 42 889 59 928 q 75 967 104 996 q 132 1024 170 1041 q 208 1058 252 1058 l 252 1058 q 295 1058 333 1041 q 371 1024 400 996 q 428 967 445 928 q 462 889 462 846"},":":{"x_min":44,"x_max":464,"ha":508,"o":"m 464 206 l 464 206 q 464 162 447 124 q 430 86 402 58 q 373 29 335 13 q 297 -4 254 -4 l 254 -4 q 210 -4 172 13 q 134 29 106 58 q 77 86 61 124 q 44 162 44 206 l 44 206 q 44 249 61 288 q 77 327 106 356 q 134 384 172 401 q 210 418 254 418 l 254 418 q 297 418 335 401 q 373 384 402 356 q 430 327 447 288 q 464 249 464 206 m 464 846 l 464 846 q 464 802 447 764 q 430 726 402 698 q 373 669 335 653 q 297 636 254 636 l 254 636 q 210 636 172 653 q 134 669 106 698 q 77 726 61 764 q 44 802 44 846 l 44 846 q 44 889 61 928 q 77 967 106 996 q 134 1024 172 1041 q 210 1058 254 1058 l 254 1058 q 297 1058 335 1041 q 373 1024 402 996 q 430 967 447 928 q 464 889 464 846"},"+":{"x_min":50,"x_max":880,"ha":933,"o":"m 622 222 l 306 226 l 304 488 l 54 492 l 50 792 l 300 800 l 300 1036 l 610 1068 l 614 814 l 876 822 l 880 480 l 618 484 l 622 222"},"×":{"x_min":44,"x_max":870,"ha":913,"o":"m 266 236 l 44 462 l 228 648 l 54 828 l 264 1044 l 446 872 l 614 1038 l 856 842 l 678 660 l 870 480 l 630 236 l 448 424 l 266 236"},"*":{"x_min":41,"x_max":1051,"ha":1110,"o":"m 1051 1014 l 811 920 l 1001 684 l 741 474 l 553 760 l 371 458 l 111 658 l 293 880 l 41 978 l 163 1268 l 375 1162 l 369 1460 l 701 1472 l 689 1150 l 903 1310 l 1051 1014"},"^":{"x_min":0,"x_max":994,"ha":994,"o":"m 994 718 l 624 644 q 623 643 615 673 q 606 703 593 748 q 580 792 565 845 q 550 897 538 943 q 525 988 517 1019 q 508 1049 508 1050 l 508 1050 q 472 958 439 865 q 406 771 376 676 l 376 676 l 0 764 q 23 819 56 891 q 88 962 124 1037 q 160 1112 195 1184 q 230 1255 258 1311 q 286 1367 304 1402 q 321 1436 322 1436 l 322 1436 l 698 1444 q 697 1443 713 1406 q 729 1369 755 1309 q 780 1248 813 1171 q 845 1094 878 1014 q 911 933 942 856 q 972 779 994 718 l 994 718"},"~":{"x_min":30,"x_max":1156,"ha":1180,"o":"m 738 1042 l 1084 1114 q 1116 1045 1136 972 q 1156 898 1156 824 l 1156 824 q 1156 744 1127 670 q 1098 596 1047 539 q 995 482 924 448 q 853 414 770 414 l 770 414 q 713 414 672 436 q 631 457 601 490 q 571 522 549 560 q 526 598 507 631 q 488 663 469 685 q 450 706 426 706 l 426 706 q 410 706 400 698 q 389 690 383 678 q 377 666 375 652 q 372 638 372 626 l 372 626 q 372 584 387 542 q 401 499 416 460 l 416 460 l 72 416 q 54 482 42 548 q 30 614 30 680 l 30 680 q 30 768 55 842 q 79 916 126 969 q 173 1021 242 1051 q 310 1080 398 1080 l 398 1080 q 465 1080 511 1061 q 557 1041 589 1012 q 620 983 640 949 q 659 915 675 886 q 690 857 705 838 q 719 818 740 818 l 740 818 q 755 818 767 825 q 778 831 786 842 q 794 852 798 865 q 802 878 802 890 l 802 890 q 802 931 781 971 q 759 1010 738 1042 l 738 1042"},"|":{"x_min":69,"x_max":517,"ha":588,"o":"m 517 -144 l 73 -144 l 69 1552 l 517 1542 l 517 -144"},"_":{"x_min":-16,"x_max":634,"ha":618,"o":"m 634 -436 l -12 -424 l -16 -124 l 630 -94 l 634 -436"},"=":{"x_min":73,"x_max":723,"ha":800,"o":"m 723 250 l 77 292 l 73 592 l 719 592 l 723 250 m 723 680 l 77 692 l 73 992 l 719 1022 l 723 680"},"°":{"x_min":14,"x_max":620,"ha":634,"o":"m 620 1134 l 620 1134 q 620 1072 596 1018 q 572 964 532 924 q 491 884 436 861 q 381 838 320 838 l 320 838 q 256 838 201 861 q 145 884 104 924 q 62 964 38 1018 q 14 1072 14 1134 l 14 1134 q 14 1195 38 1248 q 62 1301 103 1341 q 143 1380 198 1403 q 252 1426 314 1426 l 314 1426 q 378 1426 434 1403 q 489 1380 531 1341 q 572 1301 596 1248 q 620 1195 620 1134 m 414 1128 l 414 1128 q 414 1150 408 1171 q 401 1191 390 1207 q 379 1222 364 1231 q 348 1240 330 1240 l 330 1240 q 312 1240 296 1231 q 280 1222 268 1207 q 256 1191 249 1171 q 242 1150 242 1128 l 242 1128 q 242 1104 249 1083 q 256 1062 268 1047 q 280 1032 296 1023 q 312 1014 330 1014 l 330 1014 q 366 1014 390 1047 q 414 1080 414 1128"},"·":{"x_min":22,"x_max":442,"ha":462,"o":"m 442 696 l 442 696 q 442 652 425 614 q 408 576 380 548 q 351 519 313 503 q 275 486 232 486 l 232 486 q 188 486 150 503 q 112 519 84 548 q 55 576 39 614 q 22 652 22 696 l 22 696 q 22 739 39 778 q 55 817 84 846 q 112 874 150 891 q 188 908 232 908 l 232 908 q 275 908 313 891 q 351 874 380 846 q 408 817 425 778 q 442 739 442 696"},"÷":{"x_min":46,"x_max":876,"ha":925,"o":"m 876 480 l 50 492 l 46 792 l 872 822 l 876 480 m 634 246 l 634 246 q 634 208 620 175 q 605 141 580 116 q 554 91 521 77 q 487 62 450 62 l 450 62 q 412 62 379 77 q 345 91 320 116 q 295 141 281 175 q 266 208 266 246 l 266 246 q 266 284 281 318 q 295 352 320 378 q 345 403 379 418 q 412 432 450 432 l 450 432 q 487 432 521 418 q 554 403 580 378 q 605 352 620 318 q 634 284 634 246 m 638 1044 l 638 1044 q 638 1006 624 973 q 609 939 584 914 q 558 889 525 875 q 491 860 454 860 l 454 860 q 416 860 383 875 q 349 889 324 914 q 299 939 285 973 q 270 1006 270 1044 l 270 1044 q 270 1082 285 1116 q 299 1150 324 1176 q 349 1201 383 1216 q 416 1230 454 1230 l 454 1230 q 491 1230 525 1216 q 558 1201 584 1176 q 609 1150 624 1116 q 638 1082 638 1044"},"¬":{"x_min":57,"x_max":1019,"ha":1096,"o":"m 1019 322 l 629 298 l 621 604 l 69 592 l 57 970 l 1005 986 l 1019 322"},"±":{"x_min":61,"x_max":891,"ha":962,"o":"m 633 222 l 317 226 l 315 488 l 65 492 l 61 792 l 311 800 l 311 1036 l 621 1068 l 625 814 l 887 822 l 891 480 l 629 484 l 633 222 m 891 -214 l 65 -202 l 61 98 l 887 128 l 891 -214"},"Ø":{"x_min":16,"x_max":1286,"ha":1303,"o":"m 828 1460 l 1148 1320 l 1088 1190 q 1183 1105 1235 983 q 1286 861 1286 706 l 1286 706 q 1286 615 1265 531 q 1244 446 1205 372 q 1165 298 1109 237 q 1052 175 982 131 q 911 87 828 63 q 745 38 652 38 l 652 38 l 596 -118 l 196 38 l 252 178 q 197 221 154 277 q 110 332 80 396 q 49 460 33 532 q 16 603 16 680 l 16 680 q 16 767 37 851 q 58 934 98 1008 q 137 1082 193 1144 q 249 1206 319 1251 q 388 1296 469 1321 q 550 1346 640 1346 l 640 1346 q 673 1346 705 1344 q 736 1341 766 1336 l 766 1336 l 828 1460 m 450 690 l 450 690 q 450 658 456 627 q 462 595 476 566 l 476 566 l 624 904 q 583 899 551 880 q 519 861 497 833 q 474 804 462 767 q 450 730 450 690 m 842 680 l 842 680 q 842 704 838 729 q 833 753 824 776 l 824 776 l 678 458 q 716 465 747 486 q 777 507 798 537 q 819 567 831 604 q 842 640 842 680"},"ø":{"x_min":16,"x_max":1286,"ha":1302,"o":"m 818 1516 l 1138 1376 q 1124 1346 1110 1316 q 1096 1286 1082 1254 l 1082 1254 q 1179 1169 1233 1046 q 1286 923 1286 766 l 1286 766 q 1286 675 1265 591 q 1244 506 1205 432 q 1165 358 1109 297 q 1052 235 982 191 q 911 147 828 123 q 745 98 652 98 l 652 98 l 644 98 l 586 -62 l 186 94 l 244 242 q 191 286 149 341 q 107 396 78 460 q 48 523 32 594 q 16 664 16 740 l 16 740 q 16 827 37 911 q 58 994 98 1068 q 137 1142 193 1204 q 249 1266 319 1311 q 388 1356 469 1381 q 550 1406 640 1406 l 640 1406 q 670 1406 700 1404 q 729 1401 758 1398 l 758 1398 l 818 1516 m 842 740 l 842 740 q 842 796 820 846 l 820 846 l 670 516 q 710 522 742 543 q 774 563 797 594 q 819 624 831 662 q 842 699 842 740 m 450 750 l 450 750 q 450 721 456 692 q 461 663 472 636 l 472 636 l 614 962 q 576 956 546 937 q 515 918 494 890 q 473 861 462 826 q 450 790 450 750"},"≈":{"x_min":59,"x_max":1171,"ha":1231,"o":"m 913 660 l 1171 464 q 1149 402 1114 346 q 1079 289 1031 247 q 982 204 921 179 q 859 154 785 154 l 785 154 q 739 154 703 166 q 666 177 636 194 q 606 210 581 230 q 555 250 532 267 q 509 283 487 295 q 465 306 441 306 l 441 306 q 425 306 406 303 q 387 300 367 288 q 347 275 327 250 q 306 225 287 182 l 287 182 l 59 464 q 85 502 117 541 q 148 579 190 610 q 232 641 287 661 q 341 680 413 680 l 413 680 q 484 680 535 661 q 586 642 625 619 q 663 596 694 577 q 724 558 755 558 l 755 558 q 770 558 793 562 q 815 565 839 576 q 862 587 882 607 q 902 627 913 660 l 913 660 m 913 1178 l 1171 982 q 1149 920 1114 864 q 1079 807 1031 765 q 982 722 921 697 q 859 672 785 672 l 785 672 q 739 672 703 684 q 666 695 636 712 q 606 728 581 748 q 555 768 532 785 q 509 801 487 813 q 465 824 441 824 l 441 824 q 425 824 406 821 q 387 818 367 806 q 347 793 327 768 q 306 743 287 700 l 287 700 l 59 982 q 85 1020 117 1059 q 148 1097 190 1128 q 232 1159 287 1179 q 341 1198 413 1198 l 413 1198 q 484 1198 535 1179 q 586 1160 625 1137 q 663 1114 694 1095 q 724 1076 755 1076 l 755 1076 q 770 1076 793 1080 q 815 1083 839 1094 q 862 1105 882 1125 q 902 1145 913 1178 l 913 1178"},"{":{"x_min":-6,"x_max":892,"ha":840,"o":"m 892 1510 l 784 1244 q 731 1266 672 1266 l 672 1266 q 610 1266 580 1243 q 550 1220 550 1176 l 550 1176 q 550 1142 560 1110 q 569 1078 580 1047 q 591 1015 601 983 q 610 951 610 918 l 610 918 q 610 835 552 795 q 493 754 386 754 l 386 754 q 439 743 484 718 q 528 693 560 660 q 591 626 609 586 q 626 546 626 506 l 626 506 q 626 472 615 440 q 603 407 589 375 q 575 343 564 311 q 552 278 552 244 l 552 244 q 552 212 573 187 q 594 161 627 143 q 659 125 699 115 q 738 104 776 100 l 776 100 l 628 -178 q 544 -180 465 -152 q 385 -125 324 -79 q 262 -33 225 27 q 188 86 188 148 l 188 148 q 188 183 200 217 q 212 251 227 285 q 242 318 254 352 q 266 386 266 422 l 266 422 q 266 459 241 490 q 216 520 177 540 q 137 560 89 569 q 40 578 -6 574 l -6 574 l 4 850 q 15 848 23 848 q 31 848 42 848 l 42 848 q 82 848 118 858 q 154 867 181 885 q 208 902 224 927 q 240 952 240 984 l 240 984 q 240 1021 228 1058 q 216 1094 202 1130 q 188 1166 176 1202 q 164 1238 164 1276 l 164 1276 q 164 1340 201 1396 q 238 1452 299 1493 q 360 1533 439 1557 q 518 1580 602 1580 l 602 1580 q 680 1580 754 1560 q 827 1540 892 1510 l 892 1510"},"$":{"x_min":61,"x_max":853,"ha":894,"o":"m 391 -144 l 293 -138 l 303 256 q 271 262 238 271 q 205 279 174 289 q 142 298 113 308 q 84 318 61 328 l 61 328 l 95 574 q 158 542 236 526 q 314 510 391 510 l 391 510 q 405 510 426 511 q 446 512 465 517 q 484 521 498 531 q 511 541 511 558 l 511 558 q 511 576 492 586 q 472 595 446 600 q 419 604 392 605 q 365 606 351 606 l 351 606 q 286 606 233 623 q 180 640 142 672 q 103 703 82 747 q 61 791 61 846 l 61 846 q 61 897 79 941 q 96 985 128 1021 q 159 1057 203 1085 q 246 1112 297 1130 l 297 1130 l 281 1552 l 389 1542 l 389 1154 q 403 1157 416 1159 q 429 1160 443 1162 l 443 1162 l 441 1552 l 549 1550 l 535 1162 q 601 1160 668 1150 q 735 1139 791 1116 l 791 1116 l 765 862 q 712 876 656 886 q 600 896 549 896 l 549 896 q 533 896 507 895 q 480 894 455 889 q 429 884 411 874 q 392 864 393 846 l 393 846 q 394 831 406 824 q 418 816 437 813 q 455 809 478 809 q 501 809 523 810 q 544 811 563 812 q 582 813 593 812 l 593 812 q 653 809 701 791 q 749 773 783 743 q 817 712 835 670 q 853 628 853 578 l 853 578 q 853 508 830 454 q 806 400 764 361 q 722 321 664 296 q 605 270 535 258 l 535 258 l 551 -136 l 453 -146 l 449 248 q 435 246 421 246 q 407 246 393 246 l 393 246 l 389 246 l 391 -144"},"¢":{"x_min":41,"x_max":807,"ha":864,"o":"m 507 -144 l 389 -146 l 399 250 q 317 267 251 306 q 185 345 139 399 q 92 453 67 520 q 41 586 41 660 l 41 660 q 41 743 64 818 q 87 892 132 952 q 177 1012 243 1057 q 309 1101 395 1124 l 395 1124 l 377 1552 l 505 1542 l 491 1142 q 533 1148 581 1148 l 581 1148 q 632 1148 686 1142 q 739 1136 789 1116 l 789 1116 l 761 850 q 740 855 719 857 q 698 858 675 858 l 675 858 q 622 858 574 847 q 526 835 489 812 q 451 788 429 753 q 407 717 407 668 l 407 668 q 407 599 454 565 q 500 530 583 530 l 583 530 q 639 530 700 548 q 760 565 807 588 l 807 588 l 795 292 q 766 280 732 270 q 697 260 661 253 q 625 246 589 242 q 552 238 519 238 l 519 238 l 491 238 l 507 -144"},"€":{"x_min":41,"x_max":969,"ha":1048,"o":"m 691 662 l 691 578 l 605 572 q 650 530 745 530 l 745 530 q 801 530 862 548 q 922 565 969 588 l 969 588 l 957 292 q 928 280 894 270 q 859 260 823 253 q 787 246 751 242 q 714 238 681 238 l 681 238 q 592 238 517 262 q 441 285 381 327 q 321 368 280 425 q 238 481 219 548 l 219 548 l 41 536 l 79 670 l 203 668 q 203 679 203 688 q 203 697 205 708 l 205 708 l 89 708 l 121 836 l 229 828 q 253 899 298 958 q 343 1017 408 1059 q 472 1101 556 1125 q 640 1148 743 1148 l 743 1148 q 794 1148 848 1142 q 901 1136 951 1116 l 951 1116 l 923 850 q 902 855 881 857 q 860 858 837 858 l 837 858 q 778 858 725 844 q 671 829 633 800 l 633 800 l 691 796 l 691 712 l 573 710 q 571 701 570 690 q 569 679 569 668 l 569 668 l 569 662 l 691 662"},"…":{"x_min":18,"x_max":1558,"ha":1574,"o":"m 438 206 l 438 206 q 438 162 421 124 q 404 86 376 58 q 347 29 309 13 q 271 -4 228 -4 l 228 -4 q 184 -4 146 13 q 108 29 80 58 q 51 86 35 124 q 18 162 18 206 l 18 206 q 18 249 35 288 q 51 327 80 356 q 108 384 146 401 q 184 418 228 418 l 228 418 q 271 418 309 401 q 347 384 376 356 q 404 327 421 288 q 438 249 438 206 m 998 206 l 998 206 q 998 162 981 124 q 964 86 936 58 q 907 29 869 13 q 831 -4 788 -4 l 788 -4 q 744 -4 706 13 q 668 29 640 58 q 611 86 595 124 q 578 162 578 206 l 578 206 q 578 249 595 288 q 611 327 640 356 q 668 384 706 401 q 744 418 788 418 l 788 418 q 831 418 869 401 q 907 384 936 356 q 964 327 981 288 q 998 249 998 206 m 1558 206 l 1558 206 q 1558 162 1541 124 q 1524 86 1496 58 q 1467 29 1429 13 q 1391 -4 1348 -4 l 1348 -4 q 1304 -4 1266 13 q 1228 29 1200 58 q 1171 86 1155 124 q 1138 162 1138 206 l 1138 206 q 1138 249 1155 288 q 1171 327 1200 356 q 1228 384 1266 401 q 1304 418 1348 418 l 1348 418 q 1391 418 1429 401 q 1467 384 1496 356 q 1524 327 1541 288 q 1558 249 1558 206"},"≠":{"x_min":67,"x_max":717,"ha":785,"o":"m 717 680 l 501 684 l 473 592 l 713 592 l 717 250 l 373 272 l 329 124 l 129 180 l 169 286 l 71 292 l 67 592 l 293 592 l 331 686 l 71 692 l 67 992 l 461 1010 l 543 1204 l 643 1138 q 638 1126 629 1094 q 620 1061 605 1016 l 605 1016 l 713 1022 l 717 680"},"Æ":{"x_min":-50,"x_max":1736,"ha":1719,"o":"m 670 554 l 820 554 l 830 902 l 670 554 m 678 1404 l 1736 1442 q 1730 1348 1725 1256 q 1720 1164 1712 1070 l 1712 1070 l 1288 1048 l 1278 922 l 1576 922 l 1554 612 l 1254 602 l 1244 456 l 1668 456 q 1662 346 1656 238 q 1649 129 1644 20 l 1644 20 l 782 0 l 790 248 l 546 248 l 446 22 l -50 72 l 678 1404"},"æ":{"x_min":-32,"x_max":1866,"ha":1880,"o":"m 1866 808 l 1866 808 q 1866 721 1854 634 l 1854 634 q 1683 623 1515 599 q 1346 574 1178 550 l 1178 550 l 1184 528 q 1211 465 1265 429 q 1319 392 1390 392 l 1390 392 q 1430 392 1478 407 q 1525 422 1572 445 q 1619 467 1662 493 q 1705 519 1736 540 l 1736 540 l 1688 86 q 1649 56 1604 35 q 1558 14 1509 1 q 1460 -12 1410 -18 q 1360 -24 1312 -24 l 1312 -24 q 1208 -24 1116 0 q 1024 24 952 63 q 880 101 832 150 q 784 198 770 248 l 770 248 l 532 248 l 478 22 l -32 72 l 366 1404 l 922 1432 l 960 1302 q 1034 1370 1130 1409 q 1226 1448 1348 1448 l 1348 1448 q 1437 1448 1511 1424 q 1584 1399 1642 1356 q 1699 1312 1742 1252 q 1784 1192 1812 1121 q 1839 1049 1853 970 q 1866 890 1866 808 m 1466 838 l 1466 860 q 1466 888 1460 918 q 1454 947 1441 971 q 1427 995 1405 1011 q 1383 1026 1350 1026 l 1350 1026 q 1310 1026 1280 1005 q 1249 983 1227 951 q 1205 918 1191 880 q 1177 842 1170 810 l 1170 810 l 1466 838 m 570 554 l 720 554 l 644 902 l 570 554"},"Œ":{"x_min":14,"x_max":1786,"ha":1769,"o":"m 864 1442 l 1786 1442 q 1780 1348 1775 1256 q 1770 1164 1762 1070 l 1762 1070 l 1338 1048 l 1328 922 l 1626 922 l 1604 612 l 1304 602 l 1294 456 l 1718 456 q 1712 346 1706 238 q 1699 129 1694 20 l 1694 20 l 832 0 l 832 64 q 790 52 744 45 q 698 38 650 38 l 650 38 q 560 38 479 61 q 397 84 326 126 q 255 167 198 226 q 140 284 99 356 q 58 427 36 509 q 14 591 14 680 l 14 680 q 14 767 35 851 q 56 934 96 1008 q 135 1082 191 1144 q 247 1206 317 1251 q 386 1296 467 1321 q 548 1346 638 1346 l 638 1346 q 698 1346 754 1338 q 809 1329 860 1314 l 860 1314 l 864 1442 m 840 680 l 840 680 q 840 723 828 764 q 815 804 791 836 q 767 867 732 887 q 696 906 650 906 l 650 906 q 603 906 566 889 q 529 872 503 843 q 476 813 462 774 q 448 734 448 690 l 448 690 q 448 648 460 606 q 472 564 496 530 q 520 496 556 475 q 591 454 638 454 l 638 454 q 685 454 723 473 q 760 491 786 523 q 812 554 826 595 q 840 636 840 680"},"œ":{"x_min":15,"x_max":1995,"ha":2009,"o":"m 1995 808 l 1995 808 q 1995 721 1983 634 l 1983 634 q 1812 623 1643 599 q 1474 574 1305 550 l 1305 550 q 1331 478 1387 435 q 1442 392 1519 392 l 1519 392 q 1559 392 1607 407 q 1654 422 1701 445 q 1748 467 1791 493 q 1834 519 1865 540 l 1865 540 l 1817 86 q 1778 56 1733 35 q 1687 14 1638 1 q 1589 -12 1539 -18 q 1489 -24 1441 -24 l 1441 -24 q 1366 -24 1301 -8 q 1235 8 1179 37 q 1122 66 1075 107 q 1028 148 991 198 l 991 198 q 919 150 834 124 q 748 98 651 98 l 651 98 q 561 98 480 121 q 398 144 327 186 q 256 227 199 286 q 141 344 100 416 q 59 487 37 569 q 15 651 15 740 l 15 740 q 15 827 36 911 q 57 994 97 1068 q 136 1142 192 1204 q 248 1266 318 1311 q 387 1356 468 1381 q 549 1406 639 1406 l 639 1406 q 766 1406 872 1372 q 978 1337 1059 1274 l 1059 1274 q 1136 1354 1240 1401 q 1343 1448 1477 1448 l 1477 1448 q 1566 1448 1640 1424 q 1713 1399 1771 1356 q 1828 1312 1871 1252 q 1913 1192 1941 1121 q 1968 1049 1982 970 q 1995 890 1995 808 m 841 740 l 841 740 q 841 783 829 824 q 816 864 792 896 q 768 927 733 947 q 697 966 651 966 l 651 966 q 604 966 567 949 q 530 932 504 903 q 477 873 463 834 q 449 794 449 750 l 449 750 q 449 708 461 666 q 473 624 497 590 q 521 556 557 535 q 592 514 639 514 l 639 514 q 686 514 724 533 q 761 551 787 583 q 813 614 827 655 q 841 696 841 740 m 1595 838 l 1595 860 q 1595 888 1589 918 q 1583 947 1570 971 q 1556 995 1534 1011 q 1512 1026 1479 1026 l 1479 1026 q 1439 1026 1409 1005 q 1378 983 1356 951 q 1334 918 1320 880 q 1306 842 1299 810 l 1299 810 l 1595 838"},"ª":{"x_min":-8,"x_max":918,"ha":914,"o":"m 650 1360 l 918 552 l 576 514 l 538 660 l 378 660 l 344 514 l -8 544 l 266 1342 l 650 1360 m 408 832 l 512 832 l 458 1042 l 408 832"},"º":{"x_min":12,"x_max":888,"ha":902,"o":"m 888 960 l 888 960 q 888 878 856 805 q 823 732 765 677 q 707 622 627 590 q 547 558 452 558 l 452 558 q 358 558 278 588 q 197 618 138 671 q 79 723 46 794 q 12 864 12 944 l 12 944 q 12 1023 45 1095 q 77 1167 134 1223 q 191 1278 270 1311 q 349 1344 442 1344 l 442 1344 q 543 1344 626 1317 q 708 1290 767 1240 q 825 1190 857 1119 q 888 1048 888 960 m 582 944 l 582 944 q 582 969 574 994 q 565 1018 549 1038 q 532 1057 508 1069 q 483 1080 452 1080 l 452 1080 q 420 1080 394 1070 q 367 1059 349 1041 q 330 1023 320 1000 q 310 976 310 950 l 310 950 q 310 924 319 899 q 327 874 344 854 q 360 833 385 821 q 410 808 442 808 l 442 808 q 475 808 501 820 q 527 831 545 850 q 563 869 573 894 q 582 918 582 944"},"¥":{"x_min":44,"x_max":1006,"ha":1047,"o":"m 814 460 l 668 462 l 674 272 l 302 272 l 306 468 l 168 472 l 170 552 l 308 550 l 310 608 l 168 612 l 164 672 l 270 676 l 44 1054 l 414 1092 l 530 834 l 656 1092 l 1006 1072 l 728 698 l 810 702 l 814 600 l 664 602 l 666 548 l 810 548 l 814 460"},"£":{"x_min":41,"x_max":797,"ha":866,"o":"m 519 744 l 683 746 l 687 658 l 513 660 l 503 578 l 797 578 l 769 312 l 157 272 l 169 668 l 41 670 l 43 750 l 171 748 q 178 818 201 887 q 224 956 270 1012 q 316 1067 387 1102 q 458 1136 561 1136 l 561 1136 q 612 1136 666 1130 q 719 1124 769 1104 l 769 1104 l 741 838 q 720 843 699 846 q 678 848 655 846 l 655 846 q 635 845 613 838 q 591 830 572 817 q 552 803 538 785 q 523 766 519 744 l 519 744"},"Þ":{"x_min":58,"x_max":1220,"ha":1226,"o":"m 58 -14 l 58 1430 l 582 1464 l 570 1206 l 588 1206 q 665 1206 742 1194 q 819 1181 890 1154 q 960 1127 1021 1087 q 1081 1046 1125 990 q 1169 934 1195 862 q 1220 790 1220 702 l 1220 702 q 1220 605 1191 530 q 1162 455 1112 399 q 1061 342 993 304 q 925 265 848 241 q 770 216 687 205 q 604 194 524 192 l 524 192 l 524 -14 l 58 -14 m 776 668 l 776 668 q 776 733 737 770 q 697 806 634 806 l 634 806 q 613 806 591 803 q 568 799 548 794 l 548 794 l 536 502 q 550 500 563 500 q 576 500 590 500 l 590 500 q 626 500 660 512 q 693 524 719 547 q 745 569 761 600 q 776 630 776 668"},"þ":{"x_min":58,"x_max":1220,"ha":1226,"o":"m 58 -14 l 58 1430 l 582 1464 l 570 1206 l 588 1206 q 665 1206 742 1194 q 819 1181 890 1154 q 960 1127 1021 1087 q 1081 1046 1125 990 q 1169 934 1195 862 q 1220 790 1220 702 l 1220 702 q 1220 605 1191 530 q 1162 455 1112 399 q 1061 342 993 304 q 925 265 848 241 q 770 216 687 205 q 604 194 524 192 l 524 192 l 524 -14 l 58 -14 m 776 668 l 776 668 q 776 733 737 770 q 697 806 634 806 l 634 806 q 613 806 591 803 q 568 799 548 794 l 548 794 l 536 502 q 550 500 563 500 q 576 500 590 500 l 590 500 q 626 500 660 512 q 693 524 719 547 q 745 569 761 600 q 776 630 776 668"},"Ð":{"x_min":-29,"x_max":1253,"ha":1262,"o":"m -29 780 l 127 776 l 141 1360 q 251 1395 368 1410 q 484 1424 599 1424 l 599 1424 q 742 1424 862 1381 q 982 1338 1069 1257 q 1156 1176 1205 1059 q 1253 942 1253 794 l 1253 794 q 1253 654 1217 542 q 1181 429 1117 342 q 1052 254 963 191 q 874 128 768 88 q 662 47 542 28 q 422 8 297 8 l 297 8 q 250 8 205 11 q 160 13 113 18 l 113 18 l 125 604 l -25 598 l -29 780 m 843 716 l 843 730 q 844 784 832 834 q 819 884 791 923 q 762 961 718 985 q 674 1008 613 1010 l 613 1010 l 597 770 l 697 768 l 701 628 l 591 622 l 573 390 q 633 399 682 430 q 731 460 767 505 q 802 549 822 604 q 841 658 843 716 l 843 716"},"ð":{"x_min":-29,"x_max":1253,"ha":1262,"o":"m -29 780 l 127 776 l 141 1360 q 251 1395 368 1410 q 484 1424 599 1424 l 599 1424 q 742 1424 862 1381 q 982 1338 1069 1257 q 1156 1176 1205 1059 q 1253 942 1253 794 l 1253 794 q 1253 654 1217 542 q 1181 429 1117 342 q 1052 254 963 191 q 874 128 768 88 q 662 47 542 28 q 422 8 297 8 l 297 8 q 250 8 205 11 q 160 13 113 18 l 113 18 l 125 604 l -25 598 l -29 780 m 843 716 l 843 730 q 844 784 832 834 q 819 884 791 923 q 762 961 718 985 q 674 1008 613 1010 l 613 1010 l 597 770 l 697 768 l 701 628 l 591 622 l 573 390 q 633 399 682 430 q 731 460 767 505 q 802 549 822 604 q 841 658 843 716 l 843 716"},"Ł":{"x_min":-26,"x_max":936,"ha":932,"o":"m 684 806 l 540 762 q 537 714 535 666 q 532 618 530 570 l 530 570 q 577 568 623 568 q 669 568 716 568 l 716 568 q 772 568 826 569 q 880 570 936 570 l 936 570 l 894 126 l 52 60 q 54 200 57 339 q 59 478 62 618 l 62 618 l -22 592 l -26 730 l 66 762 q 69 934 74 1105 q 78 1276 84 1448 l 84 1448 l 604 1448 q 590 1321 578 1195 q 565 1068 554 940 l 554 940 l 680 986 l 684 806"},"ł":{"x_min":-28,"x_max":934,"ha":932,"o":"m 528 530 l 934 530 l 892 86 l 50 20 l 62 618 l -24 592 l -28 730 l 66 764 l 82 1448 l 602 1448 l 560 944 l 678 986 l 682 806 l 546 764 l 528 530"},"¶":{"x_min":42,"x_max":1640,"ha":1715,"o":"m 1640 1356 l 1588 20 l 1154 18 l 1154 928 l 1080 932 q 1083 698 1083 469 q 1082 240 1084 6 l 1084 6 l 618 -2 l 618 402 q 537 395 464 398 q 390 400 326 416 q 262 432 210 464 q 157 496 120 547 q 83 597 63 669 q 42 741 42 838 l 42 838 q 42 971 87 1077 q 131 1183 211 1257 q 290 1331 398 1371 q 506 1410 634 1410 l 634 1410 q 875 1410 1061 1402 q 1247 1393 1377 1383 l 1377 1383 q 1527 1371 1640 1356 l 1640 1356"},"µ":{"x_min":44,"x_max":1486,"ha":1532,"o":"m 480 -358 l 44 -348 l 146 628 q 154 717 168 813 q 182 909 202 1005 q 221 1101 247 1195 q 273 1288 306 1374 l 306 1374 q 427 1365 550 1358 q 672 1350 794 1348 l 794 1348 q 762 1262 730 1176 q 698 1089 670 1002 q 641 915 619 827 q 597 738 586 648 l 586 648 q 584 629 581 591 q 578 553 583 514 q 587 475 602 446 q 616 417 648 416 l 648 416 q 686 415 720 447 q 754 478 783 532 q 812 585 837 656 q 862 727 883 805 q 903 882 920 961 q 936 1040 948 1110 q 959 1179 967 1235 q 975 1291 978 1322 l 978 1322 q 984 1358 984 1398 l 984 1398 q 1042 1396 1106 1394 q 1170 1391 1235 1389 q 1300 1387 1364 1387 q 1427 1386 1486 1388 l 1486 1388 q 1399 1043 1326 695 q 1253 347 1184 2 l 1184 2 l 728 -16 l 768 134 q 745 111 716 96 q 686 80 655 71 q 623 61 591 57 q 559 53 530 54 l 530 54 l 526 54 l 480 -358"},"∂":{"x_min":41,"x_max":1167,"ha":1236,"o":"m 41 510 l 41 510 q 41 602 75 675 q 108 748 166 799 q 223 850 301 877 q 378 904 467 904 l 467 904 q 545 904 620 882 q 695 860 761 822 l 761 822 q 760 877 749 927 q 737 977 719 1022 q 700 1066 677 1105 q 653 1144 629 1177 l 629 1177 q 572 1253 501 1314 l 501 1314 l 867 1502 q 893 1464 926 1421 q 958 1377 991 1324 q 1024 1270 1056 1205 q 1088 1140 1113 1060 q 1137 979 1152 882 q 1167 784 1167 666 l 1167 666 q 1167 578 1153 492 q 1139 406 1110 329 q 1080 252 1035 186 q 990 120 928 72 q 865 24 785 -3 q 705 -30 607 -30 l 607 -30 q 485 -30 382 9 q 278 48 203 119 q 127 189 84 289 q 41 388 41 510 m 421 480 l 421 480 q 421 450 435 426 q 448 401 470 384 q 491 367 519 358 q 546 348 575 348 l 575 348 q 603 348 630 358 q 657 367 679 384 q 700 401 714 426 q 727 450 727 480 l 727 480 q 727 511 714 536 q 700 560 679 578 q 657 595 630 605 q 603 614 575 614 l 575 614 q 546 614 519 605 q 491 595 470 578 q 448 560 435 536 q 421 511 421 480"},"¡":{"x_min":30,"x_max":520,"ha":570,"o":"m 520 -432 l 30 -432 l 112 620 l 482 620 l 520 -432 m 96 928 l 96 928 q 96 971 113 1010 q 130 1048 159 1077 q 187 1105 225 1122 q 263 1138 306 1138 l 306 1138 q 349 1138 388 1122 q 426 1105 455 1077 q 483 1048 500 1010 q 516 971 516 928 l 516 928 q 516 884 500 846 q 483 807 455 779 q 426 750 388 733 q 349 716 306 716 l 306 716 q 263 716 225 733 q 187 750 159 779 q 130 807 113 846 q 96 884 96 928"},"ı":{"x_min":41,"x_max":573,"ha":603,"o":"m 41 1380 l 573 1408 l 503 46 l 81 24 l 41 1380"},"§":{"x_min":64,"x_max":1112,"ha":1170,"o":"m 1112 352 l 1112 352 q 1112 215 1065 116 q 1017 16 935 -48 q 852 -113 742 -143 q 631 -174 504 -174 l 504 -174 q 455 -174 397 -161 q 338 -148 278 -128 q 218 -109 163 -86 q 107 -64 64 -44 l 64 -44 l 108 348 q 193 297 297 271 q 400 244 500 244 l 500 244 q 519 244 546 246 q 573 247 598 255 q 622 262 639 277 q 656 292 656 320 l 656 320 q 656 339 644 353 q 632 366 613 375 q 594 383 570 388 q 546 392 523 394 q 500 396 480 396 q 460 396 448 396 l 448 396 q 362 396 292 423 q 221 450 171 500 q 120 549 92 620 q 64 690 64 776 l 64 776 q 64 814 69 850 q 73 885 84 918 l 84 918 q 73 950 69 984 q 64 1018 64 1056 l 64 1056 q 64 1174 112 1268 q 159 1361 239 1427 q 318 1492 421 1527 q 524 1562 634 1562 l 634 1562 q 683 1562 735 1559 q 787 1555 839 1546 q 890 1537 939 1523 q 988 1509 1032 1488 l 1032 1488 l 994 1082 q 926 1105 852 1121 q 777 1136 706 1136 l 706 1136 q 693 1136 673 1136 q 652 1135 630 1133 q 607 1130 584 1125 q 561 1120 543 1112 q 525 1103 514 1089 q 503 1075 504 1056 l 504 1056 q 505 1034 521 1022 q 536 1010 561 1005 q 585 999 615 999 q 644 999 673 1001 q 702 1002 728 1004 q 753 1005 768 1004 l 768 1004 q 848 999 912 970 q 976 941 1021 893 q 1065 845 1089 779 q 1112 712 1112 632 l 1112 632 q 1112 590 1107 553 q 1102 515 1094 480 l 1094 480 q 1112 423 1112 352 m 488 704 l 488 704 q 485 678 513 657 q 540 636 584 630 l 584 630 q 605 627 625 629 q 644 631 660 637 q 675 643 685 653 q 694 663 696 676 l 696 676 q 698 688 692 700 q 685 712 672 722 q 659 732 641 740 q 622 747 600 750 l 600 750 q 556 756 525 743 q 493 730 488 704"},"ß":{"x_min":28,"x_max":2124,"ha":2137,"o":"m 1076 512 l 1076 512 q 1076 375 1029 276 q 981 176 899 112 q 816 47 706 17 q 595 -14 468 -14 l 468 -14 q 419 -14 361 -1 q 302 12 242 32 q 182 51 127 74 q 71 96 28 116 l 28 116 l 72 508 q 157 457 261 431 q 364 404 464 404 l 464 404 q 483 404 510 406 q 537 407 562 415 q 586 422 603 437 q 620 452 620 480 l 620 480 q 620 499 608 513 q 596 526 577 535 q 558 543 534 548 q 510 552 487 554 q 464 556 444 556 q 424 556 412 556 l 412 556 q 326 556 256 583 q 185 610 135 660 q 84 709 56 780 q 28 850 28 936 l 28 936 q 28 1054 76 1148 q 123 1241 203 1307 q 282 1372 385 1407 q 488 1442 598 1442 l 598 1442 q 647 1442 699 1439 q 751 1435 803 1426 q 854 1417 903 1403 q 952 1389 996 1368 l 996 1368 l 958 962 q 890 985 816 1001 q 741 1016 670 1016 l 670 1016 q 657 1016 637 1016 q 616 1015 594 1013 q 571 1010 548 1005 q 525 1000 507 992 q 489 983 478 969 q 467 955 468 936 l 468 936 q 469 914 485 902 q 500 890 525 885 q 549 879 579 879 q 608 879 637 881 q 666 882 691 884 q 716 885 732 884 l 732 884 q 812 879 876 850 q 940 821 985 773 q 1029 725 1053 659 q 1076 592 1076 512 m 2124 512 l 2124 512 q 2124 375 2077 276 q 2029 176 1947 112 q 1864 47 1754 17 q 1643 -14 1516 -14 l 1516 -14 q 1467 -14 1409 -1 q 1350 12 1290 32 q 1230 51 1175 74 q 1119 96 1076 116 l 1076 116 l 1120 508 q 1205 457 1309 431 q 1412 404 1512 404 l 1512 404 q 1531 404 1558 406 q 1585 407 1610 415 q 1634 422 1651 437 q 1668 452 1668 480 l 1668 480 q 1668 499 1656 513 q 1644 526 1625 535 q 1606 543 1582 548 q 1558 552 1535 554 q 1512 556 1492 556 q 1472 556 1460 556 l 1460 556 q 1374 556 1304 583 q 1233 610 1183 660 q 1132 709 1104 780 q 1076 850 1076 936 l 1076 936 q 1076 1054 1124 1148 q 1171 1241 1251 1307 q 1330 1372 1433 1407 q 1536 1442 1646 1442 l 1646 1442 q 1695 1442 1747 1439 q 1799 1435 1851 1426 q 1902 1417 1951 1403 q 2000 1389 2044 1368 l 2044 1368 l 2006 962 q 1938 985 1864 1001 q 1789 1016 1718 1016 l 1718 1016 q 1705 1016 1685 1016 q 1664 1015 1642 1013 q 1619 1010 1596 1005 q 1573 1000 1555 992 q 1537 983 1526 969 q 1515 955 1516 936 l 1516 936 q 1517 914 1533 902 q 1548 890 1573 885 q 1597 879 1627 879 q 1656 879 1685 881 q 1714 882 1739 884 q 1764 885 1780 884 l 1780 884 q 1860 879 1924 850 q 1988 821 2033 773 q 2077 725 2101 659 q 2124 592 2124 512"},"®":{"x_min":60,"x_max":1106,"ha":1167,"o":"m 1106 738 l 1106 738 q 1106 626 1068 526 q 1029 426 960 351 q 891 276 795 232 q 699 188 584 188 l 584 188 q 473 188 377 230 q 281 271 211 343 q 140 414 100 510 q 60 606 60 716 l 60 716 q 60 824 99 924 q 137 1023 206 1099 q 274 1175 368 1221 q 462 1266 574 1266 l 574 1266 q 693 1266 791 1229 q 889 1192 959 1123 q 1029 1054 1068 957 q 1106 859 1106 738 m 990 736 l 990 736 q 990 830 961 906 q 931 982 877 1036 q 822 1090 745 1119 q 668 1148 574 1148 l 574 1148 q 488 1148 415 1113 q 341 1077 288 1018 q 234 959 204 882 q 174 804 174 720 l 174 720 q 174 622 213 540 q 252 458 320 402 l 320 402 q 322 502 325 602 q 327 701 330 802 l 330 802 q 330 916 336 1030 l 336 1030 q 405 1056 473 1064 q 540 1072 614 1072 l 614 1072 q 671 1072 725 1057 q 778 1041 819 1010 q 860 978 885 931 q 910 884 910 822 l 910 822 q 910 744 882 693 q 854 642 788 600 l 788 600 l 878 438 q 931 497 961 574 q 990 650 990 736 m 534 348 l 404 348 q 487 308 584 308 l 584 308 q 643 308 695 323 q 747 337 792 364 l 792 364 l 682 344 l 606 558 l 544 556 l 534 348 m 686 806 l 686 806 q 686 848 664 875 q 641 902 596 902 l 596 902 q 576 902 558 896 l 558 896 l 550 710 l 562 710 q 584 710 606 716 q 628 721 646 733 q 664 744 675 762 q 686 780 686 806"},"©":{"x_min":59,"x_max":1115,"ha":1176,"o":"m 1115 704 l 1115 704 q 1115 591 1076 490 q 1037 389 967 313 q 897 237 800 193 q 703 148 587 148 l 587 148 q 475 148 379 190 q 282 232 211 304 q 140 376 100 474 q 59 571 59 682 l 59 682 q 59 754 77 824 q 94 893 127 955 q 160 1016 207 1068 q 253 1119 311 1157 q 368 1194 436 1215 q 503 1236 577 1236 l 577 1236 q 698 1236 798 1199 q 897 1161 968 1092 q 1038 1022 1077 924 q 1115 825 1115 704 m 999 702 l 999 702 q 999 796 969 873 q 939 950 884 1005 q 829 1059 752 1089 q 674 1118 579 1118 l 579 1118 q 492 1118 418 1083 q 344 1047 290 987 q 236 927 206 849 q 175 771 175 686 l 175 686 q 175 599 207 523 q 238 447 294 391 q 349 335 425 303 q 500 270 587 270 l 587 270 q 678 270 754 305 q 829 339 884 398 q 938 457 969 536 q 999 614 999 702 m 779 1022 l 761 812 q 734 818 705 818 l 705 818 q 670 818 638 809 q 605 800 580 782 q 555 764 540 736 q 525 707 525 668 l 525 668 q 525 612 557 585 q 589 558 643 558 l 643 558 q 679 558 719 572 q 759 586 791 604 l 791 604 l 783 370 q 744 350 695 338 q 645 326 601 326 l 601 326 q 530 326 472 353 q 414 379 373 425 q 331 470 308 531 q 285 592 285 660 l 285 660 q 285 742 309 813 q 332 884 377 937 q 422 989 489 1019 q 555 1048 641 1048 l 641 1048 q 676 1048 712 1043 q 747 1037 779 1022 l 779 1022"},"™":{"x_min":22,"x_max":1339,"ha":1353,"o":"m 28 1370 l 562 1371 l 557 1163 l 411 1157 l 374 692 l 167 682 l 168 1146 l 22 1138 l 28 1370 m 1076 1385 l 1339 1385 l 1294 665 l 1071 655 l 1073 1035 l 972 729 l 886 729 l 809 1002 l 807 685 l 581 678 l 591 1355 l 843 1365 l 942 1040 l 1076 1385"},"«":{"x_min":24,"x_max":1336,"ha":1359,"o":"m 656 560 l 496 232 l 38 540 l 24 908 l 458 1224 l 618 922 l 350 738 l 656 560 m 1336 560 l 1176 232 l 718 540 l 704 908 l 1138 1224 l 1298 922 l 1030 738 l 1336 560"},"»":{"x_min":24,"x_max":1340,"ha":1365,"o":"m 656 550 l 222 232 l 58 540 l 332 722 l 24 898 l 182 1224 l 644 918 l 656 550 m 1340 550 l 906 232 l 742 540 l 1016 722 l 708 898 l 866 1224 l 1328 918 l 1340 550"},"¿":{"x_min":60,"x_max":1112,"ha":1152,"o":"m 506 654 l 506 654 l 844 654 q 850 547 832 476 q 813 405 781 358 q 748 310 708 281 q 667 251 629 230 q 590 208 560 188 q 530 167 520 138 l 520 138 q 513 120 516 97 q 519 73 537 52 q 554 31 588 17 q 622 2 678 2 l 678 2 q 714 2 764 9 q 813 15 867 29 q 921 42 974 61 q 1026 80 1068 106 l 1068 106 l 1112 -286 q 1075 -309 1029 -332 q 982 -355 926 -373 q 870 -392 804 -404 q 738 -416 662 -416 l 662 -416 q 539 -416 430 -382 q 320 -348 238 -282 q 156 -216 108 -119 q 60 -23 60 102 l 60 102 q 60 197 87 255 q 114 312 156 349 q 198 386 250 411 q 302 436 352 466 q 401 495 443 538 q 484 581 506 654 m 456 918 l 456 918 q 456 961 473 1000 q 490 1038 519 1067 q 547 1095 585 1112 q 623 1128 666 1128 l 666 1128 q 709 1128 748 1112 q 786 1095 815 1067 q 843 1038 860 1000 q 876 961 876 918 l 876 918 q 876 874 860 836 q 843 797 815 769 q 786 740 748 723 q 709 706 666 706 l 666 706 q 623 706 585 723 q 547 740 519 769 q 490 797 473 836 q 456 874 456 918"},"⁄":{"x_min":-26,"x_max":622,"ha":594,"o":"m 478 1308 l 622 1244 q 494 965 385 677 q 276 388 182 94 l 182 94 l -26 170 q 32 315 90 460 q 148 604 210 747 q 271 890 337 1031 q 403 1171 478 1308 l 478 1308"},"ﬁ":{"x_min":43,"x_max":1529,"ha":1559,"o":"m 75 1422 l 997 1422 q 991 1328 986 1236 q 981 1144 973 1050 l 973 1050 l 549 1028 l 549 902 l 917 902 l 897 592 l 547 582 l 549 30 l 43 20 l 75 1422 m 997 1380 l 1529 1408 l 1459 46 l 1037 24 l 997 1380"},"ﬂ":{"x_min":43,"x_max":1881,"ha":1877,"o":"m 75 1422 l 997 1422 q 991 1328 986 1236 q 981 1144 973 1050 l 973 1050 l 549 1028 l 549 902 l 917 902 l 897 592 l 547 582 l 549 30 l 43 20 l 75 1422 m 1475 530 l 1881 530 l 1839 86 l 997 20 l 1029 1448 l 1549 1448 l 1475 530"},"@":{"x_min":66,"x_max":1316,"ha":1361,"o":"m 1316 768 l 1316 768 q 1316 576 1237 477 q 1157 378 1002 376 l 1002 376 q 943 374 899 384 q 855 393 825 408 q 795 422 779 439 q 762 456 758 470 l 758 470 q 737 437 704 426 q 670 414 638 414 l 638 414 q 588 414 544 428 q 499 442 466 472 q 433 501 414 547 q 394 592 394 654 l 394 654 q 394 711 413 754 q 431 796 464 825 q 497 853 542 868 q 586 882 638 882 l 638 882 q 677 882 714 863 q 751 843 774 796 l 774 796 l 774 898 l 986 900 l 980 538 l 1006 542 q 1021 546 1033 564 l 1033 564 q 1043 579 1052 611 q 1060 643 1060 700 l 1060 700 q 1060 789 1034 852 q 1008 915 959 955 q 910 995 839 1014 q 768 1032 678 1032 l 678 1032 q 580 1031 503 994 l 503 994 q 470 978 439 953 q 407 928 383 891 q 358 853 343 801 q 328 749 328 680 l 328 680 q 328 595 347 535 q 365 475 395 435 q 425 394 464 371 q 502 347 543 335 l 543 335 q 637 308 758 330 l 758 330 l 758 140 q 614 110 488 133 q 362 156 268 226 q 174 296 120 409 q 66 522 66 672 l 66 672 q 66 819 105 923 q 144 1027 206 1097 q 267 1167 343 1208 q 418 1248 492 1269 q 566 1290 630 1296 q 693 1302 730 1302 l 730 1302 q 865 1302 974 1260 q 1082 1218 1158 1146 q 1234 1074 1275 977 q 1316 879 1316 768 m 614 662 l 614 662 q 614 624 630 599 q 645 574 678 574 l 678 574 q 711 574 733 599 q 754 624 754 662 l 754 662 q 754 697 733 714 q 711 730 678 730 l 678 730 q 614 730 614 662"},"%":{"x_min":41,"x_max":1443,"ha":1484,"o":"m 1443 426 l 1443 426 q 1443 373 1421 322 q 1399 270 1357 230 q 1315 189 1256 164 q 1196 138 1121 138 l 1121 138 q 1047 138 988 164 q 928 189 887 230 q 845 270 823 322 q 801 373 801 426 l 801 426 q 801 478 823 530 q 845 582 887 623 q 928 663 988 689 q 1047 714 1121 714 l 1121 714 q 1196 714 1256 689 q 1315 663 1357 623 q 1399 582 1421 530 q 1443 478 1443 426 m 1217 428 l 1217 428 q 1217 444 1212 463 q 1206 481 1194 498 q 1182 514 1164 525 q 1145 536 1119 536 l 1119 536 q 1093 536 1074 525 q 1055 514 1043 498 q 1031 481 1025 463 q 1019 444 1019 428 l 1019 428 q 1019 412 1025 394 q 1031 375 1043 359 q 1055 342 1074 331 q 1093 320 1119 320 l 1119 320 q 1145 320 1164 331 q 1182 342 1194 359 q 1206 375 1212 394 q 1217 412 1217 428 m 683 922 l 683 922 q 683 869 661 818 q 639 766 597 726 q 555 685 496 660 q 436 634 361 634 l 361 634 q 287 634 228 660 q 168 685 127 726 q 85 766 63 818 q 41 869 41 922 l 41 922 q 41 974 63 1026 q 85 1078 127 1119 q 168 1159 228 1185 q 287 1210 361 1210 l 361 1210 q 436 1210 496 1185 q 555 1159 597 1119 q 639 1078 661 1026 q 683 974 683 922 m 457 924 l 457 924 q 457 940 452 959 q 446 977 434 994 q 422 1010 404 1021 q 385 1032 359 1032 l 359 1032 q 333 1032 314 1021 q 295 1010 283 994 q 271 977 265 959 q 259 940 259 924 l 259 924 q 259 908 265 890 q 271 871 283 855 q 295 838 314 827 q 333 816 359 816 l 359 816 q 385 816 404 827 q 422 838 434 855 q 446 871 452 890 q 457 908 457 924 m 939 1308 l 1083 1244 q 955 965 846 677 q 736 388 641 94 l 641 94 l 433 170 q 492 315 551 460 q 609 604 671 747 q 732 890 798 1031 q 864 1171 939 1308 l 939 1308"},"&":{"x_min":7,"x_max":1316,"ha":1290,"o":"m 1316 292 l 1086 98 q 1051 125 1016 150 q 981 175 946 202 l 946 202 q 897 163 836 127 q 774 91 704 65 q 634 39 559 26 q 484 13 408 20 l 408 20 q 321 26 246 55 q 170 83 116 128 q 62 173 35 231 q 7 289 16 354 l 16 354 q 24 409 53 461 q 81 512 122 559 q 163 606 214 649 q 265 691 318 728 l 318 728 q 280 765 247 807 q 213 848 189 893 q 165 937 154 984 q 142 1030 150 1078 l 150 1078 q 160 1142 203 1199 q 246 1256 312 1297 q 378 1338 461 1360 q 543 1381 632 1374 l 632 1374 q 714 1368 785 1335 q 855 1302 905 1253 q 955 1204 980 1145 q 1005 1085 996 1026 l 996 1026 q 989 978 965 936 q 941 894 907 857 q 872 819 830 785 q 787 750 744 716 l 744 716 q 786 684 825 655 q 863 625 904 596 l 904 596 q 922 622 939 650 q 956 678 970 708 l 970 708 l 1268 636 q 1248 580 1216 524 q 1183 467 1144 414 l 1144 414 q 1188 382 1230 353 q 1272 324 1316 292 l 1316 292 m 622 1046 l 622 1046 q 625 1081 610 1103 q 594 1125 562 1128 l 562 1128 q 529 1133 505 1115 q 481 1096 478 1060 l 478 1060 q 476 1037 481 1014 q 486 990 496 968 q 505 945 517 925 q 529 904 540 888 l 540 888 q 553 903 567 922 q 580 941 592 962 q 603 983 612 1005 q 620 1026 622 1046 m 654 390 l 654 390 q 624 426 592 464 q 560 502 530 538 l 530 538 q 517 524 501 504 q 485 484 471 462 q 456 439 445 416 q 434 392 432 370 l 432 370 q 430 341 449 317 q 467 293 496 290 l 496 290 q 517 287 540 297 q 562 306 583 322 q 604 338 623 357 q 641 375 654 390"},"?":{"x_min":41,"x_max":1093,"ha":1135,"o":"m 647 390 l 647 390 l 309 390 q 302 496 321 568 q 340 639 373 687 q 405 734 446 764 q 486 793 525 815 q 563 836 593 856 q 622 876 633 906 l 633 906 q 640 924 637 948 q 634 971 617 992 q 599 1013 565 1028 q 530 1042 475 1042 l 475 1042 q 439 1042 390 1036 q 340 1029 286 1016 q 232 1002 180 983 q 127 963 85 938 l 85 938 l 41 1330 q 78 1352 125 1376 q 171 1399 227 1418 q 283 1436 349 1448 q 415 1460 491 1460 l 491 1460 q 614 1460 724 1426 q 833 1392 915 1326 q 997 1260 1045 1164 q 1093 1067 1093 942 l 1093 942 q 1093 847 1066 790 q 1039 732 997 695 q 955 658 903 633 q 851 608 802 579 q 752 549 711 506 q 669 463 647 390 m 697 126 l 697 126 q 697 82 680 44 q 663 6 635 -22 q 606 -51 568 -67 q 530 -84 487 -84 l 487 -84 q 443 -84 405 -67 q 367 -51 339 -22 q 310 6 294 44 q 277 82 277 126 l 277 126 q 277 169 294 208 q 310 247 339 276 q 367 304 405 321 q 443 338 487 338 l 487 338 q 530 338 568 321 q 606 304 635 276 q 663 247 680 208 q 697 169 697 126"},"½":{"x_min":38,"x_max":1198,"ha":1256,"o":"m 206 1192 l 442 1184 l 414 616 l 186 624 l 198 1000 l 116 958 l 38 1094 l 206 1192 m 768 1308 l 912 1244 q 784 965 675 677 q 565 388 470 94 l 470 94 l 262 170 q 321 315 380 460 q 438 604 500 747 q 561 890 627 1031 q 693 1171 768 1308 l 768 1308 m 1198 486 l 1198 486 q 1198 454 1183 425 q 1168 396 1144 371 q 1119 345 1088 324 q 1056 302 1024 286 l 1024 286 l 1190 286 l 1176 120 l 690 132 l 690 278 q 732 288 778 306 q 824 323 863 348 q 902 372 927 404 q 952 435 952 474 l 952 474 q 952 506 926 521 q 900 536 862 536 l 862 536 q 832 536 800 526 q 767 516 744 498 l 744 498 l 700 656 q 719 671 744 681 q 768 691 796 697 q 823 703 852 706 q 881 708 908 708 l 908 708 q 969 708 1022 691 q 1075 674 1114 644 q 1153 614 1176 574 q 1198 533 1198 486"},"¼":{"x_min":38,"x_max":1176,"ha":1235,"o":"m 208 1192 l 442 1184 l 414 616 l 186 624 l 200 1000 l 116 958 l 38 1094 l 208 1192 m 770 1308 l 914 1244 q 784 965 675 677 q 566 388 472 94 l 472 94 l 264 170 q 322 315 381 460 q 439 604 501 747 q 562 890 629 1031 q 695 1171 770 1308 l 770 1308 m 1176 438 l 1176 332 l 1130 330 l 1122 158 l 886 142 l 898 328 l 620 322 l 698 672 l 894 672 l 836 428 l 906 430 l 924 734 l 1150 734 l 1136 436 l 1176 438"},"¹":{"x_min":-6,"x_max":400,"ha":448,"o":"m 164 1192 l 400 1184 l 370 616 l 144 624 l 156 1002 l 72 958 l -6 1094 l 164 1192"},"¾":{"x_min":45,"x_max":1279,"ha":1324,"o":"m 873 1308 l 1017 1244 q 887 965 778 677 q 669 388 575 94 l 575 94 l 367 170 q 425 315 484 460 q 542 604 604 747 q 665 890 732 1031 q 798 1171 873 1308 l 873 1308 m 1279 438 l 1279 332 l 1233 330 l 1225 158 l 989 142 l 1001 328 l 723 322 l 801 672 l 997 672 l 939 428 l 1009 430 l 1027 734 l 1253 734 l 1239 436 l 1279 438 m 579 818 l 579 818 q 579 765 557 726 q 535 686 496 661 q 457 635 402 623 q 347 610 281 610 l 281 610 q 221 610 159 626 q 96 642 45 666 l 45 666 l 65 828 q 84 817 109 808 q 133 799 160 792 q 186 784 213 780 q 240 776 265 776 l 265 776 q 280 776 296 778 q 311 779 323 784 q 335 788 343 797 q 351 806 351 820 l 351 820 q 351 829 341 837 q 330 844 316 849 q 301 854 285 857 q 269 860 259 860 l 259 860 q 252 860 242 860 q 232 859 222 858 q 211 856 201 854 q 191 852 185 848 l 185 848 l 189 964 q 198 962 206 962 q 214 962 223 962 l 223 962 q 242 962 264 965 q 285 967 303 974 q 321 981 333 993 q 345 1004 345 1022 l 345 1022 q 345 1035 336 1043 q 326 1051 313 1056 q 299 1060 283 1062 q 266 1064 253 1064 l 253 1064 q 211 1064 170 1053 q 129 1041 97 1020 l 97 1020 l 55 1166 q 102 1196 163 1211 q 224 1226 287 1226 l 287 1226 q 343 1226 395 1214 q 447 1201 487 1177 q 526 1153 550 1117 q 573 1080 573 1032 l 573 1032 q 573 1006 554 979 q 534 951 507 934 l 507 934 q 529 926 543 914 q 557 901 565 886 q 573 870 576 853 q 579 835 579 818"},"³":{"x_min":34,"x_max":570,"ha":598,"o":"m 570 818 l 570 818 q 570 765 548 726 q 526 686 487 661 q 447 635 392 623 q 337 610 272 610 l 272 610 q 212 610 149 626 q 85 642 34 666 l 34 666 l 54 828 q 73 818 98 809 q 122 800 149 793 q 175 785 202 781 q 229 776 254 776 l 254 776 q 269 776 285 778 q 300 779 312 784 q 324 788 332 797 q 340 806 340 820 l 340 820 q 340 829 330 837 q 319 844 305 849 q 290 854 275 857 q 260 860 250 860 l 250 860 q 242 860 232 860 q 221 859 211 858 q 200 857 191 855 q 181 853 176 850 l 176 850 l 178 964 q 187 962 196 962 q 204 962 212 962 l 212 962 q 231 962 253 965 q 274 967 292 974 q 310 981 322 993 q 334 1004 334 1022 l 334 1022 q 334 1035 325 1044 q 315 1052 302 1057 q 288 1061 272 1063 q 255 1064 242 1064 l 242 1064 q 200 1064 160 1054 q 120 1043 88 1020 l 88 1020 l 44 1166 q 91 1196 153 1211 q 214 1226 276 1226 l 276 1226 q 332 1226 384 1214 q 436 1201 476 1177 q 515 1153 539 1117 q 562 1081 562 1034 l 562 1034 q 562 1007 543 979 q 524 951 498 934 l 498 934 q 540 919 555 886 q 570 853 570 818"},"²":{"x_min":42,"x_max":550,"ha":586,"o":"m 550 1000 l 550 1000 q 550 968 535 939 q 520 910 496 885 q 471 859 440 838 q 408 816 376 800 l 376 800 l 540 800 l 528 634 l 42 646 l 42 792 q 84 802 130 820 q 176 837 215 862 q 254 886 279 918 q 304 949 304 988 l 304 988 q 304 1020 278 1036 q 252 1052 214 1052 l 214 1052 q 182 1052 151 1041 q 119 1030 96 1012 l 96 1012 l 52 1170 q 71 1185 96 1195 q 120 1205 148 1211 q 175 1217 204 1220 q 233 1222 260 1222 l 260 1222 q 321 1222 374 1205 q 427 1188 466 1158 q 505 1128 528 1088 q 550 1047 550 1000"},"‰":{"x_min":41,"x_max":2123,"ha":2164,"o":"m 1443 426 l 1443 426 q 1443 373 1421 322 q 1399 270 1357 230 q 1315 189 1256 164 q 1196 138 1121 138 l 1121 138 q 1047 138 988 164 q 928 189 887 230 q 845 270 823 322 q 801 373 801 426 l 801 426 q 801 478 823 530 q 845 582 887 623 q 928 663 988 689 q 1047 714 1121 714 l 1121 714 q 1196 714 1256 689 q 1315 663 1357 623 q 1399 582 1421 530 q 1443 478 1443 426 m 1217 428 l 1217 428 q 1217 444 1212 463 q 1206 481 1194 498 q 1182 514 1164 525 q 1145 536 1119 536 l 1119 536 q 1093 536 1074 525 q 1055 514 1043 498 q 1031 481 1025 463 q 1019 444 1019 428 l 1019 428 q 1019 412 1025 394 q 1031 375 1043 359 q 1055 342 1074 331 q 1093 320 1119 320 l 1119 320 q 1145 320 1164 331 q 1182 342 1194 359 q 1206 375 1212 394 q 1217 412 1217 428 m 683 922 l 683 922 q 683 869 661 818 q 639 766 597 726 q 555 685 496 660 q 436 634 361 634 l 361 634 q 287 634 228 660 q 168 685 127 726 q 85 766 63 818 q 41 869 41 922 l 41 922 q 41 974 63 1026 q 85 1078 127 1119 q 168 1159 228 1185 q 287 1210 361 1210 l 361 1210 q 436 1210 496 1185 q 555 1159 597 1119 q 639 1078 661 1026 q 683 974 683 922 m 457 924 l 457 924 q 457 940 452 959 q 446 977 434 994 q 422 1010 404 1021 q 385 1032 359 1032 l 359 1032 q 333 1032 314 1021 q 295 1010 283 994 q 271 977 265 959 q 259 940 259 924 l 259 924 q 259 908 265 890 q 271 871 283 855 q 295 838 314 827 q 333 816 359 816 l 359 816 q 385 816 404 827 q 422 838 434 855 q 446 871 452 890 q 457 908 457 924 m 939 1308 l 1083 1244 q 955 965 846 677 q 736 388 641 94 l 641 94 l 433 170 q 492 315 551 460 q 609 604 671 747 q 732 890 798 1031 q 864 1171 939 1308 l 939 1308 m 2123 426 l 2123 426 q 2123 373 2101 322 q 2079 270 2037 230 q 1995 189 1936 164 q 1876 138 1801 138 l 1801 138 q 1727 138 1668 164 q 1608 189 1567 230 q 1525 270 1503 322 q 1481 373 1481 426 l 1481 426 q 1481 478 1503 530 q 1525 582 1567 623 q 1608 663 1668 689 q 1727 714 1801 714 l 1801 714 q 1876 714 1936 689 q 1995 663 2037 623 q 2079 582 2101 530 q 2123 478 2123 426 m 1897 428 l 1897 428 q 1897 444 1892 463 q 1886 481 1874 498 q 1862 514 1844 525 q 1825 536 1799 536 l 1799 536 q 1773 536 1754 525 q 1735 514 1723 498 q 1711 481 1705 463 q 1699 444 1699 428 l 1699 428 q 1699 412 1705 394 q 1711 375 1723 359 q 1735 342 1754 331 q 1773 320 1799 320 l 1799 320 q 1825 320 1844 331 q 1862 342 1874 359 q 1886 375 1892 394 q 1897 412 1897 428"},"Š":{"x_min":27,"x_max":1075,"ha":1087,"o":"m 1075 532 l 1075 532 q 1075 395 1028 293 q 980 190 898 122 q 815 54 705 20 q 594 -14 467 -14 l 467 -14 q 418 -14 360 -1 q 301 12 241 32 q 181 51 126 74 q 70 96 27 116 l 27 116 l 71 528 q 156 477 260 451 q 363 424 463 424 l 463 424 q 482 424 509 426 q 536 427 561 435 q 585 442 602 457 q 619 472 619 500 l 619 500 q 619 519 607 533 q 595 546 576 555 q 557 563 533 568 q 509 572 486 574 q 463 576 443 576 q 423 576 411 576 l 411 576 q 325 576 255 606 q 184 636 134 690 q 83 743 55 817 q 27 890 27 976 l 27 976 q 27 1094 75 1188 q 122 1281 202 1347 q 281 1412 384 1447 q 487 1482 597 1482 l 597 1482 q 646 1482 698 1479 q 750 1475 802 1466 q 853 1457 902 1443 q 951 1429 995 1408 l 995 1408 l 957 1002 q 889 1025 815 1041 q 740 1056 669 1056 l 669 1056 q 656 1056 636 1056 q 615 1055 593 1053 q 570 1050 547 1045 q 524 1040 506 1032 q 488 1023 477 1009 q 466 995 467 976 l 467 976 q 468 954 484 941 q 499 927 524 920 q 548 912 578 909 q 607 906 636 906 q 665 905 690 906 q 715 906 731 904 l 731 904 q 811 899 875 870 q 939 841 984 793 q 1028 745 1052 679 q 1075 612 1075 532 m 685 1974 l 905 1878 q 886 1847 859 1808 q 832 1768 802 1725 q 772 1682 741 1639 q 709 1595 681 1558 l 681 1558 l 485 1530 l 195 1848 l 407 1982 l 563 1778 l 685 1974"},"š":{"x_min":28,"x_max":1076,"ha":1089,"o":"m 1076 512 l 1076 512 q 1076 375 1029 276 q 981 176 899 112 q 816 47 706 17 q 595 -14 468 -14 l 468 -14 q 419 -14 361 -1 q 302 12 242 32 q 182 51 127 74 q 71 96 28 116 l 28 116 l 72 508 q 157 457 261 431 q 364 404 464 404 l 464 404 q 483 404 510 406 q 537 407 562 415 q 586 422 603 437 q 620 452 620 480 l 620 480 q 620 499 608 513 q 596 526 577 535 q 558 543 534 548 q 510 552 487 554 q 464 556 444 556 q 424 556 412 556 l 412 556 q 326 556 256 583 q 185 610 135 660 q 84 709 56 780 q 28 850 28 936 l 28 936 q 28 1054 76 1148 q 123 1241 203 1307 q 282 1372 385 1407 q 488 1442 598 1442 l 598 1442 q 647 1442 699 1439 q 751 1435 803 1426 q 854 1417 903 1403 q 952 1389 996 1368 l 996 1368 l 958 962 q 890 985 816 1001 q 741 1016 670 1016 l 670 1016 q 657 1016 637 1016 q 616 1015 594 1013 q 571 1010 548 1005 q 525 1000 507 992 q 489 983 478 969 q 467 955 468 936 l 468 936 q 469 914 485 902 q 500 890 525 885 q 549 879 579 879 q 608 879 637 881 q 666 882 691 884 q 716 885 732 884 l 732 884 q 812 879 876 850 q 940 821 985 773 q 1029 725 1053 659 q 1076 592 1076 512 m 686 1930 l 906 1834 q 887 1803 860 1764 q 833 1724 803 1681 q 773 1638 742 1595 q 710 1551 682 1514 l 682 1514 l 486 1486 l 196 1804 l 408 1938 l 564 1734 l 686 1930"},"Ý":{"x_min":12,"x_max":1336,"ha":1243,"o":"m 856 1388 l 1336 1354 l 786 586 l 760 -40 l 286 -40 l 298 582 l 12 1324 l 522 1388 l 602 956 l 856 1388 m 1024 1906 l 1212 1666 q 1093 1601 980 1535 q 867 1468 754 1390 l 754 1390 l 626 1530 q 646 1554 674 1584 q 702 1613 734 1644 q 765 1675 799 1707 q 833 1738 865 1767 l 865 1767 q 941 1836 1024 1906 l 1024 1906"},"ý":{"x_min":-40,"x_max":1284,"ha":1240,"o":"m 804 1388 l 1284 1354 l 814 586 l 828 20 l 314 20 l 326 582 l -40 1324 l 470 1388 l 630 956 l 804 1388 m 980 1882 l 1168 1642 q 1049 1577 936 1511 q 823 1444 710 1366 l 710 1366 l 582 1506 q 602 1530 630 1560 q 658 1589 690 1620 q 721 1651 755 1683 q 789 1714 821 1743 l 821 1743 q 897 1812 980 1882 l 980 1882"},"Ž":{"x_min":12,"x_max":966,"ha":997,"o":"m 948 1458 l 966 1098 l 508 480 l 950 480 l 944 56 l 52 20 l 12 412 l 534 1092 l 56 1056 l 52 1458 l 948 1458 m 624 1946 l 844 1850 q 825 1819 798 1780 q 771 1740 741 1697 q 711 1654 680 1611 q 648 1567 620 1530 l 620 1530 l 424 1502 l 134 1820 l 346 1954 l 502 1750 l 624 1946"},"ž":{"x_min":35,"x_max":989,"ha":1015,"o":"m 971 1418 l 989 1058 l 531 480 l 953 480 l 967 56 l 75 20 l 35 412 l 557 1052 l 39 1016 l 35 1418 l 971 1418 m 647 1920 l 867 1824 q 848 1793 821 1754 q 794 1714 764 1671 q 734 1628 703 1585 q 671 1541 643 1504 l 643 1504 l 447 1476 l 157 1794 l 369 1928 l 525 1724 l 647 1920"},"ÿ":{"x_min":-40,"x_max":1284,"ha":1240,"o":"m 804 1388 l 1284 1354 l 814 586 l 828 20 l 314 20 l 326 582 l -40 1324 l 470 1388 l 630 956 l 804 1388 m 974 1622 l 974 1622 q 974 1591 963 1565 q 951 1538 931 1519 q 911 1499 884 1488 q 857 1476 826 1476 l 826 1476 q 797 1476 771 1488 q 744 1499 725 1519 q 705 1538 694 1565 q 682 1591 682 1622 l 682 1622 q 682 1652 694 1679 q 705 1705 725 1725 q 744 1745 771 1757 q 797 1768 826 1768 l 826 1768 q 857 1768 884 1757 q 911 1745 931 1725 q 951 1705 963 1679 q 974 1652 974 1622 m 584 1600 l 584 1600 q 584 1567 572 1538 q 559 1509 538 1487 q 516 1465 487 1453 q 458 1440 426 1440 l 426 1440 q 393 1440 364 1453 q 335 1465 314 1487 q 293 1509 281 1538 q 268 1567 268 1600 l 268 1600 q 268 1631 281 1659 q 293 1687 314 1709 q 335 1730 364 1743 q 393 1756 426 1756 l 426 1756 q 458 1756 487 1743 q 516 1730 538 1709 q 559 1687 572 1659 q 584 1631 584 1600"},"Ÿ":{"x_min":12,"x_max":1336,"ha":1243,"o":"m 856 1388 l 1336 1354 l 786 586 l 760 -40 l 286 -40 l 298 582 l 12 1324 l 522 1388 l 602 956 l 856 1388 m 1026 1626 l 1026 1626 q 1026 1595 1015 1569 q 1003 1542 983 1523 q 963 1503 936 1492 q 909 1480 878 1480 l 878 1480 q 849 1480 823 1492 q 796 1503 777 1523 q 757 1542 746 1569 q 734 1595 734 1626 l 734 1626 q 734 1656 746 1683 q 757 1709 777 1729 q 796 1749 823 1761 q 849 1772 878 1772 l 878 1772 q 909 1772 936 1761 q 963 1749 983 1729 q 1003 1709 1015 1683 q 1026 1656 1026 1626 m 636 1604 l 636 1604 q 636 1571 624 1542 q 611 1513 590 1491 q 568 1469 539 1457 q 510 1444 478 1444 l 478 1444 q 445 1444 416 1457 q 387 1469 366 1491 q 345 1513 333 1542 q 320 1571 320 1604 l 320 1604 q 320 1635 333 1663 q 345 1691 366 1713 q 387 1734 416 1747 q 445 1760 478 1760 l 478 1760 q 510 1760 539 1747 q 568 1734 590 1713 q 611 1691 624 1663 q 636 1635 636 1604"},"À":{"x_min":-32,"x_max":1312,"ha":1282,"o":"m 922 1432 l 1312 86 l 816 22 l 756 248 l 528 248 l 478 22 l -32 72 l 366 1404 l 922 1432 m 570 554 l 720 554 l 644 902 l 570 554 m 712 1584 l 578 1450 q 468 1533 358 1604 q 248 1675 132 1744 l 132 1744 l 330 1978 q 410 1903 483 1832 l 483 1832 q 514 1801 547 1768 q 579 1735 610 1703 q 640 1670 667 1640 q 693 1609 712 1584 l 712 1584"},"Ã":{"x_min":-32,"x_max":1312,"ha":1282,"o":"m 922 1432 l 1312 86 l 816 22 l 756 248 l 528 248 l 478 22 l -32 72 l 366 1404 l 922 1432 m 570 554 l 720 554 l 644 902 l 570 554 m 1040 1752 l 1040 1752 q 1040 1694 1019 1644 q 998 1594 962 1557 q 925 1520 876 1499 q 826 1478 770 1478 l 770 1478 q 726 1478 695 1494 q 664 1510 643 1534 q 621 1558 606 1586 q 590 1614 577 1638 q 564 1662 551 1678 q 537 1694 520 1694 l 520 1694 q 509 1694 501 1688 q 493 1681 489 1672 q 484 1663 482 1652 q 480 1641 480 1632 l 480 1632 q 480 1602 488 1574 q 495 1545 506 1518 l 506 1518 l 262 1498 q 250 1540 245 1583 q 240 1625 240 1666 l 240 1666 q 240 1727 256 1780 q 272 1833 304 1872 q 335 1911 382 1934 q 428 1956 490 1956 l 490 1956 q 545 1956 581 1939 q 617 1922 641 1897 q 665 1872 679 1842 q 692 1812 703 1787 q 714 1762 724 1745 q 734 1728 750 1728 l 750 1728 q 770 1728 781 1746 q 792 1764 792 1782 l 792 1782 q 792 1812 780 1841 q 768 1869 754 1892 l 754 1892 l 1002 1932 q 1019 1888 1030 1844 q 1040 1799 1040 1752"},"Õ":{"x_min":17,"x_max":1287,"ha":1306,"o":"m 1287 706 l 1287 706 q 1287 615 1266 531 q 1245 446 1206 372 q 1166 298 1110 237 q 1053 175 983 131 q 912 87 829 63 q 746 38 653 38 l 653 38 q 563 38 482 61 q 400 84 329 126 q 258 167 201 226 q 143 284 103 356 q 62 427 40 509 q 17 591 17 680 l 17 680 q 17 767 38 851 q 59 934 99 1008 q 138 1082 194 1144 q 250 1206 320 1251 q 389 1296 470 1321 q 551 1346 641 1346 l 641 1346 q 786 1346 906 1301 q 1025 1256 1110 1173 q 1194 1089 1241 971 q 1287 852 1287 706 m 843 680 l 843 680 q 843 723 831 764 q 818 804 794 836 q 770 867 735 887 q 699 906 653 906 l 653 906 q 606 906 569 889 q 532 872 506 843 q 479 813 465 774 q 451 734 451 690 l 451 690 q 451 648 463 606 q 475 564 499 530 q 523 496 559 475 q 594 454 641 454 l 641 454 q 688 454 726 473 q 763 491 789 523 q 815 554 829 595 q 843 636 843 680 m 1051 1668 l 1051 1668 q 1051 1610 1030 1560 q 1009 1510 973 1473 q 936 1436 887 1415 q 837 1394 781 1394 l 781 1394 q 737 1394 706 1410 q 675 1426 654 1450 q 632 1474 617 1502 q 601 1530 588 1554 q 575 1578 562 1594 q 548 1610 531 1610 l 531 1610 q 520 1610 512 1604 q 504 1597 500 1588 q 495 1579 493 1568 q 491 1557 491 1548 l 491 1548 q 491 1518 499 1490 q 506 1461 517 1434 l 517 1434 l 273 1414 q 261 1456 256 1499 q 251 1541 251 1582 l 251 1582 q 251 1643 267 1696 q 283 1749 315 1788 q 346 1827 393 1850 q 439 1872 501 1872 l 501 1872 q 556 1872 592 1855 q 628 1838 652 1813 q 676 1788 690 1758 q 703 1728 714 1703 q 725 1678 735 1661 q 745 1644 761 1644 l 761 1644 q 781 1644 792 1662 q 803 1680 803 1698 l 803 1698 q 803 1728 791 1757 q 779 1785 765 1808 l 765 1808 l 1013 1848 q 1030 1804 1041 1760 q 1051 1715 1051 1668"},"Â":{"x_min":-32,"x_max":1312,"ha":1282,"o":"m 922 1432 l 1312 86 l 816 22 l 756 248 l 528 248 l 478 22 l -32 72 l 366 1404 l 922 1432 m 570 554 l 720 554 l 644 902 l 570 554 m 994 1590 l 782 1460 l 626 1664 l 504 1470 l 284 1564 q 303 1595 331 1637 q 359 1678 390 1723 q 421 1767 453 1812 q 485 1856 514 1894 l 514 1894 l 720 1896 l 994 1590"},"Ê":{"x_min":44,"x_max":998,"ha":981,"o":"m 76 1442 l 998 1442 q 992 1348 987 1256 q 982 1164 974 1070 l 974 1070 l 550 1048 l 540 922 l 838 922 l 816 612 l 516 602 l 506 456 l 754 456 l 930 456 q 924 346 918 238 q 911 129 906 20 l 906 20 l 44 0 l 76 1442 m 876 1608 l 664 1478 l 508 1682 l 386 1488 l 166 1582 q 185 1613 213 1655 q 241 1696 272 1741 q 303 1785 335 1830 q 367 1874 396 1912 l 396 1912 l 602 1914 l 876 1608"},"Á":{"x_min":-32,"x_max":1312,"ha":1282,"o":"m 922 1432 l 1312 86 l 816 22 l 756 248 l 528 248 l 478 22 l -32 72 l 366 1404 l 922 1432 m 570 554 l 720 554 l 644 902 l 570 554 m 990 1984 l 1178 1744 q 1059 1679 946 1613 q 833 1546 720 1468 l 720 1468 l 592 1608 q 612 1632 640 1662 q 668 1691 700 1722 q 731 1753 765 1785 q 799 1816 831 1845 l 831 1845 q 907 1914 990 1984 l 990 1984"},"Ë":{"x_min":44,"x_max":998,"ha":981,"o":"m 76 1442 l 998 1442 q 992 1348 987 1256 q 982 1164 974 1070 l 974 1070 l 550 1048 l 540 922 l 838 922 l 816 612 l 516 602 l 506 456 l 754 456 l 930 456 q 924 346 918 238 q 911 129 906 20 l 906 20 l 44 0 l 76 1442 m 874 1666 l 874 1666 q 874 1635 863 1609 q 851 1582 831 1563 q 811 1543 784 1532 q 757 1520 726 1520 l 726 1520 q 697 1520 671 1532 q 644 1543 625 1563 q 605 1582 594 1609 q 582 1635 582 1666 l 582 1666 q 582 1696 594 1723 q 605 1749 625 1769 q 644 1789 671 1801 q 697 1812 726 1812 l 726 1812 q 757 1812 784 1801 q 811 1789 831 1769 q 851 1749 863 1723 q 874 1696 874 1666 m 484 1644 l 484 1644 q 484 1611 472 1582 q 459 1553 438 1531 q 416 1509 387 1497 q 358 1484 326 1484 l 326 1484 q 293 1484 264 1497 q 235 1509 214 1531 q 193 1553 181 1582 q 168 1611 168 1644 l 168 1644 q 168 1675 181 1703 q 193 1731 214 1753 q 235 1774 264 1787 q 293 1800 326 1800 l 326 1800 q 358 1800 387 1787 q 416 1774 438 1753 q 459 1731 472 1703 q 484 1675 484 1644"},"È":{"x_min":44,"x_max":998,"ha":981,"o":"m 76 1442 l 998 1442 q 992 1348 987 1256 q 982 1164 974 1070 l 974 1070 l 550 1048 l 540 922 l 838 922 l 816 612 l 516 602 l 506 456 l 754 456 l 930 456 q 924 346 918 238 q 911 129 906 20 l 906 20 l 44 0 l 76 1442 m 688 1612 l 554 1478 q 444 1561 334 1632 q 224 1703 108 1772 l 108 1772 l 306 2006 q 386 1931 459 1860 l 459 1860 q 490 1829 523 1796 q 555 1763 586 1731 q 616 1698 643 1668 q 669 1637 688 1612 l 688 1612"},"Í":{"x_min":59,"x_max":843,"ha":609,"o":"m 59 1380 l 591 1408 l 481 46 l 59 24 l 59 1380 m 655 1976 l 843 1736 q 724 1671 611 1605 q 498 1538 385 1460 l 385 1460 l 257 1600 q 277 1624 305 1654 q 333 1683 365 1714 q 396 1745 430 1777 q 464 1808 496 1837 l 496 1837 q 572 1906 655 1976 l 655 1976"},"Î":{"x_min":-28,"x_max":682,"ha":609,"o":"m 59 1380 l 591 1408 l 481 46 l 59 24 l 59 1380 m 682 1580 l 470 1450 l 314 1654 l 192 1460 l -28 1554 q -9 1585 19 1627 q 47 1668 78 1713 q 109 1757 141 1802 q 173 1846 202 1884 l 202 1884 l 408 1886 l 682 1580"},"Ï":{"x_min":-26,"x_max":680,"ha":609,"o":"m 59 1380 l 591 1408 l 481 46 l 59 24 l 59 1380 m 680 1616 l 680 1616 q 680 1585 669 1559 q 657 1532 637 1513 q 617 1493 590 1482 q 563 1470 532 1470 l 532 1470 q 503 1470 477 1482 q 450 1493 431 1513 q 411 1532 400 1559 q 388 1585 388 1616 l 388 1616 q 388 1646 400 1673 q 411 1699 431 1719 q 450 1739 477 1751 q 503 1762 532 1762 l 532 1762 q 563 1762 590 1751 q 617 1739 637 1719 q 657 1699 669 1673 q 680 1646 680 1616 m 290 1594 l 290 1594 q 290 1561 278 1532 q 265 1503 244 1481 q 222 1459 193 1447 q 164 1434 132 1434 l 132 1434 q 99 1434 70 1447 q 41 1459 20 1481 q -1 1503 -13 1532 q -26 1561 -26 1594 l -26 1594 q -26 1625 -13 1653 q -1 1681 20 1703 q 41 1724 70 1737 q 99 1750 132 1750 l 132 1750 q 164 1750 193 1737 q 222 1724 244 1703 q 265 1681 278 1653 q 290 1625 290 1594"},"Ì":{"x_min":-178,"x_max":591,"ha":609,"o":"m 59 1380 l 591 1408 l 481 46 l 59 24 l 59 1380 m 402 1584 l 268 1450 q 158 1533 48 1604 q -62 1675 -178 1744 l -178 1744 l 20 1978 q 100 1903 173 1832 l 173 1832 q 204 1801 237 1768 q 269 1735 300 1703 q 330 1670 357 1640 q 383 1609 402 1584 l 402 1584"},"Ó":{"x_min":17,"x_max":1287,"ha":1306,"o":"m 1287 706 l 1287 706 q 1287 615 1266 531 q 1245 446 1206 372 q 1166 298 1110 237 q 1053 175 983 131 q 912 87 829 63 q 746 38 653 38 l 653 38 q 563 38 482 61 q 400 84 329 126 q 258 167 201 226 q 143 284 103 356 q 62 427 40 509 q 17 591 17 680 l 17 680 q 17 767 38 851 q 59 934 99 1008 q 138 1082 194 1144 q 250 1206 320 1251 q 389 1296 470 1321 q 551 1346 641 1346 l 641 1346 q 786 1346 906 1301 q 1025 1256 1110 1173 q 1194 1089 1241 971 q 1287 852 1287 706 m 843 680 l 843 680 q 843 723 831 764 q 818 804 794 836 q 770 867 735 887 q 699 906 653 906 l 653 906 q 606 906 569 889 q 532 872 506 843 q 479 813 465 774 q 451 734 451 690 l 451 690 q 451 648 463 606 q 475 564 499 530 q 523 496 559 475 q 594 454 641 454 l 641 454 q 688 454 726 473 q 763 491 789 523 q 815 554 829 595 q 843 636 843 680 m 985 1900 l 1173 1660 q 1054 1595 941 1529 q 828 1462 715 1384 l 715 1384 l 587 1524 q 607 1548 635 1578 q 663 1607 695 1638 q 726 1669 760 1701 q 794 1732 826 1761 l 826 1761 q 902 1830 985 1900 l 985 1900"},"Ô":{"x_min":17,"x_max":1287,"ha":1306,"o":"m 1287 706 l 1287 706 q 1287 615 1266 531 q 1245 446 1206 372 q 1166 298 1110 237 q 1053 175 983 131 q 912 87 829 63 q 746 38 653 38 l 653 38 q 563 38 482 61 q 400 84 329 126 q 258 167 201 226 q 143 284 103 356 q 62 427 40 509 q 17 591 17 680 l 17 680 q 17 767 38 851 q 59 934 99 1008 q 138 1082 194 1144 q 250 1206 320 1251 q 389 1296 470 1321 q 551 1346 641 1346 l 641 1346 q 786 1346 906 1301 q 1025 1256 1110 1173 q 1194 1089 1241 971 q 1287 852 1287 706 m 843 680 l 843 680 q 843 723 831 764 q 818 804 794 836 q 770 867 735 887 q 699 906 653 906 l 653 906 q 606 906 569 889 q 532 872 506 843 q 479 813 465 774 q 451 734 451 690 l 451 690 q 451 648 463 606 q 475 564 499 530 q 523 496 559 475 q 594 454 641 454 l 641 454 q 688 454 726 473 q 763 491 789 523 q 815 554 829 595 q 843 636 843 680 m 1007 1514 l 795 1384 l 639 1588 l 517 1394 l 297 1488 q 316 1519 344 1561 q 372 1602 403 1647 q 434 1691 466 1736 q 498 1780 527 1818 l 527 1818 l 733 1820 l 1007 1514"},"Ò":{"x_min":17,"x_max":1287,"ha":1306,"o":"m 1287 706 l 1287 706 q 1287 615 1266 531 q 1245 446 1206 372 q 1166 298 1110 237 q 1053 175 983 131 q 912 87 829 63 q 746 38 653 38 l 653 38 q 563 38 482 61 q 400 84 329 126 q 258 167 201 226 q 143 284 103 356 q 62 427 40 509 q 17 591 17 680 l 17 680 q 17 767 38 851 q 59 934 99 1008 q 138 1082 194 1144 q 250 1206 320 1251 q 389 1296 470 1321 q 551 1346 641 1346 l 641 1346 q 786 1346 906 1301 q 1025 1256 1110 1173 q 1194 1089 1241 971 q 1287 852 1287 706 m 843 680 l 843 680 q 843 723 831 764 q 818 804 794 836 q 770 867 735 887 q 699 906 653 906 l 653 906 q 606 906 569 889 q 532 872 506 843 q 479 813 465 774 q 451 734 451 690 l 451 690 q 451 648 463 606 q 475 564 499 530 q 523 496 559 475 q 594 454 641 454 l 641 454 q 688 454 726 473 q 763 491 789 523 q 815 554 829 595 q 843 636 843 680 m 685 1538 l 551 1404 q 441 1487 331 1558 q 221 1629 105 1698 l 105 1698 l 303 1932 q 383 1857 456 1786 l 456 1786 q 487 1755 520 1722 q 552 1689 583 1657 q 613 1624 640 1594 q 666 1563 685 1538 l 685 1538"},"Ú":{"x_min":33,"x_max":1247,"ha":1276,"o":"m 1247 1112 l 1247 1112 q 1247 1038 1240 949 q 1233 860 1217 765 q 1201 670 1176 573 q 1150 475 1112 385 q 1074 295 1024 217 q 973 138 908 80 q 842 21 761 -12 q 680 -46 581 -46 l 581 -46 q 465 -46 380 -8 q 294 29 233 93 q 172 156 133 241 q 94 325 72 420 q 50 514 42 613 q 33 711 33 802 l 33 802 q 33 942 47 1082 q 61 1221 87 1360 l 87 1360 l 555 1342 q 528 1185 509 1027 q 489 868 489 708 l 489 708 q 489 691 491 658 q 492 624 496 583 q 500 541 508 498 q 515 454 528 418 q 541 382 560 359 q 578 336 603 336 l 603 336 q 632 336 655 364 q 678 391 696 437 q 713 483 726 543 q 739 603 748 668 q 757 733 763 798 q 768 863 772 919 q 775 975 776 1018 q 777 1061 777 1082 l 777 1082 q 777 1160 775 1238 q 772 1315 767 1392 l 767 1392 l 1235 1392 q 1247 1254 1247 1112 m 983 1906 l 1171 1666 q 1052 1601 939 1535 q 826 1468 713 1390 l 713 1390 l 585 1530 q 605 1554 633 1584 q 661 1613 693 1644 q 724 1675 758 1707 q 792 1738 824 1767 l 824 1767 q 900 1836 983 1906 l 983 1906"},"Û":{"x_min":33,"x_max":1247,"ha":1276,"o":"m 1247 1112 l 1247 1112 q 1247 1038 1240 949 q 1233 860 1217 765 q 1201 670 1176 573 q 1150 475 1112 385 q 1074 295 1024 217 q 973 138 908 80 q 842 21 761 -12 q 680 -46 581 -46 l 581 -46 q 465 -46 380 -8 q 294 29 233 93 q 172 156 133 241 q 94 325 72 420 q 50 514 42 613 q 33 711 33 802 l 33 802 q 33 942 47 1082 q 61 1221 87 1360 l 87 1360 l 555 1342 q 528 1185 509 1027 q 489 868 489 708 l 489 708 q 489 691 491 658 q 492 624 496 583 q 500 541 508 498 q 515 454 528 418 q 541 382 560 359 q 578 336 603 336 l 603 336 q 632 336 655 364 q 678 391 696 437 q 713 483 726 543 q 739 603 748 668 q 757 733 763 798 q 768 863 772 919 q 775 975 776 1018 q 777 1061 777 1082 l 777 1082 q 777 1160 775 1238 q 772 1315 767 1392 l 767 1392 l 1235 1392 q 1247 1254 1247 1112 m 995 1548 l 783 1418 l 627 1622 l 505 1428 l 285 1522 q 304 1553 332 1595 q 360 1636 391 1681 q 422 1725 454 1770 q 486 1814 515 1852 l 515 1852 l 721 1854 l 995 1548"},"Ù":{"x_min":33,"x_max":1247,"ha":1276,"o":"m 1247 1112 l 1247 1112 q 1247 1038 1240 949 q 1233 860 1217 765 q 1201 670 1176 573 q 1150 475 1112 385 q 1074 295 1024 217 q 973 138 908 80 q 842 21 761 -12 q 680 -46 581 -46 l 581 -46 q 465 -46 380 -8 q 294 29 233 93 q 172 156 133 241 q 94 325 72 420 q 50 514 42 613 q 33 711 33 802 l 33 802 q 33 942 47 1082 q 61 1221 87 1360 l 87 1360 l 555 1342 q 528 1185 509 1027 q 489 868 489 708 l 489 708 q 489 691 491 658 q 492 624 496 583 q 500 541 508 498 q 515 454 528 418 q 541 382 560 359 q 578 336 603 336 l 603 336 q 632 336 655 364 q 678 391 696 437 q 713 483 726 543 q 739 603 748 668 q 757 733 763 798 q 768 863 772 919 q 775 975 776 1018 q 777 1061 777 1082 l 777 1082 q 777 1160 775 1238 q 772 1315 767 1392 l 767 1392 l 1235 1392 q 1247 1254 1247 1112 m 737 1530 l 603 1396 q 493 1479 383 1550 q 273 1621 157 1690 l 157 1690 l 355 1924 q 435 1849 508 1778 l 508 1778 q 539 1747 572 1714 q 604 1681 635 1649 q 665 1616 692 1586 q 718 1555 737 1530 l 737 1530"},"Ä":{"x_min":-32,"x_max":1312,"ha":1282,"o":"m 922 1432 l 1312 86 l 816 22 l 756 248 l 528 248 l 478 22 l -32 72 l 366 1404 l 922 1432 m 570 554 l 720 554 l 644 902 l 570 554 m 992 1636 l 992 1636 q 992 1605 981 1579 q 969 1552 949 1533 q 929 1513 902 1502 q 875 1490 844 1490 l 844 1490 q 815 1490 789 1502 q 762 1513 743 1533 q 723 1552 712 1579 q 700 1605 700 1636 l 700 1636 q 700 1666 712 1693 q 723 1719 743 1739 q 762 1759 789 1771 q 815 1782 844 1782 l 844 1782 q 875 1782 902 1771 q 929 1759 949 1739 q 969 1719 981 1693 q 992 1666 992 1636 m 602 1614 l 602 1614 q 602 1581 590 1552 q 577 1523 556 1501 q 534 1479 505 1467 q 476 1454 444 1454 l 444 1454 q 411 1454 382 1467 q 353 1479 332 1501 q 311 1523 299 1552 q 286 1581 286 1614 l 286 1614 q 286 1645 299 1673 q 311 1701 332 1723 q 353 1744 382 1757 q 411 1770 444 1770 l 444 1770 q 476 1770 505 1757 q 534 1744 556 1723 q 577 1701 590 1673 q 602 1645 602 1614"},"Å":{"x_min":-39,"x_max":1305,"ha":1270,"o":"m 935 1592 l 935 1592 q 935 1547 923 1506 q 910 1465 887 1430 l 887 1430 l 915 1432 l 1305 86 l 809 22 l 749 248 l 521 248 l 471 22 l -39 72 l 359 1404 l 395 1406 q 363 1444 346 1491 q 329 1538 329 1592 l 329 1592 q 329 1653 353 1706 q 377 1759 418 1799 q 458 1838 513 1861 q 567 1884 629 1884 l 629 1884 q 693 1884 749 1861 q 804 1838 846 1799 q 887 1759 911 1706 q 935 1653 935 1592 m 729 1586 l 729 1586 q 729 1608 723 1629 q 716 1649 705 1665 q 694 1680 679 1689 q 663 1698 645 1698 l 645 1698 q 627 1698 611 1689 q 595 1680 583 1665 q 571 1649 564 1629 q 557 1608 557 1586 l 557 1586 q 557 1562 564 1541 q 571 1520 583 1505 q 595 1490 611 1481 q 627 1472 645 1472 l 645 1472 q 681 1472 705 1505 q 729 1538 729 1586 m 563 554 l 713 554 l 637 902 l 563 554"},"Ç":{"x_min":14,"x_max":1042,"ha":1056,"o":"m 830 -234 l 830 -234 q 830 -292 812 -332 q 793 -372 760 -397 q 727 -423 682 -434 q 637 -446 584 -446 l 584 -446 q 565 -446 541 -443 q 517 -441 493 -435 q 468 -430 445 -421 q 422 -413 406 -400 l 406 -400 l 494 -242 q 506 -248 522 -252 q 538 -256 552 -256 l 552 -256 q 570 -256 588 -245 q 606 -235 606 -214 l 606 -214 q 606 -199 597 -189 q 588 -180 575 -174 q 561 -168 546 -166 q 531 -164 520 -164 l 520 -164 q 500 -164 480 -166 q 460 -169 440 -174 l 440 -174 l 450 36 q 354 62 274 117 q 194 172 136 249 q 78 326 46 422 q 14 517 14 624 l 14 624 q 14 795 63 947 q 112 1098 207 1212 q 302 1326 443 1392 q 583 1458 766 1458 l 766 1458 q 835 1458 908 1447 q 980 1436 1042 1406 l 1042 1406 l 986 984 q 957 992 928 995 q 899 998 870 998 l 870 998 q 796 998 729 979 q 662 959 611 919 q 559 879 529 819 q 498 759 498 678 l 498 678 q 498 626 515 588 q 531 550 561 525 q 591 500 632 488 q 673 476 722 476 l 722 476 q 759 476 799 484 q 839 492 878 505 q 917 518 954 535 q 991 552 1022 570 l 1022 570 l 982 100 q 944 80 900 65 q 855 49 809 38 q 762 27 715 21 q 667 15 624 14 l 624 14 l 624 -36 q 668 -38 706 -52 q 744 -66 772 -91 q 799 -117 815 -153 q 830 -189 830 -234"},"É":{"x_min":44,"x_max":1014,"ha":981,"o":"m 76 1442 l 998 1442 q 992 1348 987 1256 q 982 1164 974 1070 l 974 1070 l 550 1048 l 540 922 l 838 922 l 816 612 l 516 602 l 506 456 l 754 456 l 930 456 q 924 346 918 238 q 911 129 906 20 l 906 20 l 44 0 l 76 1442 m 826 1986 l 1014 1746 q 895 1681 782 1615 q 669 1548 556 1470 l 556 1470 l 428 1610 q 448 1634 476 1664 q 504 1693 536 1724 q 567 1755 601 1787 q 635 1818 667 1847 l 667 1847 q 743 1916 826 1986 l 826 1986"},"Ñ":{"x_min":41,"x_max":1411,"ha":1441,"o":"m 939 1418 l 1411 1434 l 1339 78 l 815 30 l 535 756 l 491 16 l 41 16 l 77 1434 l 577 1458 l 923 738 l 939 1418 m 1125 1752 l 1125 1752 q 1125 1694 1104 1644 q 1083 1594 1047 1557 q 1010 1520 961 1499 q 911 1478 855 1478 l 855 1478 q 811 1478 780 1494 q 749 1510 728 1534 q 706 1558 691 1586 q 675 1614 662 1638 q 649 1662 636 1678 q 622 1694 605 1694 l 605 1694 q 594 1694 586 1688 q 578 1681 574 1672 q 569 1663 567 1652 q 565 1641 565 1632 l 565 1632 q 565 1602 573 1574 q 580 1545 591 1518 l 591 1518 l 347 1498 q 335 1540 330 1583 q 325 1625 325 1666 l 325 1666 q 325 1727 341 1780 q 357 1833 389 1872 q 420 1911 467 1934 q 513 1956 575 1956 l 575 1956 q 630 1956 666 1939 q 702 1922 726 1897 q 750 1872 764 1842 q 777 1812 788 1787 q 799 1762 809 1745 q 819 1728 835 1728 l 835 1728 q 855 1728 866 1746 q 877 1764 877 1782 l 877 1782 q 877 1812 865 1841 q 853 1869 839 1892 l 839 1892 l 1087 1932 q 1104 1888 1115 1844 q 1125 1799 1125 1752"},"Ö":{"x_min":17,"x_max":1287,"ha":1306,"o":"m 1287 706 l 1287 706 q 1287 615 1266 531 q 1245 446 1206 372 q 1166 298 1110 237 q 1053 175 983 131 q 912 87 829 63 q 746 38 653 38 l 653 38 q 563 38 482 61 q 400 84 329 126 q 258 167 201 226 q 143 284 103 356 q 62 427 40 509 q 17 591 17 680 l 17 680 q 17 767 38 851 q 59 934 99 1008 q 138 1082 194 1144 q 250 1206 320 1251 q 389 1296 470 1321 q 551 1346 641 1346 l 641 1346 q 786 1346 906 1301 q 1025 1256 1110 1173 q 1194 1089 1241 971 q 1287 852 1287 706 m 843 680 l 843 680 q 843 723 831 764 q 818 804 794 836 q 770 867 735 887 q 699 906 653 906 l 653 906 q 606 906 569 889 q 532 872 506 843 q 479 813 465 774 q 451 734 451 690 l 451 690 q 451 648 463 606 q 475 564 499 530 q 523 496 559 475 q 594 454 641 454 l 641 454 q 688 454 726 473 q 763 491 789 523 q 815 554 829 595 q 843 636 843 680 m 1005 1563 l 1005 1563 q 1005 1532 994 1506 q 982 1479 962 1460 q 942 1440 915 1429 q 888 1417 857 1417 l 857 1417 q 828 1417 802 1429 q 775 1440 756 1460 q 736 1479 725 1506 q 713 1532 713 1563 l 713 1563 q 713 1593 725 1620 q 736 1646 756 1666 q 775 1686 802 1698 q 828 1709 857 1709 l 857 1709 q 888 1709 915 1698 q 942 1686 962 1666 q 982 1646 994 1620 q 1005 1593 1005 1563 m 615 1541 l 615 1541 q 615 1508 603 1479 q 590 1450 569 1428 q 547 1406 518 1394 q 489 1381 457 1381 l 457 1381 q 424 1381 395 1394 q 366 1406 345 1428 q 324 1450 312 1479 q 299 1508 299 1541 l 299 1541 q 299 1572 312 1600 q 324 1628 345 1650 q 366 1671 395 1684 q 424 1697 457 1697 l 457 1697 q 489 1697 518 1684 q 547 1671 569 1650 q 590 1628 603 1600 q 615 1572 615 1541"},"Ü":{"x_min":33,"x_max":1247,"ha":1276,"o":"m 1247 1112 l 1247 1112 q 1247 1038 1240 949 q 1233 860 1217 765 q 1201 670 1176 573 q 1150 475 1112 385 q 1074 295 1024 217 q 973 138 908 80 q 842 21 761 -12 q 680 -46 581 -46 l 581 -46 q 465 -46 380 -8 q 294 29 233 93 q 172 156 133 241 q 94 325 72 420 q 50 514 42 613 q 33 711 33 802 l 33 802 q 33 942 47 1082 q 61 1221 87 1360 l 87 1360 l 555 1342 q 528 1185 509 1027 q 489 868 489 708 l 489 708 q 489 691 491 658 q 492 624 496 583 q 500 541 508 498 q 515 454 528 418 q 541 382 560 359 q 578 336 603 336 l 603 336 q 632 336 655 364 q 678 391 696 437 q 713 483 726 543 q 739 603 748 668 q 757 733 763 798 q 768 863 772 919 q 775 975 776 1018 q 777 1061 777 1082 l 777 1082 q 777 1160 775 1238 q 772 1315 767 1392 l 767 1392 l 1235 1392 q 1247 1254 1247 1112 m 993 1598 l 993 1598 q 993 1567 982 1541 q 970 1514 950 1495 q 930 1475 903 1464 q 876 1452 845 1452 l 845 1452 q 816 1452 790 1464 q 763 1475 744 1495 q 724 1514 713 1541 q 701 1567 701 1598 l 701 1598 q 701 1628 713 1655 q 724 1681 744 1701 q 763 1721 790 1733 q 816 1744 845 1744 l 845 1744 q 876 1744 903 1733 q 930 1721 950 1701 q 970 1681 982 1655 q 993 1628 993 1598 m 603 1576 l 603 1576 q 603 1543 591 1514 q 578 1485 557 1463 q 535 1441 506 1429 q 477 1416 445 1416 l 445 1416 q 412 1416 383 1429 q 354 1441 333 1463 q 312 1485 300 1514 q 287 1543 287 1576 l 287 1576 q 287 1607 300 1635 q 312 1663 333 1685 q 354 1706 383 1719 q 412 1732 445 1732 l 445 1732 q 477 1732 506 1719 q 535 1706 557 1685 q 578 1663 591 1635 q 603 1607 603 1576"},"á":{"x_min":-32,"x_max":1312,"ha":1282,"o":"m 922 1432 l 1312 86 l 816 22 l 756 248 l 528 248 l 478 22 l -32 72 l 366 1404 l 922 1432 m 570 554 l 720 554 l 644 902 l 570 554 m 1000 1980 l 1188 1740 q 1069 1675 956 1609 q 843 1542 730 1464 l 730 1464 l 602 1604 q 622 1628 650 1658 q 678 1687 710 1718 q 741 1749 775 1781 q 809 1812 841 1841 l 841 1841 q 917 1910 1000 1980 l 1000 1980"},"à":{"x_min":-32,"x_max":1312,"ha":1282,"o":"m 922 1432 l 1312 86 l 816 22 l 756 248 l 528 248 l 478 22 l -32 72 l 366 1404 l 922 1432 m 570 554 l 720 554 l 644 902 l 570 554 m 692 1576 l 558 1442 q 448 1525 338 1596 q 228 1667 112 1736 l 112 1736 l 310 1970 q 390 1895 463 1824 l 463 1824 q 494 1793 527 1760 q 559 1727 590 1695 q 620 1662 647 1632 q 673 1601 692 1576 l 692 1576"},"â":{"x_min":-32,"x_max":1312,"ha":1282,"o":"m 922 1432 l 1312 86 l 816 22 l 756 248 l 528 248 l 478 22 l -32 72 l 366 1404 l 922 1432 m 570 554 l 720 554 l 644 902 l 570 554 m 994 1584 l 782 1454 l 626 1658 l 504 1464 l 284 1558 q 303 1589 331 1631 q 359 1672 390 1717 q 421 1761 453 1806 q 485 1850 514 1888 l 514 1888 l 720 1890 l 994 1584"},"ä":{"x_min":-32,"x_max":1312,"ha":1282,"o":"m 922 1432 l 1312 86 l 816 22 l 756 248 l 528 248 l 478 22 l -32 72 l 366 1404 l 922 1432 m 570 554 l 720 554 l 644 902 l 570 554 m 992 1636 l 992 1636 q 992 1605 981 1579 q 969 1552 949 1533 q 929 1513 902 1502 q 875 1490 844 1490 l 844 1490 q 815 1490 789 1502 q 762 1513 743 1533 q 723 1552 712 1579 q 700 1605 700 1636 l 700 1636 q 700 1666 712 1693 q 723 1719 743 1739 q 762 1759 789 1771 q 815 1782 844 1782 l 844 1782 q 875 1782 902 1771 q 929 1759 949 1739 q 969 1719 981 1693 q 992 1666 992 1636 m 602 1614 l 602 1614 q 602 1581 590 1552 q 577 1523 556 1501 q 534 1479 505 1467 q 476 1454 444 1454 l 444 1454 q 411 1454 382 1467 q 353 1479 332 1501 q 311 1523 299 1552 q 286 1581 286 1614 l 286 1614 q 286 1645 299 1673 q 311 1701 332 1723 q 353 1744 382 1757 q 411 1770 444 1770 l 444 1770 q 476 1770 505 1757 q 534 1744 556 1723 q 577 1701 590 1673 q 602 1645 602 1614"},"ã":{"x_min":-32,"x_max":1312,"ha":1282,"o":"m 922 1432 l 1312 86 l 816 22 l 756 248 l 528 248 l 478 22 l -32 72 l 366 1404 l 922 1432 m 570 554 l 720 554 l 644 902 l 570 554 m 1040 1732 l 1040 1732 q 1040 1674 1019 1624 q 998 1574 962 1537 q 925 1500 876 1479 q 826 1458 770 1458 l 770 1458 q 726 1458 695 1474 q 664 1490 643 1514 q 621 1538 606 1566 q 590 1594 577 1618 q 564 1642 551 1658 q 537 1674 520 1674 l 520 1674 q 509 1674 501 1668 q 493 1661 489 1652 q 484 1643 482 1632 q 480 1621 480 1612 l 480 1612 q 480 1582 488 1554 q 495 1525 506 1498 l 506 1498 l 262 1478 q 250 1520 245 1563 q 240 1605 240 1646 l 240 1646 q 240 1707 256 1760 q 272 1813 304 1852 q 335 1891 382 1914 q 428 1936 490 1936 l 490 1936 q 545 1936 581 1919 q 617 1902 641 1877 q 665 1852 679 1822 q 692 1792 703 1767 q 714 1742 724 1725 q 734 1708 750 1708 l 750 1708 q 770 1708 781 1726 q 792 1744 792 1762 l 792 1762 q 792 1792 780 1821 q 768 1849 754 1872 l 754 1872 l 1002 1912 q 1019 1868 1030 1824 q 1040 1779 1040 1732"},"å":{"x_min":-39,"x_max":1305,"ha":1270,"o":"m 935 1568 l 935 1568 q 935 1495 901 1430 l 901 1430 l 915 1432 l 1305 86 l 809 22 l 749 248 l 521 248 l 471 22 l -39 72 l 359 1404 l 379 1404 q 355 1439 342 1480 q 329 1521 329 1568 l 329 1568 q 329 1629 353 1682 q 377 1735 418 1775 q 458 1814 513 1837 q 567 1860 629 1860 l 629 1860 q 693 1860 749 1837 q 804 1814 846 1775 q 887 1735 911 1682 q 935 1629 935 1568 m 729 1562 l 729 1562 q 729 1584 723 1605 q 716 1625 705 1641 q 694 1656 679 1665 q 663 1674 645 1674 l 645 1674 q 627 1674 611 1665 q 595 1656 583 1641 q 571 1625 564 1605 q 557 1584 557 1562 l 557 1562 q 557 1538 564 1517 q 571 1496 583 1481 q 595 1466 611 1457 q 627 1448 645 1448 l 645 1448 q 681 1448 705 1481 q 729 1514 729 1562 m 563 554 l 713 554 l 637 902 l 563 554"},"ç":{"x_min":16,"x_max":1028,"ha":1051,"o":"m 846 -292 l 846 -292 q 846 -350 828 -390 q 809 -430 776 -455 q 743 -481 698 -492 q 653 -504 600 -504 l 600 -504 q 581 -504 557 -501 q 533 -499 509 -493 q 484 -488 461 -479 q 438 -471 422 -458 l 422 -458 l 510 -300 q 522 -306 538 -310 q 554 -314 568 -314 l 568 -314 q 586 -314 604 -303 q 622 -293 622 -272 l 622 -272 q 622 -257 613 -247 q 604 -238 591 -232 q 577 -226 562 -224 q 547 -222 536 -222 l 536 -222 q 516 -222 496 -224 q 476 -227 456 -232 l 456 -232 l 466 0 q 363 30 280 92 q 197 153 139 238 q 80 322 48 426 q 16 529 16 642 l 16 642 q 16 806 63 948 q 109 1090 200 1195 q 290 1299 424 1359 q 557 1418 730 1418 l 730 1418 q 799 1418 870 1407 q 941 1396 1006 1366 l 1006 1366 l 970 944 q 941 952 913 955 q 885 958 856 958 l 856 958 q 785 958 721 940 q 656 922 607 885 q 557 848 528 792 q 498 735 498 658 l 498 658 q 498 602 515 561 q 531 519 562 492 q 592 464 636 450 q 679 436 732 436 l 732 436 q 769 436 808 444 q 847 451 886 464 q 925 477 961 494 q 997 511 1028 530 l 1028 530 l 1012 60 q 973 40 928 25 q 883 9 836 -2 q 788 -14 741 -20 q 693 -26 650 -26 l 650 -26 l 640 -26 l 640 -94 q 684 -96 722 -110 q 760 -124 788 -149 q 815 -175 831 -211 q 846 -247 846 -292"},"é":{"x_min":17,"x_max":1167,"ha":1181,"o":"m 1167 808 l 1167 808 q 1167 721 1155 634 l 1155 634 q 984 623 815 599 q 646 574 477 550 l 477 550 q 503 478 559 435 q 614 392 691 392 l 691 392 q 731 392 779 407 q 826 422 873 445 q 920 467 963 493 q 1006 519 1037 540 l 1037 540 l 989 86 q 950 56 905 35 q 859 14 810 1 q 761 -12 711 -18 q 661 -24 613 -24 l 613 -24 q 514 -24 432 3 q 350 30 284 79 q 217 127 167 193 q 117 259 84 337 q 51 415 34 502 q 17 589 17 678 l 17 678 q 17 771 34 864 q 51 957 86 1043 q 120 1129 173 1203 q 225 1276 295 1331 q 365 1386 454 1417 q 542 1448 649 1448 l 649 1448 q 738 1448 812 1424 q 885 1399 943 1356 q 1000 1312 1043 1252 q 1085 1192 1113 1121 q 1140 1049 1154 970 q 1167 890 1167 808 m 767 838 l 767 860 q 767 888 761 918 q 755 947 742 971 q 728 995 706 1011 q 684 1026 651 1026 l 651 1026 q 611 1026 581 1005 q 550 983 528 951 q 506 918 492 880 q 478 842 471 810 l 471 810 l 767 838 m 939 2002 l 1127 1762 q 1008 1697 895 1631 q 782 1564 669 1486 l 669 1486 l 541 1626 q 561 1650 589 1680 q 617 1709 649 1740 q 680 1771 714 1803 q 748 1834 780 1863 l 780 1863 q 856 1932 939 2002 l 939 2002"},"è":{"x_min":17,"x_max":1167,"ha":1181,"o":"m 1167 808 l 1167 808 q 1167 721 1155 634 l 1155 634 q 984 623 815 599 q 646 574 477 550 l 477 550 q 503 478 559 435 q 614 392 691 392 l 691 392 q 731 392 779 407 q 826 422 873 445 q 920 467 963 493 q 1006 519 1037 540 l 1037 540 l 989 86 q 950 56 905 35 q 859 14 810 1 q 761 -12 711 -18 q 661 -24 613 -24 l 613 -24 q 514 -24 432 3 q 350 30 284 79 q 217 127 167 193 q 117 259 84 337 q 51 415 34 502 q 17 589 17 678 l 17 678 q 17 771 34 864 q 51 957 86 1043 q 120 1129 173 1203 q 225 1276 295 1331 q 365 1386 454 1417 q 542 1448 649 1448 l 649 1448 q 738 1448 812 1424 q 885 1399 943 1356 q 1000 1312 1043 1252 q 1085 1192 1113 1121 q 1140 1049 1154 970 q 1167 890 1167 808 m 767 838 l 767 860 q 767 888 761 918 q 755 947 742 971 q 728 995 706 1011 q 684 1026 651 1026 l 651 1026 q 611 1026 581 1005 q 550 983 528 951 q 506 918 492 880 q 478 842 471 810 l 471 810 l 767 838 m 607 1594 l 473 1460 q 363 1543 253 1614 q 143 1685 27 1754 l 27 1754 l 225 1988 q 305 1913 378 1842 l 378 1842 q 409 1811 442 1778 q 474 1745 505 1713 q 535 1680 562 1650 q 588 1619 607 1594 l 607 1594"},"ê":{"x_min":17,"x_max":1167,"ha":1181,"o":"m 1167 808 l 1167 808 q 1167 721 1155 634 l 1155 634 q 984 623 815 599 q 646 574 477 550 l 477 550 q 503 478 559 435 q 614 392 691 392 l 691 392 q 731 392 779 407 q 826 422 873 445 q 920 467 963 493 q 1006 519 1037 540 l 1037 540 l 989 86 q 950 56 905 35 q 859 14 810 1 q 761 -12 711 -18 q 661 -24 613 -24 l 613 -24 q 514 -24 432 3 q 350 30 284 79 q 217 127 167 193 q 117 259 84 337 q 51 415 34 502 q 17 589 17 678 l 17 678 q 17 771 34 864 q 51 957 86 1043 q 120 1129 173 1203 q 225 1276 295 1331 q 365 1386 454 1417 q 542 1448 649 1448 l 649 1448 q 738 1448 812 1424 q 885 1399 943 1356 q 1000 1312 1043 1252 q 1085 1192 1113 1121 q 1140 1049 1154 970 q 1167 890 1167 808 m 767 838 l 767 860 q 767 888 761 918 q 755 947 742 971 q 728 995 706 1011 q 684 1026 651 1026 l 651 1026 q 611 1026 581 1005 q 550 983 528 951 q 506 918 492 880 q 478 842 471 810 l 471 810 l 767 838 m 947 1602 l 735 1472 l 579 1676 l 457 1482 l 237 1576 q 256 1607 284 1649 q 312 1690 343 1735 q 374 1779 406 1824 q 438 1868 467 1906 l 467 1906 l 673 1908 l 947 1602"},"ë":{"x_min":17,"x_max":1167,"ha":1181,"o":"m 1167 808 l 1167 808 q 1167 721 1155 634 l 1155 634 q 984 623 815 599 q 646 574 477 550 l 477 550 q 503 478 559 435 q 614 392 691 392 l 691 392 q 731 392 779 407 q 826 422 873 445 q 920 467 963 493 q 1006 519 1037 540 l 1037 540 l 989 86 q 950 56 905 35 q 859 14 810 1 q 761 -12 711 -18 q 661 -24 613 -24 l 613 -24 q 514 -24 432 3 q 350 30 284 79 q 217 127 167 193 q 117 259 84 337 q 51 415 34 502 q 17 589 17 678 l 17 678 q 17 771 34 864 q 51 957 86 1043 q 120 1129 173 1203 q 225 1276 295 1331 q 365 1386 454 1417 q 542 1448 649 1448 l 649 1448 q 738 1448 812 1424 q 885 1399 943 1356 q 1000 1312 1043 1252 q 1085 1192 1113 1121 q 1140 1049 1154 970 q 1167 890 1167 808 m 767 838 l 767 860 q 767 888 761 918 q 755 947 742 971 q 728 995 706 1011 q 684 1026 651 1026 l 651 1026 q 611 1026 581 1005 q 550 983 528 951 q 506 918 492 880 q 478 842 471 810 l 471 810 l 767 838 m 945 1640 l 945 1640 q 945 1609 934 1583 q 922 1556 902 1537 q 882 1517 855 1506 q 828 1494 797 1494 l 797 1494 q 768 1494 742 1506 q 715 1517 696 1537 q 676 1556 665 1583 q 653 1609 653 1640 l 653 1640 q 653 1670 665 1697 q 676 1723 696 1743 q 715 1763 742 1775 q 768 1786 797 1786 l 797 1786 q 828 1786 855 1775 q 882 1763 902 1743 q 922 1723 934 1697 q 945 1670 945 1640 m 555 1618 l 555 1618 q 555 1585 543 1556 q 530 1527 509 1505 q 487 1483 458 1471 q 429 1458 397 1458 l 397 1458 q 364 1458 335 1471 q 306 1483 285 1505 q 264 1527 252 1556 q 239 1585 239 1618 l 239 1618 q 239 1649 252 1677 q 264 1705 285 1727 q 306 1748 335 1761 q 364 1774 397 1774 l 397 1774 q 429 1774 458 1761 q 487 1748 509 1727 q 530 1705 543 1677 q 555 1649 555 1618"},"í":{"x_min":41,"x_max":805,"ha":602,"o":"m 41 1380 l 573 1408 l 503 46 l 81 24 l 41 1380 m 617 1952 l 805 1712 q 686 1647 573 1581 q 460 1514 347 1436 l 347 1436 l 219 1576 q 239 1600 267 1630 q 295 1659 327 1690 q 358 1721 392 1753 q 426 1784 458 1813 l 458 1813 q 534 1882 617 1952 l 617 1952"},"ì":{"x_min":-229,"x_max":573,"ha":602,"o":"m 41 1380 l 573 1408 l 503 46 l 81 24 l 41 1380 m 351 1560 l 217 1426 q 107 1509 -3 1580 q -113 1651 -229 1720 l -229 1720 l -31 1954 q 49 1879 122 1808 l 122 1808 q 153 1777 186 1744 q 218 1711 249 1679 q 279 1646 306 1616 q 332 1585 351 1560 l 351 1560"},"î":{"x_min":-47,"x_max":663,"ha":601,"o":"m 41 1380 l 573 1408 l 503 46 l 81 24 l 41 1380 m 663 1572 l 451 1442 l 295 1646 l 173 1452 l -47 1546 q -28 1577 0 1619 q 28 1660 59 1705 q 90 1749 122 1794 q 154 1838 183 1876 l 183 1876 l 389 1878 l 663 1572"},"ï":{"x_min":-45,"x_max":661,"ha":602,"o":"m 41 1380 l 573 1408 l 503 46 l 81 24 l 41 1380 m 661 1630 l 661 1630 q 661 1599 650 1573 q 638 1546 618 1527 q 598 1507 571 1496 q 544 1484 513 1484 l 513 1484 q 484 1484 458 1496 q 431 1507 412 1527 q 392 1546 381 1573 q 369 1599 369 1630 l 369 1630 q 369 1660 381 1687 q 392 1713 412 1733 q 431 1753 458 1765 q 484 1776 513 1776 l 513 1776 q 544 1776 571 1765 q 598 1753 618 1733 q 638 1713 650 1687 q 661 1660 661 1630 m 271 1608 l 271 1608 q 271 1575 259 1546 q 246 1517 225 1495 q 203 1473 174 1461 q 145 1448 113 1448 l 113 1448 q 80 1448 51 1461 q 22 1473 1 1495 q -20 1517 -32 1546 q -45 1575 -45 1608 l -45 1608 q -45 1639 -32 1667 q -20 1695 1 1717 q 22 1738 51 1751 q 80 1764 113 1764 l 113 1764 q 145 1764 174 1751 q 203 1738 225 1717 q 246 1695 259 1667 q 271 1639 271 1608"},"ñ":{"x_min":28,"x_max":1292,"ha":1335,"o":"m 1292 506 l 1292 506 q 1292 393 1290 283 q 1287 172 1282 60 l 1282 60 l 706 70 q 736 247 758 424 q 780 600 780 780 l 780 780 q 780 793 779 822 q 778 851 775 888 q 772 924 767 963 q 761 1001 752 1033 q 742 1065 729 1086 q 715 1106 696 1106 l 696 1106 q 662 1106 639 1086 q 615 1066 600 1035 q 584 1003 575 964 q 566 925 562 886 q 557 847 556 813 q 554 778 554 756 l 554 756 q 549 579 546 405 q 543 230 538 52 l 538 52 l 28 30 q 48 383 67 732 q 85 1081 96 1434 l 96 1434 l 568 1458 l 564 1298 q 592 1332 625 1362 q 657 1392 694 1414 q 731 1435 773 1448 q 814 1460 860 1460 l 860 1460 q 945 1460 1009 1432 q 1073 1404 1119 1356 q 1165 1308 1196 1243 q 1227 1177 1246 1103 q 1265 1029 1275 949 q 1285 868 1289 790 q 1292 712 1292 639 q 1292 566 1292 506 m 1060 1766 l 1060 1766 q 1060 1708 1039 1658 q 1018 1608 982 1571 q 945 1534 896 1513 q 846 1492 790 1492 l 790 1492 q 746 1492 715 1508 q 684 1524 663 1548 q 641 1572 626 1600 q 610 1628 597 1652 q 584 1676 571 1692 q 557 1708 540 1708 l 540 1708 q 529 1708 521 1702 q 513 1695 509 1686 q 504 1677 502 1666 q 500 1655 500 1646 l 500 1646 q 500 1616 508 1588 q 515 1559 526 1532 l 526 1532 l 282 1512 q 270 1554 265 1597 q 260 1639 260 1680 l 260 1680 q 260 1741 276 1794 q 292 1847 324 1886 q 355 1925 402 1948 q 448 1970 510 1970 l 510 1970 q 565 1970 601 1953 q 637 1936 661 1911 q 685 1886 699 1856 q 712 1826 723 1801 q 734 1776 744 1759 q 754 1742 770 1742 l 770 1742 q 790 1742 801 1760 q 812 1778 812 1796 l 812 1796 q 812 1826 800 1855 q 788 1883 774 1906 l 774 1906 l 1022 1946 q 1039 1902 1050 1858 q 1060 1813 1060 1766"},"ó":{"x_min":17,"x_max":1287,"ha":1306,"o":"m 1287 766 l 1287 766 q 1287 675 1266 591 q 1245 506 1206 432 q 1166 358 1110 297 q 1053 235 983 191 q 912 147 829 123 q 746 98 653 98 l 653 98 q 563 98 482 121 q 400 144 329 186 q 258 227 201 286 q 143 344 103 416 q 62 487 40 569 q 17 651 17 740 l 17 740 q 17 827 38 911 q 59 994 99 1068 q 138 1142 194 1204 q 250 1266 320 1311 q 389 1356 470 1381 q 551 1406 641 1406 l 641 1406 q 786 1406 906 1361 q 1025 1316 1110 1233 q 1194 1149 1241 1031 q 1287 912 1287 766 m 843 740 l 843 740 q 843 783 831 824 q 818 864 794 896 q 770 927 735 947 q 699 966 653 966 l 653 966 q 606 966 569 949 q 532 932 506 903 q 479 873 465 834 q 451 794 451 750 l 451 750 q 451 708 463 666 q 475 624 499 590 q 523 556 559 535 q 594 514 641 514 l 641 514 q 688 514 726 533 q 763 551 789 583 q 815 614 829 655 q 843 696 843 740 m 1017 1966 l 1205 1726 q 1086 1661 973 1595 q 860 1528 747 1450 l 747 1450 l 619 1590 q 639 1614 667 1644 q 695 1673 727 1704 q 758 1735 792 1767 q 826 1798 858 1827 l 858 1827 q 934 1896 1017 1966 l 1017 1966"},"ò":{"x_min":17,"x_max":1287,"ha":1306,"o":"m 1287 766 l 1287 766 q 1287 675 1266 591 q 1245 506 1206 432 q 1166 358 1110 297 q 1053 235 983 191 q 912 147 829 123 q 746 98 653 98 l 653 98 q 563 98 482 121 q 400 144 329 186 q 258 227 201 286 q 143 344 103 416 q 62 487 40 569 q 17 651 17 740 l 17 740 q 17 827 38 911 q 59 994 99 1068 q 138 1142 194 1204 q 250 1266 320 1311 q 389 1356 470 1381 q 551 1406 641 1406 l 641 1406 q 786 1406 906 1361 q 1025 1316 1110 1233 q 1194 1149 1241 1031 q 1287 912 1287 766 m 843 740 l 843 740 q 843 783 831 824 q 818 864 794 896 q 770 927 735 947 q 699 966 653 966 l 653 966 q 606 966 569 949 q 532 932 506 903 q 479 873 465 834 q 451 794 451 750 l 451 750 q 451 708 463 666 q 475 624 499 590 q 523 556 559 535 q 594 514 641 514 l 641 514 q 688 514 726 533 q 763 551 789 583 q 815 614 829 655 q 843 696 843 740 m 639 1564 l 505 1430 q 395 1513 285 1584 q 175 1655 59 1724 l 59 1724 l 257 1958 q 337 1883 410 1812 l 410 1812 q 441 1781 474 1748 q 506 1715 537 1683 q 567 1650 594 1620 q 620 1589 639 1564 l 639 1564"},"ô":{"x_min":17,"x_max":1287,"ha":1306,"o":"m 1287 766 l 1287 766 q 1287 675 1266 591 q 1245 506 1206 432 q 1166 358 1110 297 q 1053 235 983 191 q 912 147 829 123 q 746 98 653 98 l 653 98 q 563 98 482 121 q 400 144 329 186 q 258 227 201 286 q 143 344 103 416 q 62 487 40 569 q 17 651 17 740 l 17 740 q 17 827 38 911 q 59 994 99 1068 q 138 1142 194 1204 q 250 1266 320 1311 q 389 1356 470 1381 q 551 1406 641 1406 l 641 1406 q 786 1406 906 1361 q 1025 1316 1110 1233 q 1194 1149 1241 1031 q 1287 912 1287 766 m 843 740 l 843 740 q 843 783 831 824 q 818 864 794 896 q 770 927 735 947 q 699 966 653 966 l 653 966 q 606 966 569 949 q 532 932 506 903 q 479 873 465 834 q 451 794 451 750 l 451 750 q 451 708 463 666 q 475 624 499 590 q 523 556 559 535 q 594 514 641 514 l 641 514 q 688 514 726 533 q 763 551 789 583 q 815 614 829 655 q 843 696 843 740 m 1007 1566 l 795 1436 l 639 1640 l 517 1446 l 297 1540 q 316 1571 344 1613 q 372 1654 403 1699 q 434 1743 466 1788 q 498 1832 527 1870 l 527 1870 l 733 1872 l 1007 1566"},"ö":{"x_min":17,"x_max":1287,"ha":1306,"o":"m 1287 766 l 1287 766 q 1287 675 1266 591 q 1245 506 1206 432 q 1166 358 1110 297 q 1053 235 983 191 q 912 147 829 123 q 746 98 653 98 l 653 98 q 563 98 482 121 q 400 144 329 186 q 258 227 201 286 q 143 344 103 416 q 62 487 40 569 q 17 651 17 740 l 17 740 q 17 827 38 911 q 59 994 99 1068 q 138 1142 194 1204 q 250 1266 320 1311 q 389 1356 470 1381 q 551 1406 641 1406 l 641 1406 q 786 1406 906 1361 q 1025 1316 1110 1233 q 1194 1149 1241 1031 q 1287 912 1287 766 m 843 740 l 843 740 q 843 783 831 824 q 818 864 794 896 q 770 927 735 947 q 699 966 653 966 l 653 966 q 606 966 569 949 q 532 932 506 903 q 479 873 465 834 q 451 794 451 750 l 451 750 q 451 708 463 666 q 475 624 499 590 q 523 556 559 535 q 594 514 641 514 l 641 514 q 688 514 726 533 q 763 551 789 583 q 815 614 829 655 q 843 696 843 740 m 973 1616 l 973 1616 q 973 1585 962 1559 q 950 1532 930 1513 q 910 1493 883 1482 q 856 1470 825 1470 l 825 1470 q 796 1470 770 1482 q 743 1493 724 1513 q 704 1532 693 1559 q 681 1585 681 1616 l 681 1616 q 681 1646 693 1673 q 704 1699 724 1719 q 743 1739 770 1751 q 796 1762 825 1762 l 825 1762 q 856 1762 883 1751 q 910 1739 930 1719 q 950 1699 962 1673 q 973 1646 973 1616 m 583 1594 l 583 1594 q 583 1561 571 1532 q 558 1503 537 1481 q 515 1459 486 1447 q 457 1434 425 1434 l 425 1434 q 392 1434 363 1447 q 334 1459 313 1481 q 292 1503 280 1532 q 267 1561 267 1594 l 267 1594 q 267 1625 280 1653 q 292 1681 313 1703 q 334 1724 363 1737 q 392 1750 425 1750 l 425 1750 q 457 1750 486 1737 q 515 1724 537 1703 q 558 1681 571 1653 q 583 1625 583 1594"},"õ":{"x_min":17,"x_max":1287,"ha":1306,"o":"m 1287 766 l 1287 766 q 1287 675 1266 591 q 1245 506 1206 432 q 1166 358 1110 297 q 1053 235 983 191 q 912 147 829 123 q 746 98 653 98 l 653 98 q 563 98 482 121 q 400 144 329 186 q 258 227 201 286 q 143 344 103 416 q 62 487 40 569 q 17 651 17 740 l 17 740 q 17 827 38 911 q 59 994 99 1068 q 138 1142 194 1204 q 250 1266 320 1311 q 389 1356 470 1381 q 551 1406 641 1406 l 641 1406 q 786 1406 906 1361 q 1025 1316 1110 1233 q 1194 1149 1241 1031 q 1287 912 1287 766 m 843 740 l 843 740 q 843 783 831 824 q 818 864 794 896 q 770 927 735 947 q 699 966 653 966 l 653 966 q 606 966 569 949 q 532 932 506 903 q 479 873 465 834 q 451 794 451 750 l 451 750 q 451 708 463 666 q 475 624 499 590 q 523 556 559 535 q 594 514 641 514 l 641 514 q 688 514 726 533 q 763 551 789 583 q 815 614 829 655 q 843 696 843 740 m 1051 1714 l 1051 1714 q 1051 1656 1030 1606 q 1009 1556 973 1519 q 936 1482 887 1461 q 837 1440 781 1440 l 781 1440 q 737 1440 706 1456 q 675 1472 654 1496 q 632 1520 617 1548 q 601 1576 588 1600 q 575 1624 562 1640 q 548 1656 531 1656 l 531 1656 q 520 1656 512 1650 q 504 1643 500 1634 q 495 1625 493 1614 q 491 1603 491 1594 l 491 1594 q 491 1564 499 1536 q 506 1507 517 1480 l 517 1480 l 273 1460 q 261 1502 256 1545 q 251 1587 251 1628 l 251 1628 q 251 1689 267 1742 q 283 1795 315 1834 q 346 1873 393 1896 q 439 1918 501 1918 l 501 1918 q 556 1918 592 1901 q 628 1884 652 1859 q 676 1834 690 1804 q 703 1774 714 1749 q 725 1724 735 1707 q 745 1690 761 1690 l 761 1690 q 781 1690 792 1708 q 803 1726 803 1744 l 803 1744 q 803 1774 791 1803 q 779 1831 765 1854 l 765 1854 l 1013 1894 q 1030 1850 1041 1806 q 1051 1761 1051 1714"},"ú":{"x_min":35,"x_max":1243,"ha":1252,"o":"m 1243 1408 l 1243 1408 q 1198 1056 1166 708 q 1134 359 1105 6 l 1105 6 l 695 -24 l 713 130 q 693 107 667 90 q 640 73 610 63 q 580 52 548 48 q 516 43 487 44 l 487 44 q 419 45 359 71 q 299 96 249 139 q 199 181 159 238 q 119 294 92 357 q 64 419 50 484 q 35 549 35 610 l 35 610 q 35 700 39 797 q 42 893 51 990 q 60 1087 75 1182 q 89 1277 111 1364 l 111 1364 q 233 1358 356 1353 q 479 1348 601 1350 l 601 1350 q 578 1263 556 1176 q 533 1088 515 1000 q 497 911 486 822 q 475 733 475 642 l 475 642 q 475 621 477 582 q 479 543 488 505 q 496 467 514 439 q 531 410 563 410 l 563 410 q 601 410 631 443 q 661 475 684 530 q 707 585 724 657 q 740 729 752 808 q 763 886 770 966 q 777 1046 781 1117 q 784 1187 786 1243 q 787 1299 787 1330 l 787 1330 q 787 1350 786 1369 q 785 1388 783 1408 l 783 1408 q 848 1406 912 1405 q 976 1404 1041 1404 l 1041 1404 q 1091 1404 1142 1405 q 1192 1405 1243 1408 m 977 1924 l 1165 1684 q 1046 1619 933 1553 q 820 1486 707 1408 l 707 1408 l 579 1548 q 599 1572 627 1602 q 655 1631 687 1662 q 718 1693 752 1725 q 786 1756 818 1785 l 818 1785 q 894 1854 977 1924 l 977 1924"},"ù":{"x_min":35,"x_max":1243,"ha":1252,"o":"m 1243 1408 l 1243 1408 q 1198 1056 1166 708 q 1134 359 1105 6 l 1105 6 l 695 -24 l 713 130 q 693 107 667 90 q 640 73 610 63 q 580 52 548 48 q 516 43 487 44 l 487 44 q 419 45 359 71 q 299 96 249 139 q 199 181 159 238 q 119 294 92 357 q 64 419 50 484 q 35 549 35 610 l 35 610 q 35 700 39 797 q 42 893 51 990 q 60 1087 75 1182 q 89 1277 111 1364 l 111 1364 q 233 1358 356 1353 q 479 1348 601 1350 l 601 1350 q 578 1263 556 1176 q 533 1088 515 1000 q 497 911 486 822 q 475 733 475 642 l 475 642 q 475 621 477 582 q 479 543 488 505 q 496 467 514 439 q 531 410 563 410 l 563 410 q 601 410 631 443 q 661 475 684 530 q 707 585 724 657 q 740 729 752 808 q 763 886 770 966 q 777 1046 781 1117 q 784 1187 786 1243 q 787 1299 787 1330 l 787 1330 q 787 1350 786 1369 q 785 1388 783 1408 l 783 1408 q 848 1406 912 1405 q 976 1404 1041 1404 l 1041 1404 q 1091 1404 1142 1405 q 1192 1405 1243 1408 m 789 1504 l 655 1370 q 545 1453 435 1524 q 325 1595 209 1664 l 209 1664 l 407 1898 q 487 1823 560 1752 l 560 1752 q 591 1721 624 1688 q 656 1655 687 1623 q 717 1590 744 1560 q 770 1529 789 1504 l 789 1504"},"û":{"x_min":35,"x_max":1243,"ha":1252,"o":"m 1243 1408 l 1243 1408 q 1198 1056 1166 708 q 1134 359 1105 6 l 1105 6 l 695 -24 l 713 130 q 693 107 667 90 q 640 73 610 63 q 580 52 548 48 q 516 43 487 44 l 487 44 q 419 45 359 71 q 299 96 249 139 q 199 181 159 238 q 119 294 92 357 q 64 419 50 484 q 35 549 35 610 l 35 610 q 35 700 39 797 q 42 893 51 990 q 60 1087 75 1182 q 89 1277 111 1364 l 111 1364 q 233 1358 356 1353 q 479 1348 601 1350 l 601 1350 q 578 1263 556 1176 q 533 1088 515 1000 q 497 911 486 822 q 475 733 475 642 l 475 642 q 475 621 477 582 q 479 543 488 505 q 496 467 514 439 q 531 410 563 410 l 563 410 q 601 410 631 443 q 661 475 684 530 q 707 585 724 657 q 740 729 752 808 q 763 886 770 966 q 777 1046 781 1117 q 784 1187 786 1243 q 787 1299 787 1330 l 787 1330 q 787 1350 786 1369 q 785 1388 783 1408 l 783 1408 q 848 1406 912 1405 q 976 1404 1041 1404 l 1041 1404 q 1091 1404 1142 1405 q 1192 1405 1243 1408 m 993 1570 l 781 1440 l 625 1644 l 503 1450 l 283 1544 q 302 1575 330 1617 q 358 1658 389 1703 q 420 1747 452 1792 q 484 1836 513 1874 l 513 1874 l 719 1876 l 993 1570"},"ü":{"x_min":35,"x_max":1243,"ha":1252,"o":"m 1243 1408 l 1243 1408 q 1198 1056 1166 708 q 1134 359 1105 6 l 1105 6 l 695 -24 l 713 130 q 693 107 667 90 q 640 73 610 63 q 580 52 548 48 q 516 43 487 44 l 487 44 q 419 45 359 71 q 299 96 249 139 q 199 181 159 238 q 119 294 92 357 q 64 419 50 484 q 35 549 35 610 l 35 610 q 35 700 39 797 q 42 893 51 990 q 60 1087 75 1182 q 89 1277 111 1364 l 111 1364 q 233 1358 356 1353 q 479 1348 601 1350 l 601 1350 q 578 1263 556 1176 q 533 1088 515 1000 q 497 911 486 822 q 475 733 475 642 l 475 642 q 475 621 477 582 q 479 543 488 505 q 496 467 514 439 q 531 410 563 410 l 563 410 q 601 410 631 443 q 661 475 684 530 q 707 585 724 657 q 740 729 752 808 q 763 886 770 966 q 777 1046 781 1117 q 784 1187 786 1243 q 787 1299 787 1330 l 787 1330 q 787 1350 786 1369 q 785 1388 783 1408 l 783 1408 q 848 1406 912 1405 q 976 1404 1041 1404 l 1041 1404 q 1091 1404 1142 1405 q 1192 1405 1243 1408 m 991 1610 l 991 1610 q 991 1579 980 1553 q 968 1526 948 1507 q 928 1487 901 1476 q 874 1464 843 1464 l 843 1464 q 814 1464 788 1476 q 761 1487 742 1507 q 722 1526 711 1553 q 699 1579 699 1610 l 699 1610 q 699 1640 711 1667 q 722 1693 742 1713 q 761 1733 788 1745 q 814 1756 843 1756 l 843 1756 q 874 1756 901 1745 q 928 1733 948 1713 q 968 1693 980 1667 q 991 1640 991 1610 m 601 1588 l 601 1588 q 601 1555 589 1526 q 576 1497 555 1475 q 533 1453 504 1441 q 475 1428 443 1428 l 443 1428 q 410 1428 381 1441 q 352 1453 331 1475 q 310 1497 298 1526 q 285 1555 285 1588 l 285 1588 q 285 1619 298 1647 q 310 1675 331 1697 q 352 1718 381 1731 q 410 1744 443 1744 l 443 1744 q 475 1744 504 1731 q 533 1718 555 1697 q 576 1675 589 1647 q 601 1619 601 1588"},"ȷ":{"x_min":-14,"x_max":1006,"ha":1044,"o":"m 1006 824 l 1006 824 q 1006 765 1006 707 q 1006 649 1000 590 l 1000 590 q 989 465 946 354 q 903 242 830 158 q 756 74 651 25 q 546 -24 410 -24 l 410 -24 q 357 -24 300 -15 q 242 -6 186 12 q 129 30 78 57 q 26 83 -14 118 l -14 118 l 48 532 q 107 475 179 440 q 251 404 336 404 l 336 404 q 391 404 429 420 q 467 436 492 464 q 517 492 532 530 q 546 567 553 610 q 559 652 561 697 q 562 742 562 786 l 562 786 q 562 945 546 1103 q 530 1260 518 1418 l 518 1418 l 976 1448 q 1006 1136 1006 824"},"¤":{"x_min":25,"x_max":851,"ha":876,"o":"m 515 709 l 515 709 q 515 731 509 752 q 502 772 491 788 q 480 803 465 812 q 449 821 431 821 l 431 821 q 413 821 397 812 q 381 803 369 788 q 357 772 350 752 q 343 731 343 709 l 343 709 q 343 685 350 664 q 357 643 369 628 q 381 613 397 604 q 413 595 431 595 l 431 595 q 467 595 491 628 q 515 661 515 709 m 247 306 l 25 532 l 126 634 q 115 675 115 715 l 115 715 q 115 738 119 760 q 122 781 128 801 l 128 801 l 35 898 l 245 1114 l 363 1002 q 376 1004 389 1006 q 401 1007 415 1007 l 415 1007 q 433 1007 451 1005 q 468 1003 485 999 l 485 999 l 595 1108 l 837 912 l 712 784 q 721 751 721 715 l 721 715 q 721 695 718 674 l 718 674 l 851 550 l 611 306 l 493 427 q 456 419 421 419 l 421 419 q 406 419 391 421 q 376 422 362 424 l 362 424 l 247 306"},"­":{"x_min":65,"x_max":715,"ha":783,"o":"m 715 540 l 69 552 l 65 852 l 711 882 l 715 540"},"̒":{"x_min":9,"x_max":304,"ha":311,"o":"m 10 1140 l 10 1145 q 10 1178 24 1218 q 38 1257 63 1296 q 88 1335 124 1370 q 159 1404 203 1427 l 203 1427 q 204 1399 205 1373 l 205 1373 q 206 1350 207 1324 q 208 1298 210 1278 l 210 1278 q 253 1262 279 1224 q 304 1186 304 1140 l 304 1140 q 304 1110 293 1084 q 281 1057 261 1037 q 241 1017 214 1005 q 187 993 157 993 l 157 993 q 127 993 100 1005 q 73 1017 53 1037 q 32 1057 21 1084 q 9 1110 10 1140 l 10 1140"},"̕":{"x_min":7,"x_max":301,"ha":308,"o":"m 301 1288 l 301 1283 q 301 1250 287 1211 q 273 1171 248 1132 q 223 1093 188 1059 q 152 1024 108 1001 l 108 1001 q 108 1001 108 1017 q 107 1033 106 1056 q 105 1078 104 1104 q 102 1130 101 1150 l 101 1150 q 57 1166 32 1204 q 7 1242 7 1288 l 7 1288 q 7 1318 19 1345 q 30 1371 50 1391 q 70 1411 97 1423 q 124 1435 154 1435 l 154 1435 q 184 1435 211 1423 q 238 1411 258 1391 q 278 1371 290 1345 q 301 1318 301 1288 l 301 1288"},"̦":{"x_min":14,"x_max":308,"ha":323,"o":"m 308 -236 l 308 -241 q 308 -274 294 -313 q 280 -353 255 -392 q 230 -431 195 -465 q 159 -500 115 -523 l 115 -523 q 115 -523 115 -507 q 114 -491 113 -468 q 112 -446 111 -420 q 109 -394 108 -374 l 108 -374 q 64 -358 39 -320 q 14 -282 14 -236 l 14 -236 q 14 -206 26 -179 q 37 -153 57 -133 q 77 -113 104 -101 q 131 -89 161 -89 l 161 -89 q 191 -89 218 -101 q 245 -113 265 -133 q 285 -153 297 -179 q 308 -206 308 -236 l 308 -236"},"Ǽ":{"x_min":-50,"x_max":1736,"ha":1719,"o":"m 670 554 l 820 554 l 830 902 l 670 554 m 678 1404 l 1736 1442 q 1730 1348 1725 1256 q 1720 1164 1712 1070 l 1712 1070 l 1288 1048 l 1278 922 l 1576 922 l 1554 612 l 1254 602 l 1244 456 l 1668 456 q 1662 346 1656 238 q 1649 129 1644 20 l 1644 20 l 782 0 l 790 248 l 546 248 l 446 22 l -50 72 l 678 1404 m 1336 1976 l 1524 1736 q 1405 1671 1292 1605 q 1179 1538 1066 1460 l 1066 1460 l 938 1600 q 958 1624 986 1654 q 1014 1683 1046 1714 q 1077 1745 1111 1777 q 1145 1808 1177 1837 l 1177 1837 q 1253 1906 1336 1976 l 1336 1976"},"ǽ":{"x_min":-32,"x_max":1866,"ha":1880,"o":"m 1866 808 l 1866 808 q 1866 721 1854 634 l 1854 634 q 1683 623 1515 599 q 1346 574 1178 550 l 1178 550 l 1184 528 q 1211 465 1265 429 q 1319 392 1390 392 l 1390 392 q 1430 392 1478 407 q 1525 422 1572 445 q 1619 467 1662 493 q 1705 519 1736 540 l 1736 540 l 1688 86 q 1649 56 1604 35 q 1558 14 1509 1 q 1460 -12 1410 -18 q 1360 -24 1312 -24 l 1312 -24 q 1208 -24 1116 0 q 1024 24 952 63 q 880 101 832 150 q 784 198 770 248 l 770 248 l 532 248 l 478 22 l -32 72 l 366 1404 l 922 1432 l 960 1302 q 1034 1370 1130 1409 q 1226 1448 1348 1448 l 1348 1448 q 1437 1448 1511 1424 q 1584 1399 1642 1356 q 1699 1312 1742 1252 q 1784 1192 1812 1121 q 1839 1049 1853 970 q 1866 890 1866 808 m 1466 838 l 1466 860 q 1466 888 1460 918 q 1454 947 1441 971 q 1427 995 1405 1011 q 1383 1026 1350 1026 l 1350 1026 q 1310 1026 1280 1005 q 1249 983 1227 951 q 1205 918 1191 880 q 1177 842 1170 810 l 1170 810 l 1466 838 m 570 554 l 720 554 l 644 902 l 570 554 m 1282 1956 l 1470 1716 q 1351 1651 1238 1585 q 1125 1518 1012 1440 l 1012 1440 l 884 1580 q 904 1604 932 1634 q 960 1663 992 1694 q 1023 1725 1057 1757 q 1091 1788 1123 1817 l 1123 1817 q 1199 1886 1282 1956 l 1282 1956"},"Ā":{"x_min":-32,"x_max":1312,"ha":1282,"o":"m 922 1432 l 1312 86 l 816 22 l 756 248 l 528 248 l 478 22 l -32 72 l 366 1404 l 922 1432 m 570 554 l 720 554 l 644 902 l 570 554 m 968 1754 l 964 1496 l 332 1504 l 314 1742 l 968 1754"},"ā":{"x_min":-32,"x_max":1312,"ha":1282,"o":"m 922 1432 l 1312 86 l 816 22 l 756 248 l 528 248 l 478 22 l -32 72 l 366 1404 l 922 1432 m 570 554 l 720 554 l 644 902 l 570 554 m 968 1750 l 964 1492 l 332 1500 l 314 1738 l 968 1750"},"Ă":{"x_min":-32,"x_max":1312,"ha":1282,"o":"m 922 1432 l 1312 86 l 816 22 l 756 248 l 528 248 l 478 22 l -32 72 l 366 1404 l 922 1432 m 570 554 l 720 554 l 644 902 l 570 554 m 938 1766 l 938 1766 q 938 1702 915 1648 q 891 1593 851 1553 q 810 1513 755 1491 q 700 1468 638 1468 l 638 1468 q 566 1468 511 1490 q 456 1512 419 1553 q 382 1593 363 1651 q 344 1709 344 1782 l 344 1782 q 344 1793 344 1805 q 344 1817 346 1828 l 346 1828 l 578 1798 q 577 1782 579 1762 q 581 1741 589 1723 q 596 1704 610 1691 q 623 1678 646 1678 l 646 1678 q 660 1678 670 1686 q 679 1693 685 1705 q 691 1717 694 1731 q 696 1744 696 1756 l 696 1756 q 696 1785 690 1811 q 683 1837 674 1864 l 674 1864 l 916 1908 q 925 1875 932 1839 q 938 1802 938 1766"},"ă":{"x_min":-32,"x_max":1312,"ha":1282,"o":"m 922 1432 l 1312 86 l 816 22 l 756 248 l 528 248 l 478 22 l -32 72 l 366 1404 l 922 1432 m 570 554 l 720 554 l 644 902 l 570 554 m 938 1762 l 938 1762 q 938 1698 915 1644 q 891 1589 851 1549 q 810 1509 755 1487 q 700 1464 638 1464 l 638 1464 q 566 1464 511 1486 q 456 1508 419 1549 q 382 1589 363 1647 q 344 1705 344 1778 l 344 1778 q 344 1789 344 1801 q 344 1813 346 1824 l 346 1824 l 578 1794 q 577 1778 579 1758 q 581 1737 589 1719 q 596 1700 610 1687 q 623 1674 646 1674 l 646 1674 q 660 1674 670 1682 q 679 1689 685 1701 q 691 1713 694 1727 q 696 1740 696 1752 l 696 1752 q 696 1781 690 1807 q 683 1833 674 1860 l 674 1860 l 916 1904 q 925 1871 932 1835 q 938 1798 938 1762"},"Ą":{"x_min":-32,"x_max":1312,"ha":1282,"o":"m 1191 -93 l 1289 -235 q 1245 -277 1190 -308 q 1135 -339 1073 -339 l 1073 -339 q 1027 -339 987 -323 q 946 -308 916 -280 q 885 -253 867 -214 q 849 -176 849 -129 l 849 -129 q 849 -83 866 -42 q 883 -2 910 34 l 910 34 l 816 22 l 756 248 l 528 248 l 478 22 l -32 72 l 366 1404 l 922 1432 l 1312 86 l 1161 66 q 1145 46 1128 23 q 1111 0 1098 -22 q 1084 -44 1076 -64 q 1067 -84 1067 -99 l 1067 -99 q 1067 -117 1080 -129 q 1093 -141 1111 -141 l 1111 -141 q 1131 -141 1155 -125 q 1179 -110 1191 -93 l 1191 -93 m 570 554 l 720 554 l 644 902 l 570 554"},"ą":{"x_min":-32,"x_max":1312,"ha":1282,"o":"m 1186 -99 l 1284 -241 q 1240 -283 1185 -314 q 1130 -345 1068 -345 l 1068 -345 q 1022 -345 982 -329 q 941 -314 911 -286 q 880 -259 862 -220 q 844 -182 844 -135 l 844 -135 q 844 -87 862 -45 q 880 -3 909 34 l 909 34 l 816 22 l 756 248 l 528 248 l 478 22 l -32 72 l 366 1404 l 922 1432 l 1312 86 l 1161 66 q 1145 45 1128 22 q 1110 -2 1096 -25 q 1081 -48 1072 -69 q 1062 -90 1062 -105 l 1062 -105 q 1062 -123 1075 -135 q 1088 -147 1106 -147 l 1106 -147 q 1126 -147 1150 -131 q 1174 -116 1186 -99 l 1186 -99 m 570 554 l 720 554 l 644 902 l 570 554"},"Ć":{"x_min":14,"x_max":1042,"ha":1054,"o":"m 1042 1406 l 1042 1406 l 986 984 q 957 992 928 995 q 899 998 870 998 l 870 998 q 796 998 729 979 q 662 959 611 919 q 559 879 529 819 q 498 759 498 678 l 498 678 q 498 626 515 588 q 531 550 561 525 q 591 500 632 488 q 673 476 722 476 l 722 476 q 759 476 799 484 q 839 492 878 505 q 917 518 954 535 q 991 552 1022 570 l 1022 570 l 982 100 q 943 80 898 65 q 852 49 804 38 q 756 26 708 20 q 660 14 616 14 l 616 14 q 489 14 379 61 q 269 108 188 190 q 107 272 61 384 q 14 495 14 624 l 14 624 q 14 795 63 947 q 112 1098 207 1212 q 302 1326 443 1392 q 583 1458 766 1458 l 766 1458 q 835 1458 908 1447 q 980 1436 1042 1406 m 800 1994 l 988 1754 q 869 1689 756 1623 q 643 1556 530 1478 l 530 1478 l 402 1618 q 422 1642 450 1672 q 478 1701 510 1732 q 541 1763 575 1795 q 609 1826 641 1855 l 641 1855 q 717 1924 800 1994 l 800 1994"},"ć":{"x_min":15,"x_max":1027,"ha":1050,"o":"m 1005 1366 l 1005 1366 l 969 944 q 940 952 912 955 q 884 958 855 958 l 855 958 q 784 958 720 940 q 655 922 606 885 q 556 848 527 792 q 497 735 497 658 l 497 658 q 497 602 514 561 q 530 519 561 492 q 591 464 635 450 q 678 436 731 436 l 731 436 q 768 436 807 444 q 846 451 885 464 q 924 477 960 494 q 996 511 1027 530 l 1027 530 l 1011 60 q 972 40 927 25 q 882 9 835 -2 q 787 -14 740 -20 q 692 -26 649 -26 l 649 -26 q 507 -26 391 27 q 274 80 191 172 q 107 263 61 384 q 15 505 15 642 l 15 642 q 15 806 62 948 q 108 1090 199 1195 q 289 1299 423 1359 q 556 1418 729 1418 l 729 1418 q 798 1418 869 1407 q 940 1396 1005 1366 m 800 1964 l 988 1724 q 869 1659 756 1593 q 643 1526 530 1448 l 530 1448 l 402 1588 q 422 1612 450 1642 q 478 1671 510 1702 q 541 1733 575 1765 q 609 1796 641 1825 l 641 1825 q 717 1894 800 1964 l 800 1964"},"Ĉ":{"x_min":14,"x_max":1042,"ha":1054,"o":"m 1042 1406 l 1042 1406 l 986 984 q 957 992 928 995 q 899 998 870 998 l 870 998 q 796 998 729 979 q 662 959 611 919 q 559 879 529 819 q 498 759 498 678 l 498 678 q 498 626 515 588 q 531 550 561 525 q 591 500 632 488 q 673 476 722 476 l 722 476 q 759 476 799 484 q 839 492 878 505 q 917 518 954 535 q 991 552 1022 570 l 1022 570 l 982 100 q 943 80 898 65 q 852 49 804 38 q 756 26 708 20 q 660 14 616 14 l 616 14 q 489 14 379 61 q 269 108 188 190 q 107 272 61 384 q 14 495 14 624 l 14 624 q 14 795 63 947 q 112 1098 207 1212 q 302 1326 443 1392 q 583 1458 766 1458 l 766 1458 q 835 1458 908 1447 q 980 1436 1042 1406 m 886 1613 l 674 1483 l 518 1687 l 396 1493 l 176 1587 q 195 1618 223 1660 q 251 1701 282 1746 q 313 1790 345 1835 q 377 1879 406 1917 l 406 1917 l 612 1919 l 886 1613"},"ĉ":{"x_min":15,"x_max":1027,"ha":1050,"o":"m 1005 1366 l 1005 1366 l 969 944 q 940 952 912 955 q 884 958 855 958 l 855 958 q 784 958 720 940 q 655 922 606 885 q 556 848 527 792 q 497 735 497 658 l 497 658 q 497 602 514 561 q 530 519 561 492 q 591 464 635 450 q 678 436 731 436 l 731 436 q 768 436 807 444 q 846 451 885 464 q 924 477 960 494 q 996 511 1027 530 l 1027 530 l 1011 60 q 972 40 927 25 q 882 9 835 -2 q 787 -14 740 -20 q 692 -26 649 -26 l 649 -26 q 507 -26 391 27 q 274 80 191 172 q 107 263 61 384 q 15 505 15 642 l 15 642 q 15 806 62 948 q 108 1090 199 1195 q 289 1299 423 1359 q 556 1418 729 1418 l 729 1418 q 798 1418 869 1407 q 940 1396 1005 1366 m 886 1583 l 674 1453 l 518 1657 l 396 1463 l 176 1557 q 195 1588 223 1630 q 251 1671 282 1716 q 313 1760 345 1805 q 377 1849 406 1887 l 406 1887 l 612 1889 l 886 1583"},"Ċ":{"x_min":14,"x_max":1042,"ha":1054,"o":"m 1042 1406 l 1042 1406 l 986 984 q 957 992 928 995 q 899 998 870 998 l 870 998 q 796 998 729 979 q 662 959 611 919 q 559 879 529 819 q 498 759 498 678 l 498 678 q 498 626 515 588 q 531 550 561 525 q 591 500 632 488 q 673 476 722 476 l 722 476 q 759 476 799 484 q 839 492 878 505 q 917 518 954 535 q 991 552 1022 570 l 1022 570 l 982 100 q 943 80 898 65 q 852 49 804 38 q 756 26 708 20 q 660 14 616 14 l 616 14 q 489 14 379 61 q 269 108 188 190 q 107 272 61 384 q 14 495 14 624 l 14 624 q 14 795 63 947 q 112 1098 207 1212 q 302 1326 443 1392 q 583 1458 766 1458 l 766 1458 q 835 1458 908 1447 q 980 1436 1042 1406 m 727 1677 l 727 1677 q 727 1636 712 1601 q 696 1566 669 1540 q 642 1513 606 1498 q 570 1483 529 1483 l 529 1483 q 485 1483 448 1498 q 411 1513 384 1540 q 357 1566 342 1601 q 327 1636 327 1677 l 327 1677 q 327 1717 342 1753 q 357 1789 384 1816 q 410 1842 446 1858 q 482 1873 523 1873 l 523 1873 q 566 1873 604 1858 q 641 1842 669 1816 q 696 1789 712 1753 q 727 1717 727 1677"},"ċ":{"x_min":15,"x_max":1027,"ha":1050,"o":"m 1005 1366 l 1005 1366 l 969 944 q 940 952 912 955 q 884 958 855 958 l 855 958 q 784 958 720 940 q 655 922 606 885 q 556 848 527 792 q 497 735 497 658 l 497 658 q 497 602 514 561 q 530 519 561 492 q 591 464 635 450 q 678 436 731 436 l 731 436 q 768 436 807 444 q 846 451 885 464 q 924 477 960 494 q 996 511 1027 530 l 1027 530 l 1011 60 q 972 40 927 25 q 882 9 835 -2 q 787 -14 740 -20 q 692 -26 649 -26 l 649 -26 q 507 -26 391 27 q 274 80 191 172 q 107 263 61 384 q 15 505 15 642 l 15 642 q 15 806 62 948 q 108 1090 199 1195 q 289 1299 423 1359 q 556 1418 729 1418 l 729 1418 q 798 1418 869 1407 q 940 1396 1005 1366 m 727 1637 l 727 1637 q 727 1596 712 1561 q 696 1526 669 1500 q 642 1473 606 1458 q 570 1443 529 1443 l 529 1443 q 485 1443 448 1458 q 411 1473 384 1500 q 357 1526 342 1561 q 327 1596 327 1637 l 327 1637 q 327 1677 342 1713 q 357 1749 384 1776 q 410 1802 446 1818 q 482 1833 523 1833 l 523 1833 q 566 1833 604 1818 q 641 1802 669 1776 q 696 1749 712 1713 q 727 1677 727 1637"},"Č":{"x_min":14,"x_max":1042,"ha":1054,"o":"m 1042 1406 l 1042 1406 l 986 984 q 957 992 928 995 q 899 998 870 998 l 870 998 q 796 998 729 979 q 662 959 611 919 q 559 879 529 819 q 498 759 498 678 l 498 678 q 498 626 515 588 q 531 550 561 525 q 591 500 632 488 q 673 476 722 476 l 722 476 q 759 476 799 484 q 839 492 878 505 q 917 518 954 535 q 991 552 1022 570 l 1022 570 l 982 100 q 943 80 898 65 q 852 49 804 38 q 756 26 708 20 q 660 14 616 14 l 616 14 q 489 14 379 61 q 269 108 188 190 q 107 272 61 384 q 14 495 14 624 l 14 624 q 14 795 63 947 q 112 1098 207 1212 q 302 1326 443 1392 q 583 1458 766 1458 l 766 1458 q 835 1458 908 1447 q 980 1436 1042 1406 m 662 1922 l 882 1826 q 863 1795 836 1756 q 809 1716 779 1673 q 749 1630 718 1587 q 686 1543 658 1506 l 658 1506 l 462 1478 l 172 1796 l 384 1930 l 540 1726 l 662 1922"},"č":{"x_min":15,"x_max":1027,"ha":1050,"o":"m 1005 1366 l 1005 1366 l 969 944 q 940 952 912 955 q 884 958 855 958 l 855 958 q 784 958 720 940 q 655 922 606 885 q 556 848 527 792 q 497 735 497 658 l 497 658 q 497 602 514 561 q 530 519 561 492 q 591 464 635 450 q 678 436 731 436 l 731 436 q 768 436 807 444 q 846 451 885 464 q 924 477 960 494 q 996 511 1027 530 l 1027 530 l 1011 60 q 972 40 927 25 q 882 9 835 -2 q 787 -14 740 -20 q 692 -26 649 -26 l 649 -26 q 507 -26 391 27 q 274 80 191 172 q 107 263 61 384 q 15 505 15 642 l 15 642 q 15 806 62 948 q 108 1090 199 1195 q 289 1299 423 1359 q 556 1418 729 1418 l 729 1418 q 798 1418 869 1407 q 940 1396 1005 1366 m 660 1889 l 880 1793 q 861 1762 834 1723 q 807 1683 777 1640 q 747 1597 716 1554 q 684 1510 656 1473 l 656 1473 l 460 1445 l 170 1763 l 382 1897 l 538 1693 l 660 1889"},"Ď":{"x_min":44,"x_max":1184,"ha":1193,"o":"m 1184 794 l 1184 794 q 1184 654 1148 542 q 1112 429 1048 342 q 983 254 894 191 q 805 128 699 88 q 593 47 474 28 q 354 8 228 8 l 228 8 q 181 8 136 11 q 91 13 44 18 l 44 18 l 72 1360 q 182 1395 299 1410 q 415 1424 530 1424 l 530 1424 q 673 1424 793 1381 q 913 1338 1000 1257 q 1087 1176 1136 1059 q 1184 942 1184 794 m 774 716 l 774 730 q 775 784 763 834 q 750 884 722 923 q 693 961 649 985 q 605 1008 544 1010 l 544 1010 l 504 390 q 564 399 613 430 q 662 460 698 505 q 733 549 753 604 q 772 658 774 716 l 774 716 m 708 1922 l 928 1826 q 909 1795 882 1756 q 855 1716 825 1673 q 795 1630 764 1587 q 732 1543 704 1506 l 704 1506 l 508 1478 l 218 1796 l 430 1930 l 586 1726 l 708 1922"},"ď":{"x_min":44,"x_max":1184,"ha":1193,"o":"m 1184 794 l 1184 794 q 1184 654 1148 543 q 1112 432 1048 347 q 983 261 894 201 q 805 141 699 103 q 593 64 474 46 q 354 28 228 28 l 228 28 q 181 28 136 31 q 91 33 44 38 l 44 38 l 72 1340 q 182 1375 299 1390 q 415 1404 530 1404 l 530 1404 q 673 1404 793 1364 q 913 1324 1000 1247 q 1087 1169 1136 1056 q 1184 942 1184 794 m 544 990 l 504 410 q 564 419 614 447 q 663 474 699 515 q 735 555 755 607 q 774 658 774 716 l 774 716 q 774 773 762 823 q 750 872 723 909 q 696 945 652 967 q 608 988 544 990 l 544 990 m 708 1892 l 928 1796 q 909 1765 882 1726 q 855 1686 825 1643 q 795 1600 764 1557 q 732 1513 704 1476 l 704 1476 l 508 1448 l 218 1766 l 430 1900 l 586 1696 l 708 1892"},"Đ":{"x_min":-29,"x_max":1253,"ha":1262,"o":"m -29 780 l 127 776 l 141 1360 q 251 1395 368 1410 q 484 1424 599 1424 l 599 1424 q 742 1424 862 1381 q 982 1338 1069 1257 q 1156 1176 1205 1059 q 1253 942 1253 794 l 1253 794 q 1253 654 1217 542 q 1181 429 1117 342 q 1052 254 963 191 q 874 128 768 88 q 662 47 542 28 q 422 8 297 8 l 297 8 q 250 8 205 11 q 160 13 113 18 l 113 18 l 125 604 l -25 598 l -29 780 m 843 716 l 843 730 q 844 784 832 834 q 819 884 791 923 q 762 961 718 985 q 674 1008 613 1010 l 613 1010 l 597 770 l 697 768 l 701 628 l 591 622 l 573 390 q 633 399 682 430 q 731 460 767 505 q 802 549 822 604 q 841 658 843 716 l 843 716"},"đ":{"x_min":-29,"x_max":1253,"ha":1262,"o":"m -29 780 l 127 776 l 141 1360 q 251 1395 368 1410 q 484 1424 599 1424 l 599 1424 q 742 1424 862 1381 q 982 1338 1069 1257 q 1156 1176 1205 1059 q 1253 942 1253 794 l 1253 794 q 1253 654 1217 542 q 1181 429 1117 342 q 1052 254 963 191 q 874 128 768 88 q 662 47 542 28 q 422 8 297 8 l 297 8 q 250 8 205 11 q 160 13 113 18 l 113 18 l 125 604 l -25 598 l -29 780 m 843 716 l 843 730 q 844 784 832 834 q 819 884 791 923 q 762 961 718 985 q 674 1008 613 1010 l 613 1010 l 597 770 l 697 768 l 701 628 l 591 622 l 573 390 q 633 399 682 430 q 731 460 767 505 q 802 549 822 604 q 841 658 843 716 l 843 716"},"Ē":{"x_min":44,"x_max":998,"ha":981,"o":"m 76 1442 l 998 1442 q 992 1348 987 1256 q 982 1164 974 1070 l 974 1070 l 550 1048 l 540 922 l 838 922 l 816 612 l 516 602 l 506 456 l 754 456 l 930 456 q 924 346 918 238 q 911 129 906 20 l 906 20 l 44 0 l 76 1442 m 817 1774 l 813 1516 l 181 1524 l 163 1762 l 817 1774"},"ē":{"x_min":17,"x_max":1167,"ha":1181,"o":"m 1167 808 l 1167 808 q 1167 721 1155 634 l 1155 634 q 984 623 815 599 q 646 574 477 550 l 477 550 q 503 478 559 435 q 614 392 691 392 l 691 392 q 731 392 779 407 q 826 422 873 445 q 920 467 963 493 q 1006 519 1037 540 l 1037 540 l 989 86 q 950 56 905 35 q 859 14 810 1 q 761 -12 711 -18 q 661 -24 613 -24 l 613 -24 q 514 -24 432 3 q 350 30 284 79 q 217 127 167 193 q 117 259 84 337 q 51 415 34 502 q 17 589 17 678 l 17 678 q 17 771 34 864 q 51 957 86 1043 q 120 1129 173 1203 q 225 1276 295 1331 q 365 1386 454 1417 q 542 1448 649 1448 l 649 1448 q 738 1448 812 1424 q 885 1399 943 1356 q 1000 1312 1043 1252 q 1085 1192 1113 1121 q 1140 1049 1154 970 q 1167 890 1167 808 m 767 838 l 767 860 q 767 888 761 918 q 755 947 742 971 q 728 995 706 1011 q 684 1026 651 1026 l 651 1026 q 611 1026 581 1005 q 550 983 528 951 q 506 918 492 880 q 478 842 471 810 l 471 810 l 767 838 m 963 1754 l 959 1496 l 327 1504 l 309 1742 l 963 1754"},"Ĕ":{"x_min":44,"x_max":998,"ha":981,"o":"m 76 1442 l 998 1442 q 992 1348 987 1256 q 982 1164 974 1070 l 974 1070 l 550 1048 l 540 922 l 838 922 l 816 612 l 516 602 l 506 456 l 754 456 l 930 456 q 924 346 918 238 q 911 129 906 20 l 906 20 l 44 0 l 76 1442 m 787 1776 l 787 1776 q 787 1712 764 1658 q 740 1603 700 1563 q 659 1523 604 1501 q 549 1478 487 1478 l 487 1478 q 415 1478 360 1500 q 305 1522 268 1563 q 231 1603 212 1661 q 193 1719 193 1792 l 193 1792 q 193 1803 193 1815 q 193 1827 195 1838 l 195 1838 l 427 1808 q 426 1792 428 1772 q 430 1751 438 1733 q 445 1714 459 1701 q 472 1688 495 1688 l 495 1688 q 509 1688 519 1696 q 528 1703 534 1715 q 540 1727 543 1741 q 545 1754 545 1766 l 545 1766 q 545 1795 539 1821 q 532 1847 523 1874 l 523 1874 l 765 1918 q 774 1885 781 1849 q 787 1812 787 1776"},"ĕ":{"x_min":17,"x_max":1167,"ha":1181,"o":"m 1167 808 l 1167 808 q 1167 721 1155 634 l 1155 634 q 984 623 815 599 q 646 574 477 550 l 477 550 q 503 478 559 435 q 614 392 691 392 l 691 392 q 731 392 779 407 q 826 422 873 445 q 920 467 963 493 q 1006 519 1037 540 l 1037 540 l 989 86 q 950 56 905 35 q 859 14 810 1 q 761 -12 711 -18 q 661 -24 613 -24 l 613 -24 q 514 -24 432 3 q 350 30 284 79 q 217 127 167 193 q 117 259 84 337 q 51 415 34 502 q 17 589 17 678 l 17 678 q 17 771 34 864 q 51 957 86 1043 q 120 1129 173 1203 q 225 1276 295 1331 q 365 1386 454 1417 q 542 1448 649 1448 l 649 1448 q 738 1448 812 1424 q 885 1399 943 1356 q 1000 1312 1043 1252 q 1085 1192 1113 1121 q 1140 1049 1154 970 q 1167 890 1167 808 m 767 838 l 767 860 q 767 888 761 918 q 755 947 742 971 q 728 995 706 1011 q 684 1026 651 1026 l 651 1026 q 611 1026 581 1005 q 550 983 528 951 q 506 918 492 880 q 478 842 471 810 l 471 810 l 767 838 m 891 1794 l 891 1794 q 891 1730 868 1676 q 844 1621 804 1581 q 763 1541 708 1519 q 653 1496 591 1496 l 591 1496 q 519 1496 464 1518 q 409 1540 372 1581 q 335 1621 316 1679 q 297 1737 297 1810 l 297 1810 q 297 1821 297 1833 q 297 1845 299 1856 l 299 1856 l 531 1826 q 530 1810 532 1790 q 534 1769 542 1751 q 549 1732 563 1719 q 576 1706 599 1706 l 599 1706 q 613 1706 623 1714 q 632 1721 638 1733 q 644 1745 647 1759 q 649 1772 649 1784 l 649 1784 q 649 1813 643 1839 q 636 1865 627 1892 l 627 1892 l 869 1936 q 878 1903 885 1867 q 891 1830 891 1794"},"Ė":{"x_min":44,"x_max":998,"ha":981,"o":"m 76 1442 l 998 1442 q 992 1348 987 1256 q 982 1164 974 1070 l 974 1070 l 550 1048 l 540 922 l 838 922 l 816 612 l 516 602 l 506 456 l 754 456 l 930 456 q 924 346 918 238 q 911 129 906 20 l 906 20 l 44 0 l 76 1442 m 709 1680 l 709 1680 q 709 1639 694 1604 q 678 1569 651 1543 q 624 1516 588 1501 q 552 1486 511 1486 l 511 1486 q 467 1486 430 1501 q 393 1516 366 1543 q 339 1569 324 1604 q 309 1639 309 1680 l 309 1680 q 309 1720 324 1756 q 339 1792 366 1819 q 392 1845 428 1861 q 464 1876 505 1876 l 505 1876 q 548 1876 586 1861 q 623 1845 651 1819 q 678 1792 694 1756 q 709 1720 709 1680"},"ė":{"x_min":17,"x_max":1167,"ha":1181,"o":"m 1167 808 l 1167 808 q 1167 721 1155 634 l 1155 634 q 984 623 815 599 q 646 574 477 550 l 477 550 q 503 478 559 435 q 614 392 691 392 l 691 392 q 731 392 779 407 q 826 422 873 445 q 920 467 963 493 q 1006 519 1037 540 l 1037 540 l 989 86 q 950 56 905 35 q 859 14 810 1 q 761 -12 711 -18 q 661 -24 613 -24 l 613 -24 q 514 -24 432 3 q 350 30 284 79 q 217 127 167 193 q 117 259 84 337 q 51 415 34 502 q 17 589 17 678 l 17 678 q 17 771 34 864 q 51 957 86 1043 q 120 1129 173 1203 q 225 1276 295 1331 q 365 1386 454 1417 q 542 1448 649 1448 l 649 1448 q 738 1448 812 1424 q 885 1399 943 1356 q 1000 1312 1043 1252 q 1085 1192 1113 1121 q 1140 1049 1154 970 q 1167 890 1167 808 m 767 838 l 767 860 q 767 888 761 918 q 755 947 742 971 q 728 995 706 1011 q 684 1026 651 1026 l 651 1026 q 611 1026 581 1005 q 550 983 528 951 q 506 918 492 880 q 478 842 471 810 l 471 810 l 767 838 m 818 1698 l 818 1698 q 818 1657 803 1622 q 787 1587 760 1561 q 733 1534 697 1519 q 661 1504 620 1504 l 620 1504 q 576 1504 539 1519 q 502 1534 475 1561 q 448 1587 433 1622 q 418 1657 418 1698 l 418 1698 q 418 1738 433 1774 q 448 1810 475 1837 q 501 1863 537 1879 q 573 1894 614 1894 l 614 1894 q 657 1894 695 1879 q 732 1863 760 1837 q 787 1810 803 1774 q 818 1738 818 1698"},"Ę":{"x_min":44,"x_max":998,"ha":981,"o":"m 798 -141 l 896 -283 q 852 -325 797 -356 q 742 -387 680 -387 l 680 -387 q 634 -387 594 -371 q 553 -356 523 -328 q 492 -301 474 -262 q 456 -224 456 -177 l 456 -177 q 456 -123 479 -76 q 502 -29 537 11 l 537 11 l 44 0 l 76 1442 l 998 1442 q 992 1348 987 1256 q 982 1164 974 1070 l 974 1070 l 550 1048 l 540 922 l 838 922 l 816 612 l 516 602 l 506 456 l 930 456 q 924 346 918 238 q 911 129 906 20 l 906 20 l 767 17 q 751 -3 735 -26 q 718 -49 705 -71 q 691 -93 683 -113 q 674 -133 674 -147 l 674 -147 q 674 -165 687 -177 q 700 -189 718 -189 l 718 -189 q 738 -189 762 -173 q 786 -158 798 -141 l 798 -141"},"ę":{"x_min":17,"x_max":1167,"ha":1181,"o":"m 870 -144 l 968 -286 q 924 -328 869 -359 q 814 -390 752 -390 l 752 -390 q 706 -390 666 -374 q 625 -359 595 -331 q 564 -304 546 -265 q 528 -227 528 -180 l 528 -180 q 528 -136 544 -97 q 559 -58 584 -23 l 584 -23 q 443 -17 337 44 q 231 105 160 203 q 89 300 53 424 q 17 547 17 678 l 17 678 q 17 771 34 864 q 51 957 86 1043 q 120 1129 173 1203 q 225 1276 295 1331 q 365 1386 454 1417 q 542 1448 649 1448 l 649 1448 q 738 1448 812 1424 q 885 1399 943 1356 q 1000 1312 1043 1252 q 1085 1192 1113 1121 q 1140 1049 1154 970 q 1167 890 1167 808 l 1167 808 q 1167 721 1155 634 l 1155 634 q 984 623 815 599 q 646 574 477 550 l 477 550 q 503 478 559 435 q 614 392 691 392 l 691 392 q 731 392 779 407 q 826 422 873 445 q 920 467 963 493 q 1006 519 1037 540 l 1037 540 l 989 86 q 921 34 835 8 l 835 8 q 819 -12 803 -34 q 787 -56 775 -77 q 762 -98 754 -117 q 746 -136 746 -150 l 746 -150 q 746 -168 759 -180 q 772 -192 790 -192 l 790 -192 q 810 -192 834 -176 q 858 -161 870 -144 l 870 -144 m 767 838 l 767 860 q 767 888 761 918 q 755 947 742 971 q 728 995 706 1011 q 684 1026 651 1026 l 651 1026 q 611 1026 581 1005 q 550 983 528 951 q 506 918 492 880 q 478 842 471 810 l 471 810 l 767 838"},"Ě":{"x_min":44,"x_max":998,"ha":981,"o":"m 76 1442 l 998 1442 q 992 1348 987 1256 q 982 1164 974 1070 l 974 1070 l 550 1048 l 540 922 l 838 922 l 816 612 l 516 602 l 506 456 l 754 456 l 930 456 q 924 346 918 238 q 911 129 906 20 l 906 20 l 44 0 l 76 1442 m 611 1922 l 831 1826 q 812 1795 785 1756 q 758 1716 728 1673 q 698 1630 667 1587 q 635 1543 607 1506 l 607 1506 l 411 1478 l 121 1796 l 333 1930 l 489 1726 l 611 1922"},"ě":{"x_min":17,"x_max":1167,"ha":1181,"o":"m 1167 808 l 1167 808 q 1167 721 1155 634 l 1155 634 q 984 623 815 599 q 646 574 477 550 l 477 550 q 503 478 559 435 q 614 392 691 392 l 691 392 q 731 392 779 407 q 826 422 873 445 q 920 467 963 493 q 1006 519 1037 540 l 1037 540 l 989 86 q 950 56 905 35 q 859 14 810 1 q 761 -12 711 -18 q 661 -24 613 -24 l 613 -24 q 514 -24 432 3 q 350 30 284 79 q 217 127 167 193 q 117 259 84 337 q 51 415 34 502 q 17 589 17 678 l 17 678 q 17 771 34 864 q 51 957 86 1043 q 120 1129 173 1203 q 225 1276 295 1331 q 365 1386 454 1417 q 542 1448 649 1448 l 649 1448 q 738 1448 812 1424 q 885 1399 943 1356 q 1000 1312 1043 1252 q 1085 1192 1113 1121 q 1140 1049 1154 970 q 1167 890 1167 808 m 767 838 l 767 860 q 767 888 761 918 q 755 947 742 971 q 728 995 706 1011 q 684 1026 651 1026 l 651 1026 q 611 1026 581 1005 q 550 983 528 951 q 506 918 492 880 q 478 842 471 810 l 471 810 l 767 838 m 720 1921 l 940 1825 q 921 1794 894 1755 q 867 1715 837 1672 q 807 1629 776 1586 q 744 1542 716 1505 l 716 1505 l 520 1477 l 230 1795 l 442 1929 l 598 1725 l 720 1921"},"Ĝ":{"x_min":8,"x_max":1258,"ha":1283,"o":"m 1246 876 l 1258 204 q 1211 145 1142 101 q 1073 57 994 28 q 915 -1 832 -15 q 749 -30 674 -30 l 674 -30 q 529 -30 407 22 q 285 74 197 166 q 108 257 58 381 q 8 505 8 648 l 8 648 q 8 757 33 862 q 58 966 105 1059 q 151 1151 218 1229 q 285 1306 370 1362 q 455 1418 556 1449 q 657 1480 772 1480 l 772 1480 q 815 1480 864 1477 q 913 1473 962 1465 q 1010 1456 1056 1441 q 1102 1426 1140 1404 l 1140 1404 l 1112 1022 q 1056 1043 997 1051 q 937 1058 880 1058 l 880 1058 q 800 1058 731 1034 q 661 1009 610 963 q 558 917 528 851 q 498 785 498 702 l 498 702 q 498 650 512 602 q 526 553 555 516 q 583 478 626 455 q 668 432 724 432 l 724 432 q 762 432 803 442 q 843 452 872 476 l 872 476 l 876 554 l 636 558 l 648 858 q 797 863 946 867 q 1095 870 1246 876 l 1246 876 m 991 1640 l 779 1510 l 623 1714 l 501 1520 l 281 1614 q 300 1645 328 1687 q 356 1728 387 1773 q 418 1817 450 1862 q 482 1906 511 1944 l 511 1944 l 717 1946 l 991 1640"},"ĝ":{"x_min":10,"x_max":1260,"ha":1285,"o":"m 1248 876 l 1260 224 q 1213 165 1144 121 q 1075 77 996 48 q 917 19 834 5 q 751 -10 676 -10 l 676 -10 q 531 -10 409 39 q 287 88 199 176 q 110 263 60 384 q 10 505 10 648 l 10 648 q 10 757 35 860 q 60 963 107 1053 q 153 1143 220 1218 q 287 1293 372 1347 q 457 1401 559 1431 q 660 1460 774 1460 l 774 1460 q 817 1460 866 1457 q 915 1453 964 1445 q 1012 1436 1058 1421 q 1104 1406 1142 1384 l 1142 1384 l 1114 1002 q 1058 1023 999 1031 q 939 1038 882 1038 l 882 1038 q 802 1038 733 1017 q 663 995 612 953 q 560 911 530 848 q 500 785 500 702 l 500 702 q 500 650 514 602 q 528 553 557 516 q 585 478 628 455 q 670 432 726 432 l 726 432 q 764 432 805 442 q 845 452 874 476 l 874 476 l 878 554 l 638 558 l 650 858 q 799 863 948 867 q 1097 870 1248 876 l 1248 876 m 1025 1621 l 813 1491 l 657 1695 l 535 1501 l 315 1595 q 334 1626 362 1668 q 390 1709 421 1754 q 452 1798 484 1843 q 516 1887 545 1925 l 545 1925 l 751 1927 l 1025 1621"},"Ğ":{"x_min":8,"x_max":1258,"ha":1283,"o":"m 1246 876 l 1258 204 q 1211 145 1142 101 q 1073 57 994 28 q 915 -1 832 -15 q 749 -30 674 -30 l 674 -30 q 529 -30 407 22 q 285 74 197 166 q 108 257 58 381 q 8 505 8 648 l 8 648 q 8 757 33 862 q 58 966 105 1059 q 151 1151 218 1229 q 285 1306 370 1362 q 455 1418 556 1449 q 657 1480 772 1480 l 772 1480 q 815 1480 864 1477 q 913 1473 962 1465 q 1010 1456 1056 1441 q 1102 1426 1140 1404 l 1140 1404 l 1112 1022 q 1056 1043 997 1051 q 937 1058 880 1058 l 880 1058 q 800 1058 731 1034 q 661 1009 610 963 q 558 917 528 851 q 498 785 498 702 l 498 702 q 498 650 512 602 q 526 553 555 516 q 583 478 626 455 q 668 432 724 432 l 724 432 q 762 432 803 442 q 843 452 872 476 l 872 476 l 876 554 l 636 558 l 648 858 q 797 863 946 867 q 1095 870 1246 876 l 1246 876 m 933 1814 l 933 1814 q 933 1750 910 1696 q 886 1641 846 1601 q 805 1561 750 1539 q 695 1516 633 1516 l 633 1516 q 561 1516 506 1538 q 451 1560 414 1601 q 377 1641 358 1699 q 339 1757 339 1830 l 339 1830 q 339 1841 339 1853 q 339 1865 341 1876 l 341 1876 l 573 1846 q 572 1830 574 1810 q 576 1789 584 1771 q 591 1752 605 1739 q 618 1726 641 1726 l 641 1726 q 655 1726 665 1734 q 674 1741 680 1753 q 686 1765 689 1779 q 691 1792 691 1804 l 691 1804 q 691 1833 685 1859 q 678 1885 669 1912 l 669 1912 l 911 1956 q 920 1923 927 1887 q 933 1850 933 1814"},"ğ":{"x_min":10,"x_max":1260,"ha":1285,"o":"m 1248 876 l 1260 224 q 1213 165 1144 121 q 1075 77 996 48 q 917 19 834 5 q 751 -10 676 -10 l 676 -10 q 531 -10 409 39 q 287 88 199 176 q 110 263 60 384 q 10 505 10 648 l 10 648 q 10 757 35 860 q 60 963 107 1053 q 153 1143 220 1218 q 287 1293 372 1347 q 457 1401 559 1431 q 660 1460 774 1460 l 774 1460 q 817 1460 866 1457 q 915 1453 964 1445 q 1012 1436 1058 1421 q 1104 1406 1142 1384 l 1142 1384 l 1114 1002 q 1058 1023 999 1031 q 939 1038 882 1038 l 882 1038 q 802 1038 733 1017 q 663 995 612 953 q 560 911 530 848 q 500 785 500 702 l 500 702 q 500 650 514 602 q 528 553 557 516 q 585 478 628 455 q 670 432 726 432 l 726 432 q 764 432 805 442 q 845 452 874 476 l 874 476 l 878 554 l 638 558 l 650 858 q 799 863 948 867 q 1097 870 1248 876 l 1248 876 m 925 1794 l 925 1794 q 925 1730 902 1676 q 878 1621 838 1581 q 797 1541 742 1519 q 687 1496 625 1496 l 625 1496 q 553 1496 498 1518 q 443 1540 406 1581 q 369 1621 350 1679 q 331 1737 331 1810 l 331 1810 q 331 1821 331 1833 q 331 1845 333 1856 l 333 1856 l 565 1826 q 564 1810 566 1790 q 568 1769 576 1751 q 583 1732 597 1719 q 610 1706 633 1706 l 633 1706 q 647 1706 657 1714 q 666 1721 672 1733 q 678 1745 681 1759 q 683 1772 683 1784 l 683 1784 q 683 1813 677 1839 q 670 1865 661 1892 l 661 1892 l 903 1936 q 912 1903 919 1867 q 925 1830 925 1794"},"Ġ":{"x_min":8,"x_max":1258,"ha":1283,"o":"m 1246 876 l 1258 204 q 1211 145 1142 101 q 1073 57 994 28 q 915 -1 832 -15 q 749 -30 674 -30 l 674 -30 q 529 -30 407 22 q 285 74 197 166 q 108 257 58 381 q 8 505 8 648 l 8 648 q 8 757 33 862 q 58 966 105 1059 q 151 1151 218 1229 q 285 1306 370 1362 q 455 1418 556 1449 q 657 1480 772 1480 l 772 1480 q 815 1480 864 1477 q 913 1473 962 1465 q 1010 1456 1056 1441 q 1102 1426 1140 1404 l 1140 1404 l 1112 1022 q 1056 1043 997 1051 q 937 1058 880 1058 l 880 1058 q 800 1058 731 1034 q 661 1009 610 963 q 558 917 528 851 q 498 785 498 702 l 498 702 q 498 650 512 602 q 526 553 555 516 q 583 478 626 455 q 668 432 724 432 l 724 432 q 762 432 803 442 q 843 452 872 476 l 872 476 l 876 554 l 636 558 l 648 858 q 797 863 946 867 q 1095 870 1246 876 l 1246 876 m 818 1713 l 818 1713 q 818 1672 803 1637 q 787 1602 760 1576 q 733 1549 697 1534 q 661 1519 620 1519 l 620 1519 q 576 1519 539 1534 q 502 1549 475 1576 q 448 1602 433 1637 q 418 1672 418 1713 l 418 1713 q 418 1753 433 1789 q 448 1825 475 1852 q 501 1878 537 1894 q 573 1909 614 1909 l 614 1909 q 657 1909 695 1894 q 732 1878 760 1852 q 787 1825 803 1789 q 818 1753 818 1713"},"ġ":{"x_min":10,"x_max":1260,"ha":1285,"o":"m 1248 876 l 1260 224 q 1213 165 1144 121 q 1075 77 996 48 q 917 19 834 5 q 751 -10 676 -10 l 676 -10 q 531 -10 409 39 q 287 88 199 176 q 110 263 60 384 q 10 505 10 648 l 10 648 q 10 757 35 860 q 60 963 107 1053 q 153 1143 220 1218 q 287 1293 372 1347 q 457 1401 559 1431 q 660 1460 774 1460 l 774 1460 q 817 1460 866 1457 q 915 1453 964 1445 q 1012 1436 1058 1421 q 1104 1406 1142 1384 l 1142 1384 l 1114 1002 q 1058 1023 999 1031 q 939 1038 882 1038 l 882 1038 q 802 1038 733 1017 q 663 995 612 953 q 560 911 530 848 q 500 785 500 702 l 500 702 q 500 650 514 602 q 528 553 557 516 q 585 478 628 455 q 670 432 726 432 l 726 432 q 764 432 805 442 q 845 452 874 476 l 874 476 l 878 554 l 638 558 l 650 858 q 799 863 948 867 q 1097 870 1248 876 l 1248 876 m 823 1689 l 823 1689 q 823 1648 808 1613 q 792 1578 765 1552 q 738 1525 702 1510 q 666 1495 625 1495 l 625 1495 q 581 1495 544 1510 q 507 1525 480 1552 q 453 1578 438 1613 q 423 1648 423 1689 l 423 1689 q 423 1729 438 1765 q 453 1801 480 1828 q 506 1854 542 1870 q 578 1885 619 1885 l 619 1885 q 662 1885 700 1870 q 737 1854 765 1828 q 792 1801 808 1765 q 823 1729 823 1689"},"Ģ":{"x_min":8,"x_max":1258,"ha":1283,"o":"m 1246 876 l 1258 204 q 1211 145 1142 101 q 1073 57 994 28 q 915 -1 832 -15 q 749 -30 674 -30 l 674 -30 q 529 -30 407 22 q 285 74 197 166 q 108 257 58 381 q 8 505 8 648 l 8 648 q 8 757 33 862 q 58 966 105 1059 q 151 1151 218 1229 q 285 1306 370 1362 q 455 1418 556 1449 q 657 1480 772 1480 l 772 1480 q 815 1480 864 1477 q 913 1473 962 1465 q 1010 1456 1056 1441 q 1102 1426 1140 1404 l 1140 1404 l 1112 1022 q 1056 1043 997 1051 q 937 1058 880 1058 l 880 1058 q 800 1058 731 1034 q 661 1009 610 963 q 558 917 528 851 q 498 785 498 702 l 498 702 q 498 650 512 602 q 526 553 555 516 q 583 478 626 455 q 668 432 724 432 l 724 432 q 762 432 803 442 q 843 452 872 476 l 872 476 l 876 554 l 636 558 l 648 858 q 797 863 946 867 q 1095 870 1246 876 l 1246 876 m 833 -236 l 833 -241 q 833 -274 819 -313 q 805 -353 780 -392 q 755 -431 720 -465 q 684 -500 640 -523 l 640 -523 q 640 -523 640 -507 q 639 -491 638 -468 q 637 -446 636 -420 q 634 -394 633 -374 l 633 -374 q 589 -358 564 -320 q 539 -282 539 -236 l 539 -236 q 539 -206 551 -179 q 562 -153 582 -133 q 602 -113 629 -101 q 656 -89 686 -89 l 686 -89 q 716 -89 743 -101 q 770 -113 790 -133 q 810 -153 822 -179 q 833 -206 833 -236 l 833 -236"},"ģ":{"x_min":10,"x_max":1260,"ha":1285,"o":"m 1248 876 l 1260 224 q 1213 165 1144 121 q 1075 77 996 48 q 917 19 834 5 q 751 -10 676 -10 l 676 -10 q 531 -10 409 39 q 287 88 199 176 q 110 263 60 384 q 10 505 10 648 l 10 648 q 10 757 35 860 q 60 963 107 1053 q 153 1143 220 1218 q 287 1293 372 1347 q 457 1401 559 1431 q 660 1460 774 1460 l 774 1460 q 817 1460 866 1457 q 915 1453 964 1445 q 1012 1436 1058 1421 q 1104 1406 1142 1384 l 1142 1384 l 1114 1002 q 1058 1023 999 1031 q 939 1038 882 1038 l 882 1038 q 802 1038 733 1017 q 663 995 612 953 q 560 911 530 848 q 500 785 500 702 l 500 702 q 500 650 514 602 q 528 553 557 516 q 585 478 628 455 q 670 432 726 432 l 726 432 q 764 432 805 442 q 845 452 874 476 l 874 476 l 878 554 l 638 558 l 650 858 q 799 863 948 867 q 1097 870 1248 876 l 1248 876 m 823 -236 l 823 -241 q 823 -274 809 -313 q 795 -353 770 -392 q 745 -431 710 -465 q 674 -500 630 -523 l 630 -523 q 630 -523 630 -507 q 629 -491 628 -468 q 627 -446 626 -420 q 624 -394 623 -374 l 623 -374 q 579 -358 554 -320 q 529 -282 529 -236 l 529 -236 q 529 -206 541 -179 q 552 -153 572 -133 q 592 -113 619 -101 q 646 -89 676 -89 l 676 -89 q 706 -89 733 -101 q 760 -113 780 -133 q 800 -153 812 -179 q 823 -206 823 -236 l 823 -236"},"Ĥ":{"x_min":42,"x_max":1238,"ha":1282,"o":"m 1206 1426 l 1238 0 l 738 -24 l 734 438 l 504 438 l 490 0 l 42 0 l 80 1406 l 556 1384 l 526 666 l 748 666 l 750 1438 l 1206 1426 m 996 1589 l 784 1459 l 628 1663 l 506 1469 l 286 1563 q 305 1594 333 1636 q 361 1677 392 1722 q 423 1766 455 1811 q 487 1855 516 1893 l 516 1893 l 722 1895 l 996 1589"},"ĥ":{"x_min":42,"x_max":1238,"ha":1282,"o":"m 1206 1406 l 1238 40 l 738 16 l 734 438 l 504 438 l 490 0 l 42 0 l 80 1406 l 556 1384 l 526 666 l 748 666 l 750 1418 l 1206 1406 m 996 1570 l 784 1440 l 628 1644 l 506 1450 l 286 1544 q 305 1575 333 1617 q 361 1658 392 1703 q 423 1747 455 1792 q 487 1836 516 1874 l 516 1874 l 722 1876 l 996 1570"},"Ħ":{"x_min":42,"x_max":1238,"ha":1282,"o":"m 1206 1426 l 1238 0 l 738 -24 l 734 438 l 504 438 l 490 0 l 42 0 l 80 1406 l 556 1384 l 541 1027 l 749 1031 l 750 1438 l 1206 1426 m 526 666 l 748 666 l 748 779 l 531 782 l 526 666"},"ħ":{"x_min":42,"x_max":1238,"ha":1282,"o":"m 1206 1406 l 1238 40 l 738 16 l 734 438 l 504 438 l 490 0 l 42 0 l 80 1406 l 556 1384 l 542 1050 l 749 1054 l 750 1418 l 1206 1406 m 526 666 l 748 666 l 748 802 l 532 805 l 526 666"},"ķ":{"x_min":44,"x_max":1280,"ha":1234,"o":"m 796 1412 l 1280 1292 l 838 766 l 1244 78 l 780 -4 l 476 408 l 460 16 l 44 0 l 76 1432 l 542 1406 l 506 994 l 796 1412 m 763 -236 l 763 -241 q 763 -274 749 -313 q 735 -353 710 -392 q 685 -431 650 -465 q 614 -500 570 -523 l 570 -523 q 570 -523 570 -507 q 569 -491 568 -468 q 567 -446 566 -420 q 564 -394 563 -374 l 563 -374 q 519 -358 494 -320 q 469 -282 469 -236 l 469 -236 q 469 -206 481 -179 q 492 -153 512 -133 q 532 -113 559 -101 q 586 -89 616 -89 l 616 -89 q 646 -89 673 -101 q 700 -113 720 -133 q 740 -153 752 -179 q 763 -206 763 -236 l 763 -236"},"Ĩ":{"x_min":-94,"x_max":706,"ha":609,"o":"m 59 1380 l 591 1408 l 481 46 l 59 24 l 59 1380 m 706 1714 l 706 1714 q 706 1656 685 1606 q 664 1556 628 1519 q 591 1482 542 1461 q 492 1440 436 1440 l 436 1440 q 392 1440 361 1456 q 330 1472 309 1496 q 287 1520 272 1548 q 256 1576 243 1600 q 230 1624 217 1640 q 203 1656 186 1656 l 186 1656 q 175 1656 167 1650 q 159 1643 155 1634 q 150 1625 148 1614 q 146 1603 146 1594 l 146 1594 q 146 1564 154 1536 q 161 1507 172 1480 l 172 1480 l -72 1460 q -84 1502 -89 1545 q -94 1587 -94 1628 l -94 1628 q -94 1689 -78 1742 q -62 1795 -30 1834 q 1 1873 48 1896 q 94 1918 156 1918 l 156 1918 q 211 1918 247 1901 q 283 1884 307 1859 q 331 1834 345 1804 q 358 1774 369 1749 q 380 1724 390 1707 q 400 1690 416 1690 l 416 1690 q 436 1690 447 1708 q 458 1726 458 1744 l 458 1744 q 458 1774 446 1803 q 434 1831 420 1854 l 420 1854 l 668 1894 q 685 1850 696 1806 q 706 1761 706 1714"},"ĩ":{"x_min":-106,"x_max":694,"ha":603,"o":"m 41 1380 l 573 1408 l 503 46 l 81 24 l 41 1380 m 694 1714 l 694 1714 q 694 1656 673 1606 q 652 1556 616 1519 q 579 1482 530 1461 q 480 1440 424 1440 l 424 1440 q 380 1440 349 1456 q 318 1472 297 1496 q 275 1520 260 1548 q 244 1576 231 1600 q 218 1624 205 1640 q 191 1656 174 1656 l 174 1656 q 163 1656 155 1650 q 147 1643 143 1634 q 138 1625 136 1614 q 134 1603 134 1594 l 134 1594 q 134 1564 142 1536 q 149 1507 160 1480 l 160 1480 l -84 1460 q -96 1502 -101 1545 q -106 1587 -106 1628 l -106 1628 q -106 1689 -90 1742 q -74 1795 -42 1834 q -11 1873 36 1896 q 82 1918 144 1918 l 144 1918 q 199 1918 235 1901 q 271 1884 295 1859 q 319 1834 333 1804 q 346 1774 357 1749 q 368 1724 378 1707 q 388 1690 404 1690 l 404 1690 q 424 1690 435 1708 q 446 1726 446 1744 l 446 1744 q 446 1774 434 1803 q 422 1831 408 1854 l 408 1854 l 656 1894 q 673 1850 684 1806 q 694 1761 694 1714"},"Ī":{"x_min":-12,"x_max":642,"ha":609,"o":"m 59 1380 l 591 1408 l 481 46 l 59 24 l 59 1380 m 642 1724 l 638 1466 l 6 1474 l -12 1712 l 642 1724"},"ī":{"x_min":-24,"x_max":630,"ha":603,"o":"m 41 1380 l 573 1408 l 503 46 l 81 24 l 41 1380 m 630 1714 l 626 1456 l -6 1464 l -24 1702 l 630 1714"},"Ĭ":{"x_min":7,"x_max":601,"ha":609,"o":"m 59 1380 l 591 1408 l 481 46 l 59 24 l 59 1380 m 601 1753 l 601 1753 q 601 1689 578 1635 q 554 1580 514 1540 q 473 1500 418 1478 q 363 1455 301 1455 l 301 1455 q 229 1455 174 1477 q 119 1499 82 1540 q 45 1580 26 1638 q 7 1696 7 1769 l 7 1769 q 7 1780 7 1792 q 7 1804 9 1815 l 9 1815 l 241 1785 q 240 1769 242 1749 q 244 1728 252 1710 q 259 1691 273 1678 q 286 1665 309 1665 l 309 1665 q 323 1665 333 1673 q 342 1680 348 1692 q 354 1704 357 1718 q 359 1731 359 1743 l 359 1743 q 359 1772 353 1798 q 346 1824 337 1851 l 337 1851 l 579 1895 q 588 1862 595 1826 q 601 1789 601 1753"},"ĭ":{"x_min":9,"x_max":603,"ha":603,"o":"m 41 1380 l 573 1408 l 503 46 l 81 24 l 41 1380 m 603 1738 l 603 1738 q 603 1674 580 1620 q 556 1565 516 1525 q 475 1485 420 1463 q 365 1440 303 1440 l 303 1440 q 231 1440 176 1462 q 121 1484 84 1525 q 47 1565 28 1623 q 9 1681 9 1754 l 9 1754 q 9 1765 9 1777 q 9 1789 11 1800 l 11 1800 l 243 1770 q 242 1754 244 1734 q 246 1713 254 1695 q 261 1676 275 1663 q 288 1650 311 1650 l 311 1650 q 325 1650 335 1658 q 344 1665 350 1677 q 356 1689 359 1703 q 361 1716 361 1728 l 361 1728 q 361 1757 355 1783 q 348 1809 339 1836 l 339 1836 l 581 1880 q 590 1847 597 1811 q 603 1774 603 1738"},"Į":{"x_min":49,"x_max":591,"ha":609,"o":"m 391 -131 l 489 -273 q 445 -315 390 -346 q 335 -377 273 -377 l 273 -377 q 227 -377 187 -361 q 146 -346 116 -318 q 85 -291 67 -252 q 49 -214 49 -167 l 49 -167 q 49 -110 74 -61 q 99 -13 136 28 l 136 28 l 59 24 l 59 1380 l 591 1408 l 481 46 l 371 40 q 354 19 336 -5 q 317 -29 302 -53 q 287 -77 277 -99 q 267 -121 267 -137 l 267 -137 q 267 -155 280 -167 q 293 -179 311 -179 l 311 -179 q 331 -179 355 -163 q 379 -148 391 -131 l 391 -131"},"į":{"x_min":41,"x_max":573,"ha":603,"o":"m 404 -136 l 502 -278 q 458 -320 403 -351 q 348 -382 286 -382 l 286 -382 q 240 -382 200 -366 q 159 -351 129 -323 q 98 -296 80 -257 q 62 -219 62 -172 l 62 -172 q 62 -114 89 -64 q 115 -14 153 28 l 153 28 l 81 24 l 41 1380 l 573 1408 l 503 46 l 388 40 q 371 19 352 -6 q 333 -31 317 -55 q 301 -80 291 -103 q 280 -126 280 -142 l 280 -142 q 280 -160 293 -172 q 306 -184 324 -184 l 324 -184 q 344 -184 368 -168 q 392 -153 404 -136 l 404 -136"},"İ":{"x_min":59,"x_max":591,"ha":609,"o":"m 59 1380 l 591 1408 l 481 46 l 59 24 l 59 1380 m 527 1647 l 527 1647 q 527 1606 512 1571 q 496 1536 469 1510 q 442 1483 406 1468 q 370 1453 329 1453 l 329 1453 q 285 1453 248 1468 q 211 1483 184 1510 q 157 1536 142 1571 q 127 1606 127 1647 l 127 1647 q 127 1687 142 1723 q 157 1759 184 1786 q 210 1812 246 1828 q 282 1843 323 1843 l 323 1843 q 366 1843 404 1828 q 441 1812 469 1786 q 496 1759 512 1723 q 527 1687 527 1647"},"Ĳ":{"x_min":59,"x_max":1593,"ha":1631,"o":"m 59 1380 l 591 1408 l 481 46 l 59 24 l 59 1380 m 1593 824 l 1593 824 q 1593 765 1593 707 q 1593 649 1587 590 l 1587 590 q 1576 465 1533 354 q 1490 242 1417 158 q 1343 74 1238 25 q 1133 -24 997 -24 l 997 -24 q 944 -24 887 -15 q 829 -6 773 12 q 716 30 665 57 q 613 83 573 118 l 573 118 l 635 532 q 694 475 766 440 q 838 404 923 404 l 923 404 q 978 404 1016 420 q 1054 436 1079 464 q 1104 492 1119 530 q 1133 567 1140 610 q 1146 652 1148 697 q 1149 742 1149 786 l 1149 786 q 1149 945 1133 1103 q 1117 1260 1105 1418 l 1105 1418 l 1563 1448 q 1593 1136 1593 824"},"ĳ":{"x_min":41,"x_max":1598,"ha":1636,"o":"m 41 1380 l 573 1408 l 503 46 l 81 24 l 41 1380 m 1598 824 l 1598 824 q 1598 765 1598 707 q 1598 649 1592 590 l 1592 590 q 1581 465 1538 354 q 1495 242 1422 158 q 1348 74 1243 25 q 1138 -24 1002 -24 l 1002 -24 q 949 -24 892 -15 q 834 -6 778 12 q 721 30 670 57 q 618 83 578 118 l 578 118 l 640 532 q 699 475 771 440 q 843 404 928 404 l 928 404 q 983 404 1021 420 q 1059 436 1084 464 q 1109 492 1124 530 q 1138 567 1145 610 q 1151 652 1153 697 q 1154 742 1154 786 l 1154 786 q 1154 945 1138 1103 q 1122 1260 1110 1418 l 1110 1418 l 1568 1448 q 1598 1136 1598 824"},"Ĵ":{"x_min":-14,"x_max":1067,"ha":1044,"o":"m 1006 824 l 1006 824 q 1006 765 1006 707 q 1006 649 1000 590 l 1000 590 q 989 465 946 354 q 903 242 830 158 q 756 74 651 25 q 546 -24 410 -24 l 410 -24 q 357 -24 300 -15 q 242 -6 186 12 q 129 30 78 57 q 26 83 -14 118 l -14 118 l 48 532 q 107 475 179 440 q 251 404 336 404 l 336 404 q 391 404 429 420 q 467 436 492 464 q 517 492 532 530 q 546 567 553 610 q 559 652 561 697 q 562 742 562 786 l 562 786 q 562 945 546 1103 q 530 1260 518 1418 l 518 1418 l 976 1448 q 1006 1136 1006 824 m 1067 1603 l 855 1473 l 699 1677 l 577 1483 l 357 1577 q 376 1608 404 1650 q 432 1691 463 1736 q 494 1780 526 1825 q 558 1869 587 1907 l 587 1907 l 793 1909 l 1067 1603"},"ĵ":{"x_min":-14,"x_max":1082,"ha":1044,"o":"m 1006 824 l 1006 824 q 1006 765 1006 707 q 1006 649 1000 590 l 1000 590 q 989 465 946 354 q 903 242 830 158 q 756 74 651 25 q 546 -24 410 -24 l 410 -24 q 357 -24 300 -15 q 242 -6 186 12 q 129 30 78 57 q 26 83 -14 118 l -14 118 l 48 532 q 107 475 179 440 q 251 404 336 404 l 336 404 q 391 404 429 420 q 467 436 492 464 q 517 492 532 530 q 546 567 553 610 q 559 652 561 697 q 562 742 562 786 l 562 786 q 562 945 546 1103 q 530 1260 518 1418 l 518 1418 l 976 1448 q 1006 1136 1006 824 m 1082 1608 l 870 1478 l 714 1682 l 592 1488 l 372 1582 q 391 1613 419 1655 q 447 1696 478 1741 q 509 1785 541 1830 q 573 1874 602 1912 l 602 1912 l 808 1914 l 1082 1608"},"Ķ":{"x_min":43,"x_max":1319,"ha":1258,"o":"m 815 1472 l 1319 1432 l 837 766 l 1243 58 l 779 -24 l 475 408 l 459 -44 l 43 -60 l 75 1472 l 541 1446 l 505 994 l 815 1472 m 763 -236 l 763 -241 q 763 -274 749 -313 q 735 -353 710 -392 q 685 -431 650 -465 q 614 -500 570 -523 l 570 -523 q 570 -523 570 -507 q 569 -491 568 -468 q 567 -446 566 -420 q 564 -394 563 -374 l 563 -374 q 519 -358 494 -320 q 469 -282 469 -236 l 469 -236 q 469 -206 481 -179 q 492 -153 512 -133 q 532 -113 559 -101 q 586 -89 616 -89 l 616 -89 q 646 -89 673 -101 q 700 -113 720 -133 q 740 -153 752 -179 q 763 -206 763 -236 l 763 -236"},"ĸ":{"x_min":44,"x_max":1280,"ha":1234,"o":"m 796 1412 l 1280 1292 l 838 766 l 1244 78 l 780 -4 l 476 408 l 460 16 l 44 0 l 76 1432 l 542 1406 l 506 994 l 796 1412"},"Ĺ":{"x_min":46,"x_max":930,"ha":926,"o":"m 930 570 l 930 570 l 888 126 l 46 60 q 52 409 60 754 q 67 1099 78 1448 l 78 1448 l 598 1448 q 575 1229 554 1011 q 533 792 524 570 l 524 570 q 571 568 617 568 q 663 568 710 568 l 710 568 q 766 568 820 569 q 874 570 930 570 m 731 2017 l 919 1777 q 800 1712 687 1646 q 574 1579 461 1501 l 461 1501 l 333 1641 q 353 1665 381 1695 q 409 1724 441 1755 q 472 1786 506 1818 q 540 1849 572 1878 l 572 1878 q 648 1947 731 2017 l 731 2017"},"ĺ":{"x_min":44,"x_max":928,"ha":924,"o":"m 522 530 l 928 530 l 886 86 l 44 20 l 76 1448 l 596 1448 l 522 530 m 731 2017 l 919 1777 q 800 1712 687 1646 q 574 1579 461 1501 l 461 1501 l 333 1641 q 353 1665 381 1695 q 409 1724 441 1755 q 472 1786 506 1818 q 540 1849 572 1878 l 572 1878 q 648 1947 731 2017 l 731 2017"},"Ļ":{"x_min":46,"x_max":930,"ha":926,"o":"m 930 570 l 930 570 l 888 126 l 46 60 q 52 409 60 754 q 67 1099 78 1448 l 78 1448 l 598 1448 q 575 1229 554 1011 q 533 792 524 570 l 524 570 q 571 568 617 568 q 663 568 710 568 l 710 568 q 766 568 820 569 q 874 570 930 570 m 623 -126 l 623 -131 q 623 -164 609 -203 q 595 -243 570 -282 q 545 -321 510 -355 q 474 -390 430 -413 l 430 -413 q 430 -413 430 -397 q 429 -381 428 -358 q 427 -336 426 -310 q 424 -284 423 -264 l 423 -264 q 379 -248 354 -210 q 329 -172 329 -126 l 329 -126 q 329 -96 341 -69 q 352 -43 372 -23 q 392 -3 419 9 q 446 21 476 21 l 476 21 q 506 21 533 9 q 560 -3 580 -23 q 600 -43 612 -69 q 623 -96 623 -126 l 623 -126"},"ļ":{"x_min":44,"x_max":928,"ha":924,"o":"m 522 530 l 928 530 l 886 86 l 44 20 l 76 1448 l 596 1448 l 522 530 m 623 -176 l 623 -181 q 623 -214 609 -253 q 595 -293 570 -332 q 545 -371 510 -405 q 474 -440 430 -463 l 430 -463 q 430 -463 430 -447 q 429 -431 428 -408 q 427 -386 426 -360 q 424 -334 423 -314 l 423 -314 q 379 -298 354 -260 q 329 -222 329 -176 l 329 -176 q 329 -146 341 -119 q 352 -93 372 -73 q 392 -53 419 -41 q 446 -29 476 -29 l 476 -29 q 506 -29 533 -41 q 560 -53 580 -73 q 600 -93 612 -119 q 623 -146 623 -176 l 623 -176"},"Ľ":{"x_min":46,"x_max":1012,"ha":1013,"o":"m 930 570 l 930 570 l 888 126 l 46 60 q 52 409 60 754 q 67 1099 78 1448 l 78 1448 l 598 1448 q 575 1229 554 1011 q 533 792 524 570 l 524 570 q 571 568 617 568 q 663 568 710 568 l 710 568 q 766 568 820 569 q 874 570 930 570 m 1011 1368 l 1011 1364 q 1011 1326 995 1280 q 979 1235 951 1190 q 922 1146 881 1106 q 841 1066 790 1040 l 790 1040 q 790 1041 790 1059 q 789 1077 788 1103 q 786 1129 785 1158 q 783 1188 782 1211 l 782 1211 q 733 1230 704 1273 q 675 1316 675 1368 l 675 1368 q 675 1403 688 1433 q 701 1464 724 1487 q 747 1510 778 1523 q 808 1537 843 1537 l 843 1537 q 878 1537 908 1523 q 939 1510 962 1487 q 985 1464 999 1433 q 1012 1403 1011 1368 l 1011 1368"},"ľ":{"x_min":44,"x_max":1012,"ha":1013,"o":"m 522 530 l 928 530 l 886 86 l 44 20 l 76 1448 l 596 1448 l 522 530 m 1011 1368 l 1011 1364 q 1011 1326 995 1280 q 979 1235 951 1190 q 922 1146 881 1106 q 841 1066 790 1040 l 790 1040 q 790 1041 790 1059 q 789 1077 788 1103 q 786 1129 785 1158 q 783 1188 782 1211 l 782 1211 q 733 1230 704 1273 q 675 1316 675 1368 l 675 1368 q 675 1403 688 1433 q 701 1464 724 1487 q 747 1510 778 1523 q 808 1537 843 1537 l 843 1537 q 878 1537 908 1523 q 939 1510 962 1487 q 985 1464 999 1433 q 1012 1403 1011 1368 l 1011 1368"},"Ŀ":{"x_min":46,"x_max":1064,"ha":1064,"o":"m 930 570 l 930 570 l 888 126 l 46 60 q 52 409 60 754 q 67 1099 78 1448 l 78 1448 l 598 1448 q 575 1229 554 1011 q 533 792 524 570 l 524 570 q 571 568 617 568 q 663 568 710 568 l 710 568 q 766 568 820 569 q 874 570 930 570 m 1064 892 l 1064 892 q 1064 848 1047 810 q 1030 772 1002 744 q 973 715 935 699 q 897 682 854 682 l 854 682 q 810 682 772 699 q 734 715 706 744 q 677 772 661 810 q 644 848 644 892 l 644 892 q 644 935 661 974 q 677 1013 706 1042 q 734 1070 772 1087 q 810 1104 854 1104 l 854 1104 q 897 1104 935 1087 q 973 1070 1002 1042 q 1030 1013 1047 974 q 1064 935 1064 892"},"ŀ":{"x_min":44,"x_max":1064,"ha":1064,"o":"m 522 530 l 928 530 l 886 86 l 44 20 l 76 1448 l 596 1448 l 522 530 m 1064 892 l 1064 892 q 1064 848 1047 810 q 1030 772 1002 744 q 973 715 935 699 q 897 682 854 682 l 854 682 q 810 682 772 699 q 734 715 706 744 q 677 772 661 810 q 644 848 644 892 l 644 892 q 644 935 661 974 q 677 1013 706 1042 q 734 1070 772 1087 q 810 1104 854 1104 l 854 1104 q 897 1104 935 1087 q 973 1070 1002 1042 q 1030 1013 1047 974 q 1064 935 1064 892"},"Ń":{"x_min":41,"x_max":1411,"ha":1441,"o":"m 939 1418 l 1411 1434 l 1339 78 l 815 30 l 535 756 l 491 16 l 41 16 l 77 1434 l 577 1458 l 923 738 l 939 1418 m 1049 1925 l 1237 1685 q 1118 1620 1005 1554 q 892 1487 779 1409 l 779 1409 l 651 1549 q 671 1573 699 1603 q 727 1632 759 1663 q 790 1694 824 1726 q 858 1757 890 1786 l 890 1786 q 966 1855 1049 1925 l 1049 1925"},"ń":{"x_min":28,"x_max":1292,"ha":1335,"o":"m 1292 506 l 1292 506 q 1292 393 1290 283 q 1287 172 1282 60 l 1282 60 l 706 70 q 736 247 758 424 q 780 600 780 780 l 780 780 q 780 793 779 822 q 778 851 775 888 q 772 924 767 963 q 761 1001 752 1033 q 742 1065 729 1086 q 715 1106 696 1106 l 696 1106 q 662 1106 639 1086 q 615 1066 600 1035 q 584 1003 575 964 q 566 925 562 886 q 557 847 556 813 q 554 778 554 756 l 554 756 q 549 579 546 405 q 543 230 538 52 l 538 52 l 28 30 q 48 383 67 732 q 85 1081 96 1434 l 96 1434 l 568 1458 l 564 1298 q 592 1332 625 1362 q 657 1392 694 1414 q 731 1435 773 1448 q 814 1460 860 1460 l 860 1460 q 945 1460 1009 1432 q 1073 1404 1119 1356 q 1165 1308 1196 1243 q 1227 1177 1246 1103 q 1265 1029 1275 949 q 1285 868 1289 790 q 1292 712 1292 639 q 1292 566 1292 506 m 939 1994 l 1127 1754 q 1008 1689 895 1623 q 782 1556 669 1478 l 669 1478 l 541 1618 q 561 1642 589 1672 q 617 1701 649 1732 q 680 1763 714 1795 q 748 1826 780 1855 l 780 1855 q 856 1924 939 1994 l 939 1994"},"Ņ":{"x_min":41,"x_max":1411,"ha":1441,"o":"m 939 1418 l 1411 1434 l 1339 78 l 815 30 l 535 756 l 491 16 l 41 16 l 77 1434 l 577 1458 l 923 738 l 939 1418 m 853 -186 l 853 -191 q 853 -224 839 -263 q 825 -303 800 -342 q 775 -381 740 -415 q 704 -450 660 -473 l 660 -473 q 660 -473 660 -457 q 659 -441 658 -418 q 657 -396 656 -370 q 654 -344 653 -324 l 653 -324 q 609 -308 584 -270 q 559 -232 559 -186 l 559 -186 q 559 -156 571 -129 q 582 -103 602 -83 q 622 -63 649 -51 q 676 -39 706 -39 l 706 -39 q 736 -39 763 -51 q 790 -63 810 -83 q 830 -103 842 -129 q 853 -156 853 -186 l 853 -186"}}}
